<svg xmlns="http://www.w3.org/2000/svg" width="103.453" height="92.343" viewBox="0 0 103.453 92.343">
  <g id="Group_101" data-name="Group 101" transform="translate(261.123 -105.116)">
    <path id="Path_164" data-name="Path 164" d="M-240.241,118.491l-.091-4.648c-1.885.388-3.77.782-5.65,1.2-3.956.839-7.9,1.717-11.84,2.609l-3.3.748.7,3.163,2.111,9.529,2.167,9.525,2.22,9.507c.738,3.172,1.524,6.335,2.3,9.5l2.325,9.494,2.425,9.466c.8,3.159,1.665,6.306,2.506,9.457s1.736,6.292,2.638,9.423c-.382-3.236-.781-6.476-1.228-9.707s-.861-6.469-1.355-9.69l-1.433-9.666-1.529-9.654c-.517-3.217-1.019-6.436-1.568-9.647l-1.637-9.624-1.694-9.621-1.133-6.266q4.357-.78,8.72-1.611c1.471-.272,2.938-.561,4.4-.849l-.013-.535Z" fill="#1e319d"/>
    <path id="Path_165" data-name="Path 165" d="M-227.054,118.5l.123-.025-.11-.625-.013.645Z" fill="#1e319d"/>
    <path id="Path_166" data-name="Path 166" d="M-191.766,117.924l-.1.547.107.022v0Z" fill="#1e319d"/>
    <path id="Path_167" data-name="Path 167" d="M-160.972,117.648c-3.936-.892-7.883-1.77-11.839-2.609-1.879-.414-3.762-.807-5.646-1.195l-.088,4.647-.048,2.1-.014.537c1.465.287,2.93.575,4.4.847q4.359.83,8.72,1.611l-1.133,6.266-1.694,9.621-1.638,9.624c-.548,3.211-1.05,6.43-1.568,9.647l-1.528,9.654-1.433,9.666c-.494,3.221-.909,6.459-1.355,9.69s-.846,6.471-1.228,9.707c.9-3.131,1.8-6.271,2.638-9.423s1.7-6.3,2.506-9.457l2.425-9.466,2.325-9.494c.777-3.164,1.563-6.327,2.3-9.5l2.22-9.507,2.167-9.525,2.11-9.529.7-3.163Z" fill="#1e319d"/>
    <path id="Path_168" data-name="Path 168" d="M-182.919,147.781c.281-6.51.49-13.013.667-19.524l.008-.434.185-7.234.048-2.1.185-9.758.064-3.256-3.392-.072-6.061-.137-6.06-.08c-3.452-.055-6.9-.053-10.348-.066-.591,0-1.182,0-1.774-.006-.564,0-1.128,0-1.692.006-3.479.013-6.958.012-10.437.074-4.035.04-8.078.12-12.121.217l-3.384.08.064,3.24.193,9.758.048,2.1.185,7.234.008.434.3,9.758c.1,3.256.242,6.511.37,9.766l.4,9.767.083,1.582.432,8.176c.152,3.255.385,6.511.586,9.766s.45,6.511.716,9.758c.265-3.247.522-6.5.715-9.758s.434-6.511.587-9.766l.431-8.176.083-1.582.4-9.767c.137-3.255.281-6.51.37-9.766l.3-9.758.008-.458.177-7.186.056-2.122.129-6.366q4.437.1,8.866.144c3.5.056,6.995.055,10.493.073.546,0,1.091,0,1.636.008.611,0,1.22,0,1.83-.008,3.431-.014,6.859-.018,10.292-.073l6.06-.08,2.806-.056.12,6.358.056,2.122.177,7.178.008.466c.177,6.511.386,13.014.668,19.524l.409,9.767.088,1.684.419,8.074c.161,3.255.386,6.511.6,9.766.193,3.255.45,6.511.715,9.758.273-3.247.523-6.5.723-9.758s.435-6.511.6-9.766l.419-8.074.088-1.684Z" fill="#1e319d"/>
    <circle id="Ellipse_31" data-name="Ellipse 31" cx="13.397" cy="13.397" r="13.397" transform="translate(-222.793 143.428)" fill="#1e319d"/>
  </g>
</svg>
