<svg xmlns="http://www.w3.org/2000/svg" xmlns:xlink="http://www.w3.org/1999/xlink" width="594.591" height="844.134" viewBox="0 0 594.591 844.134"><defs><style>.a{fill:none;}.b{clip-path:url(#a);}.c{fill:#2d409e;}</style><clipPath id="a"><rect class="a" width="594.591" height="844.134" transform="translate(0.343 -1.122)"/></clipPath></defs><g class="b" transform="translate(-0.343 1.122)"><path class="c" d="M297.374,250.9l-17.842,17.077h17.019l.842-10.4.067.839v-7.435Z"/><path class="c" d="M204.664,267.973h17.019l.842-10.4.833,10.4h16.991L222.506,250.9Z"/><path class="c" d="M129.8,267.974h17.019l.842-10.4.833,10.4h16.991L147.639,250.9Z"/><path class="c" d="M54.929,267.974H71.948l.842-10.4.833,10.4H90.614L72.771,250.9Z"/><path class="c" d="M-2.009,258.415l.765,9.559H15.747L-2.01,250.981Z"/><path class="c" d="M286.152,222.715h.191l-7.8,6.619V213.462H262.319l-2.225,27.474-2.2-27.474H241.677v15.923l-7.856-6.67h.078v-9.252h-1.325v9.252h.518l8.809,7.48,0-.006,18.208,17.427,18.435-17.644v-.019l8.421-7.15-.03-.087h.539v-9.252h-1.325Z"/><path class="c" d="M211.285,222.715h.191l-7.8,6.619V213.463H187.451l-2.225,27.474-2.2-27.474H166.81v15.923l-7.856-6.67h.078v-9.252h-1.325v9.252h.518l8.809,7.48,0-.006,18.208,17.426,18.435-17.644v-.019l8.421-7.15-.03-.087h.539v-9.252h-1.325Z"/><path class="c" d="M136.418,222.716h.191l-7.8,6.619V213.463H112.584l-2.225,27.474-2.2-27.474H91.943v15.923l-7.856-6.67h.078v-9.252H82.84v9.252h.518l8.809,7.48,0-.005,18.208,17.426,18.435-17.644v-.019l8.421-7.15-.03-.087h.539v-9.252h-1.325Z"/><path class="c" d="M61.55,222.716h.191l-7.8,6.619V213.464H37.717l-2.225,27.474-2.2-27.474H17.075v15.923l-7.856-6.67H9.3v-9.252H7.973v9.252h.519L17.3,230.2l0-.006L35.51,247.617l18.435-17.644v-.019l8.421-7.15-.03-.087h.539v-9.252H61.55Z"/><path class="c" d="M297.373,176.029l-18.435,17.644v.019l-8.421,7.15.03.087h-.539v9.252h1.325v-9.252h-.191l7.8-6.619v15.872h16.229l2.225-27.474.067.839v-7.435Z"/><path class="c" d="M240.716,193.45l0,.006-18.208-17.427-18.435,17.644v.019l-8.421,7.15.03.087h-.539v9.252h1.325V200.93h-.191l7.8-6.619v15.872H220.3l2.225-27.474,2.2,27.474h16.216V194.259l7.856,6.67h-.078v9.252h1.325V200.93h-.518Z"/><path class="c" d="M165.849,193.45l0,.006-18.208-17.426L129.2,193.674v.019l-8.421,7.15.03.087h-.539v9.253H121.6V200.93h-.191l7.8-6.619v15.872h16.229l2.225-27.474,2.2,27.474h16.216V194.26l7.856,6.67h-.078v9.252h1.325V200.93h-.518Z"/><path class="c" d="M90.981,193.451l0,.006L72.771,176.03,54.336,193.674v.019l-8.421,7.15.03.087h-.539v9.252h1.325v-9.252H46.54l7.8-6.619v15.872H70.565l2.225-27.474,2.2,27.474H91.206V194.26l7.856,6.67h-.078v9.252h1.325v-9.252H99.79Z"/><path class="c" d="M16.339,210.184V194.261l7.856,6.67h-.078v9.253h1.325v-9.253h-.519l-8.809-7.48,0,.006L-2.01,176.113v7.435L.123,210.184Z"/><path class="c" d="M286.152,147.847h.191l-7.8,6.619V138.595H262.318l-2.225,27.474-2.2-27.474H241.677v15.923l-7.855-6.67h.078V138.6h-1.325v9.252h.519l8.809,7.48,0-.006,18.208,17.427L278.547,155.1v-.019l8.421-7.15-.03-.087h.539v-9.252h-1.325Z"/><path class="c" d="M211.285,147.848h.191l-7.8,6.619V138.6H187.451l-2.225,27.474-2.2-27.474H166.809v15.923l-7.855-6.67h.078V138.6h-1.325v9.252h.519l8.809,7.48,0-.006,18.208,17.426L203.68,155.1v-.019l8.421-7.15-.03-.087h.539V138.6h-1.325Z"/><path class="c" d="M136.417,147.848h.191l-7.8,6.619V138.6H112.583l-2.225,27.474-2.2-27.474H91.942v15.923l-7.855-6.67h.078V138.6H82.84v9.252h.519l8.809,7.48,0-.005,18.208,17.426,18.435-17.644v-.019l8.421-7.15-.03-.087h.539V138.6h-1.325Z"/><path class="c" d="M61.55,147.849h.191l-7.8,6.619V138.6H37.716l-2.225,27.474-2.2-27.474H17.075v15.923l-7.856-6.67H9.3V138.6H7.972v9.252h.519l8.809,7.48,0-.006L35.51,172.75l18.435-17.644v-.019l8.421-7.15-.03-.087h.539V138.6H61.55Z"/><path class="c" d="M297.373,101.161l-18.435,17.644v.019l-8.421,7.15.03.087h-.539v9.252h1.325v-9.252h-.191l7.8-6.619v15.872h16.229l2.226-27.474.067.839v-7.435Z"/><path class="c" d="M240.715,118.583l0,.006-18.208-17.427L204.07,118.806v.019l-8.42,7.15.03.087h-.539v9.252h1.325v-9.252h-.191l7.8-6.619v15.872H220.3l2.226-27.474,2.2,27.474h16.216V119.392l7.856,6.67h-.078v9.252h1.325v-9.252h-.519Z"/><path class="c" d="M165.848,118.583l0,.006-18.208-17.426L129.2,118.806v.019l-8.42,7.15.03.087h-.539v9.253H121.6v-9.253h-.191l7.8-6.619v15.872h16.229l2.226-27.474,2.2,27.474h16.216V119.393l7.856,6.67h-.078v9.252h1.325v-9.252h-.519Z"/><path class="c" d="M90.981,118.583l0,.006L72.77,101.163,54.335,118.807v.019l-8.42,7.15.03.087h-.539v9.252h1.325v-9.252H46.54l7.8-6.619v15.872H70.564l2.226-27.474,2.2,27.474H91.206V119.393l7.856,6.67h-.078v9.252h1.325v-9.252H99.79Z"/><path class="c" d="M16.339,135.316V119.393l7.856,6.67h-.078v9.253h1.325v-9.253h-.519l-8.809-7.48,0,.006L-2.01,101.246v7.435L.123,135.316Z"/><path class="c" d="M597,250.9l-17.842,17.077h17.019l.842-10.4.067.839v-7.435Z"/><path class="c" d="M504.295,267.973h17.019l.842-10.4.833,10.4H539.98L522.137,250.9Z"/><path class="c" d="M429.427,267.974h17.019l.842-10.4.833,10.4h16.991L447.27,250.9Z"/><path class="c" d="M354.56,267.974h17.019l.842-10.4.833,10.4h16.991L372.4,250.9Z"/><path class="c" d="M297.622,258.415l.765,9.559h16.991l-17.756-16.994Z"/><path class="c" d="M585.783,222.715h.191l-7.8,6.619V213.462H561.95l-2.225,27.474-2.2-27.474H541.308v15.923l-7.856-6.67h.078v-9.252h-1.325v9.252h.518l8.809,7.48,0-.006,18.208,17.427,18.435-17.644v-.019l8.421-7.15-.03-.087h.539v-9.252h-1.325Z"/><path class="c" d="M510.916,222.715h.191l-7.8,6.619V213.463H487.082l-2.225,27.474-2.2-27.474H466.441v15.923l-7.856-6.67h.078v-9.252h-1.325v9.252h.518l8.809,7.48,0-.006,18.208,17.426,18.435-17.644v-.019l8.421-7.15-.03-.087h.539v-9.252h-1.325Z"/><path class="c" d="M436.049,222.716h.191l-7.8,6.619V213.463H412.215l-2.225,27.474-2.2-27.474H391.574v15.923l-7.856-6.67h.078v-9.252h-1.325v9.252h.518l8.809,7.48,0-.005,18.208,17.426,18.435-17.644v-.019l8.421-7.15-.03-.087h.539v-9.252h-1.325Z"/><path class="c" d="M361.181,222.716h.191l-7.8,6.619V213.464H337.348l-2.225,27.474-2.2-27.474H316.706v15.923l-7.856-6.67h.078v-9.252H307.6v9.252h.519l8.809,7.48,0-.006,18.208,17.427,18.435-17.644v-.019L362,222.8l-.03-.087h.539v-9.252h-1.325Z"/><path class="c" d="M597,176.029l-18.435,17.644v.019l-8.421,7.15.03.087h-.539v9.252h1.325v-9.252h-.191l7.8-6.619v15.872H594.8l2.225-27.474.067.839v-7.435Z"/><path class="c" d="M540.347,193.45l0,.006-18.208-17.427L503.7,193.673v.019l-8.421,7.15.03.087h-.539v9.252H496.1V200.93h-.191l7.8-6.619v15.872h16.229l2.225-27.474,2.2,27.474h16.216V194.259l7.856,6.67h-.078v9.252h1.325V200.93h-.518Z"/><path class="c" d="M465.48,193.45l0,.006L447.27,176.029l-18.435,17.644v.019l-8.421,7.15.03.087H419.9v9.253h1.325V200.93h-.191l7.8-6.619v15.872h16.229l2.225-27.474,2.2,27.474H465.7V194.26l7.856,6.67h-.078v9.252h1.325V200.93h-.518Z"/><path class="c" d="M390.612,193.451l0,.006L372.4,176.03l-18.435,17.644v.019l-8.421,7.15.03.087h-.539v9.252h1.325v-9.252h-.191l7.8-6.619v15.872H370.2l2.225-27.474,2.2,27.474h16.216V194.26l7.856,6.67h-.078v9.252h1.325v-9.252h-.518Z"/><path class="c" d="M315.97,210.184V194.261l7.856,6.67h-.078v9.253h1.325v-9.253h-.519l-8.809-7.48,0,.006-18.122-17.344v7.435l2.133,26.636Z"/><path class="c" d="M585.783,147.847h.191l-7.8,6.619V138.595H561.949l-2.225,27.474-2.2-27.474H541.308v15.923l-7.855-6.67h.078V138.6h-1.325v9.252h.519l8.809,7.48,0-.006,18.208,17.427L578.178,155.1v-.019l8.421-7.15-.03-.087h.539v-9.252h-1.325Z"/><path class="c" d="M510.916,147.848h.191l-7.8,6.619V138.6H487.082l-2.225,27.474-2.2-27.474H466.44v15.923l-7.855-6.67h.078V138.6h-1.325v9.252h.519l8.809,7.48,0-.006,18.208,17.426L503.311,155.1v-.019l8.421-7.15-.03-.087h.539V138.6h-1.325Z"/><path class="c" d="M436.048,147.848h.191l-7.8,6.619V138.6H412.214l-2.225,27.474-2.2-27.474H391.573v15.923l-7.855-6.67h.078V138.6h-1.325v9.252h.519l8.809,7.48,0-.005,18.208,17.426,18.435-17.644v-.019l8.421-7.15-.03-.087h.539V138.6h-1.325Z"/><path class="c" d="M361.181,147.849h.191l-7.8,6.619V138.6H337.347l-2.225,27.474-2.2-27.474H316.706v15.923l-7.856-6.67h.078V138.6H307.6v9.252h.519l8.809,7.48,0-.006,18.208,17.426,18.435-17.644v-.019l8.421-7.15-.03-.087h.539V138.6h-1.325Z"/><path class="c" d="M597,101.161l-18.435,17.644v.019l-8.42,7.15.03.087h-.539v9.252h1.325v-9.252h-.191l7.8-6.619v15.872H594.8l2.226-27.474.067.839v-7.435Z"/><path class="c" d="M540.346,118.583l0,.006-18.208-17.427L503.7,118.806v.019l-8.42,7.15.03.087h-.539v9.252H496.1v-9.252h-.191l7.8-6.619v15.872H519.93l2.226-27.474,2.2,27.474h16.216V119.392l7.856,6.67h-.078v9.252h1.325v-9.252h-.519Z"/><path class="c" d="M465.479,118.583l0,.006-18.208-17.426-18.435,17.644v.019l-8.42,7.15.03.087H419.9v9.253h1.325v-9.253h-.191l7.8-6.619v15.872h16.229l2.226-27.474,2.2,27.474H465.7V119.393l7.856,6.67h-.078v9.252h1.325v-9.252h-.519Z"/><path class="c" d="M390.612,118.583l0,.006L372.4,101.163l-18.435,17.644v.019l-8.421,7.15.03.087h-.539v9.252h1.325v-9.252h-.191l7.8-6.619v15.872H370.2l2.226-27.474,2.2,27.474h16.216V119.393l7.856,6.67h-.078v9.252h1.325v-9.252h-.519Z"/><path class="c" d="M315.97,135.316V119.393l7.856,6.67h-.078v9.253h1.325v-9.253h-.519l-8.809-7.48,0,.006-18.122-17.344v7.435l2.133,26.636Z"/><path class="c" d="M286.152,72.98h.191l-7.8,6.619V63.727H262.318L260.093,91.2l-2.2-27.474H241.676V79.651l-7.856-6.67h.078V63.728h-1.325V72.98h.519l8.809,7.48,0-.006,18.208,17.427,18.435-17.644v-.019l8.42-7.15-.03-.087h.539V63.727h-1.325Z"/><path class="c" d="M211.284,72.981h.191l-7.8,6.619V63.728H187.451L185.225,91.2l-2.2-27.474H166.809V79.651l-7.856-6.67h.078V63.728h-1.325v9.252h.519l8.809,7.48,0-.006,18.208,17.426L203.68,80.237v-.019l8.42-7.15-.03-.087h.539V63.728h-1.325Z"/><path class="c" d="M136.417,72.981h.191l-7.8,6.619V63.728H112.583L110.358,91.2l-2.2-27.474H91.941V79.651l-7.856-6.67h.078V63.729H82.839v9.252h.519l8.809,7.48,0-.005,18.208,17.426,18.435-17.644v-.019l8.42-7.15-.03-.087h.539V63.728h-1.325Z"/><path class="c" d="M61.549,72.981h.191l-7.8,6.619V63.729H37.716L35.49,91.2l-2.2-27.474H17.074V79.652l-7.856-6.67H9.3V63.729H7.972v9.252H8.49l8.809,7.48,0-.006L35.51,97.882,53.945,80.238v-.019l8.42-7.15-.03-.087h.539V63.729H61.549Z"/><path class="c" d="M297.372,26.294,278.937,43.938v.019l-8.421,7.15.03.087h-.539v9.252h1.325V51.195h-.191l7.8-6.619V60.447h16.229l2.225-27.474.067.839V26.376Z"/><path class="c" d="M240.715,43.715l0,.006L222.5,26.294,204.07,43.938v.019l-8.421,7.15.03.087h-.539v9.252h1.325V51.2h-.191l7.8-6.619V60.448H220.3l2.225-27.474,2.2,27.474H240.94V44.525l7.856,6.67h-.078v9.252h1.325V51.195h-.519Z"/><path class="c" d="M165.848,43.715l0,.006L147.637,26.295,129.2,43.939v.019l-8.421,7.15.03.087h-.539v9.253H121.6V51.2h-.191l7.8-6.619V60.448h16.229l2.225-27.474,2.2,27.474h16.216V44.525l7.856,6.67h-.078v9.252h1.325V51.2h-.519Z"/><path class="c" d="M90.98,43.716l0,.006L72.77,26.3,54.335,43.939v.019l-8.421,7.15.03.087h-.539v9.252H46.73V51.2h-.191l7.8-6.619V60.449H70.564l2.225-27.474,2.2,27.474H91.206V44.526l7.856,6.67h-.078v9.252h1.325V51.2h-.519Z"/><path class="c" d="M16.338,60.449V44.526l7.856,6.67h-.078v9.253h1.325V51.2h-.519l-8.809-7.48,0,.006L-2.011,26.378v7.435L.122,60.449Z"/><path class="c" d="M286.151-1.887h.191l-7.8,6.619V-11.14H262.317l-2.225,27.474-2.2-27.474H241.676V4.783l-7.856-6.67h.078V-11.14h-1.325v9.252h.519l8.809,7.48,0-.006,18.208,17.427L278.547,5.37V5.35l8.421-7.15-.03-.087h.539V-11.14h-1.325Z"/><path class="c" d="M211.284-1.887h.191l-7.8,6.619V-11.139H187.45l-2.225,27.474-2.2-27.474H166.808V4.783l-7.856-6.67h.078v-9.252h-1.325v9.252h.519l8.809,7.48,0-.006,18.208,17.426L203.679,5.37V5.351L212.1-1.8l-.03-.087h.539v-9.252h-1.325Z"/><path class="c" d="M136.416-1.887h.191l-7.8,6.619V-11.139H112.583l-2.225,27.474-2.2-27.474H91.941V4.784l-7.856-6.67h.078v-9.252H82.839v9.252h.519l8.809,7.48,0-.005,18.208,17.426L128.812,5.37V5.351l8.421-7.15-.03-.087h.539v-9.252h-1.325Z"/><path class="c" d="M61.549-1.886h.191l-7.8,6.619V-11.138H37.715L35.49,16.336l-2.2-27.474H17.074V4.785L9.218-1.886H9.3v-9.252H7.971v9.252H8.49L17.3,5.594l0-.006L35.509,23.015,53.944,5.371V5.352L62.365-1.8l-.03-.087h.539v-9.252H61.549Z"/><path class="c" d="M278.936-30.929v.019l-8.42,7.15.03.087h-.539v9.252h1.325v-9.252h-.191l7.8-6.619V-14.42h16.229L296.549-31.5H279.529Z"/><path class="c" d="M224.724-14.42H240.94V-30.343l7.856,6.67h-.078v9.252h1.325v-9.252h-.519l-8.809-7.48,0,.006-.366-.35H223.356Z"/><path class="c" d="M204.069-30.91l-8.42,7.15.03.087h-.539v9.252h1.325v-9.252h-.191l7.8-6.619V-14.42H220.3L221.681-31.5H204.662l-.593.567Z"/><path class="c" d="M129.2-30.909l-8.42,7.15.03.087h-.539v9.253H121.6v-9.253h-.191l7.8-6.619v15.872h16.229L146.814-31.5H129.795l-.593.567Z"/><path class="c" d="M149.856-14.419h16.216V-30.342l7.856,6.67h-.078v9.252h1.325v-9.252h-.519l-8.809-7.48,0,.006-.366-.35H148.489Z"/><path class="c" d="M54.334-30.909l-8.42,7.15.03.087H45.4v9.252H46.73v-9.252h-.191l7.8-6.619v15.872H70.563L71.947-31.5H54.927l-.593.567Z"/><path class="c" d="M74.989-14.419H91.205V-30.342l7.856,6.67h-.078v9.252h1.325v-9.252h-.519l-8.809-7.48,0,.006-.366-.35H73.622Z"/><path class="c" d="M16.338-14.418V-30.341l7.856,6.67h-.078v9.253H25.44v-9.253h-.519l-8.809-7.48,0,.005-.366-.35H-1.246L.122-14.418Z"/><path class="c" d="M585.783,72.98h.191l-7.8,6.619V63.727H561.949L559.724,91.2l-2.2-27.474H541.307V79.651l-7.856-6.67h.078V63.728H532.2V72.98h.519l8.809,7.48,0-.006,18.208,17.427,18.435-17.644v-.019l8.42-7.15-.03-.087h.539V63.727h-1.325Z"/><path class="c" d="M510.915,72.981h.191l-7.8,6.619V63.728H487.082L484.856,91.2l-2.2-27.474H466.44V79.651l-7.856-6.67h.078V63.728h-1.325v9.252h.519l8.809,7.48,0-.006,18.208,17.426,18.435-17.644v-.019l8.42-7.15-.03-.087h.539V63.728h-1.325Z"/><path class="c" d="M436.048,72.981h.191l-7.8,6.619V63.728H412.214L409.989,91.2l-2.2-27.474H391.572V79.651l-7.856-6.67h.078V63.729H382.47v9.252h.519l8.809,7.48,0-.005,18.208,17.426,18.435-17.644v-.019l8.421-7.15-.03-.087h.539V63.728h-1.325Z"/><path class="c" d="M361.18,72.981h.191l-7.8,6.619V63.729H337.347L335.121,91.2l-2.2-27.474H316.705V79.652l-7.856-6.67h.078V63.729H307.6v9.252h.519l8.809,7.48,0-.006,18.208,17.426,18.435-17.644v-.019L362,73.069l-.03-.087h.539V63.729H361.18Z"/><path class="c" d="M597,26.294,578.568,43.938v.019l-8.421,7.15.03.087h-.539v9.252h1.325V51.195h-.191l7.8-6.619V60.447H594.8l2.225-27.474.067.839V26.376Z"/><path class="c" d="M540.346,43.715l0,.006L522.136,26.294,503.7,43.938v.019l-8.421,7.15.03.087h-.539v9.252H496.1V51.2h-.191l7.8-6.619V60.448H519.93l2.225-27.474,2.2,27.474h16.216V44.525l7.856,6.67h-.078v9.252h1.325V51.195h-.519Z"/><path class="c" d="M465.479,43.715l0,.006L447.268,26.295,428.833,43.939v.019l-8.421,7.15.03.087H419.9v9.253h1.325V51.2h-.191l7.8-6.619V60.448h16.229l2.225-27.474,2.2,27.474H465.7V44.525l7.856,6.67h-.078v9.252h1.325V51.2h-.519Z"/><path class="c" d="M390.611,43.716l0,.006L372.4,26.3,353.966,43.939v.019l-8.421,7.15.03.087h-.539v9.252h1.325V51.2h-.191l7.8-6.619V60.449H370.2l2.225-27.474,2.2,27.474h16.216V44.526l7.856,6.67h-.078v9.252h1.325V51.2h-.519Z"/><path class="c" d="M315.969,60.449V44.526l7.856,6.67h-.078v9.253h1.325V51.2h-.519l-8.809-7.48,0,.006L297.62,26.378v7.435l2.133,26.636Z"/><path class="c" d="M585.782-1.887h.191l-7.8,6.619V-11.14H561.948l-2.225,27.474-2.2-27.474H541.307V4.783l-7.856-6.67h.078V-11.14H532.2v9.252h.519l8.809,7.48,0-.006,18.208,17.427L578.177,5.37V5.35L586.6-1.8l-.03-.087h.539V-11.14h-1.325Z"/><path class="c" d="M510.915-1.887h.191l-7.8,6.619V-11.139H487.081l-2.225,27.474-2.2-27.474H466.439V4.783l-7.856-6.67h.078v-9.252h-1.325v9.252h.519l8.809,7.48,0-.006,18.208,17.426L503.31,5.37V5.351l8.421-7.15-.03-.087h.539v-9.252h-1.325Z"/><path class="c" d="M436.047-1.887h.191l-7.8,6.619V-11.139H412.214l-2.225,27.474-2.2-27.474H391.572V4.784l-7.856-6.67h.078v-9.252H382.47v9.252h.519l8.809,7.48,0-.005,18.208,17.426L428.443,5.37V5.351l8.421-7.15-.03-.087h.539v-9.252h-1.325Z"/><path class="c" d="M361.18-1.886h.191l-7.8,6.619V-11.138H337.346l-2.225,27.474-2.2-27.474H316.7V4.785l-7.856-6.67h.078v-9.252H307.6v9.252h.519l8.809,7.48,0-.006L335.14,23.015,353.575,5.371V5.352L362-1.8l-.03-.087h.539v-9.252H361.18Z"/><path class="c" d="M578.567-30.929v.019l-8.421,7.15.03.087h-.539v9.252h1.325v-9.252h-.191l7.8-6.619V-14.42H594.8L596.18-31.5H579.16Z"/><path class="c" d="M524.355-14.42h16.216V-30.343l7.856,6.67h-.078v9.252h1.325v-9.252h-.519l-8.809-7.48,0,.006-.366-.35H522.987Z"/><path class="c" d="M503.7-30.91l-8.421,7.15.03.087h-.539v9.252H496.1v-9.252H495.9l7.8-6.619V-14.42h16.229L521.312-31.5H504.293l-.593.567Z"/><path class="c" d="M428.833-30.909l-8.42,7.15.03.087H419.9v9.253h1.325v-9.253h-.191l7.8-6.619v15.872h16.229L446.445-31.5H429.426l-.593.567Z"/><path class="c" d="M449.487-14.419H465.7V-30.342l7.856,6.67h-.078v9.252h1.325v-9.252h-.519l-8.809-7.48,0,.006-.366-.35H448.12Z"/><path class="c" d="M353.965-30.909l-8.42,7.15.03.087h-.539v9.252h1.325v-9.252h-.191l7.8-6.619v15.872h16.229L371.578-31.5H354.558l-.593.567Z"/><path class="c" d="M374.62-14.419h16.216V-30.342l7.856,6.67h-.078v9.252h1.325v-9.252h-.519l-8.809-7.48,0,.006-.366-.35H373.253Z"/><path class="c" d="M315.969-14.418V-30.341l7.856,6.67h-.078v9.253h1.325v-9.253h-.519l-8.809-7.48,0,.005-.366-.35H298.385l1.367,17.077Z"/><path class="c" d="M286.152,672.17h.191l-7.8,6.62V662.918H262.318l-2.225,27.474-2.2-27.474H241.676v15.923l-7.856-6.67h.078v-9.252h-1.325v9.252h.519l8.809,7.48,0-.006,18.208,17.427,18.435-17.644v-.019l8.42-7.15-.03-.087h.539v-9.252h-1.325Z"/><path class="c" d="M211.284,672.171h.191l-7.8,6.619V662.918H187.451l-2.225,27.474-2.2-27.474H166.809v15.923l-7.856-6.67h.078v-9.252h-1.325v9.252h.519l8.809,7.48,0-.006,18.208,17.426,18.435-17.644v-.019l8.42-7.15-.03-.087h.539v-9.252h-1.325Z"/><path class="c" d="M136.417,672.171h.191l-7.8,6.619V662.919H112.583l-2.225,27.474-2.2-27.474H91.941v15.923l-7.856-6.67h.078v-9.252H82.839v9.252h.519l8.809,7.48,0-.005,18.208,17.426,18.435-17.644v-.019l8.42-7.15-.03-.087h.539v-9.252h-1.325Z"/><path class="c" d="M61.549,672.172h.191l-7.8,6.619V662.919H37.716L35.49,690.393l-2.2-27.474H17.074v15.923l-7.856-6.67H9.3V662.92H7.972v9.252H8.49l8.809,7.48,0-.006L35.51,697.073l18.435-17.644v-.019l8.42-7.15-.03-.087h.539v-9.252H61.549Z"/><path class="c" d="M297.372,625.484l-18.435,17.644v.019l-8.421,7.15.03.087h-.539v9.252h1.325v-9.252h-.191l7.8-6.619v15.872h16.229l2.225-27.474.067.839v-7.435Z"/><path class="c" d="M240.715,642.905l0,.006L222.5,625.484,204.07,643.129v.019l-8.421,7.15.03.087h-.539v9.252h1.325v-9.252h-.191l7.8-6.619v15.872H220.3l2.225-27.474,2.2,27.474H240.94V643.715l7.856,6.67h-.078v9.252h1.325v-9.252h-.519Z"/><path class="c" d="M165.848,642.906l0,.006-18.208-17.426L129.2,643.129v.019l-8.421,7.15.03.087h-.539v9.253H121.6v-9.253h-.191l7.8-6.619v15.872h16.229l2.225-27.474,2.2,27.474h16.216V643.715l7.856,6.67h-.078v9.252h1.325v-9.252h-.519Z"/><path class="c" d="M90.98,642.906l0,.006L72.77,625.486,54.335,643.13v.019l-8.421,7.15.03.087h-.539v9.252H46.73v-9.252h-.191l7.8-6.62v15.872H70.564l2.225-27.474,2.2,27.474H91.206V643.716l7.856,6.67h-.078v9.252h1.325v-9.252h-.519Z"/><path class="c" d="M16.338,659.639V643.716l7.856,6.67h-.078v9.253h1.325v-9.253h-.519l-8.809-7.48,0,.006L-2.011,625.569V633L.122,659.639Z"/><path class="c" d="M286.151,597.3h.191l-7.8,6.619V588.05H262.317l-2.225,27.474-2.2-27.474H241.676v15.923l-7.856-6.67h.078v-9.252h-1.325V597.3h.519l8.809,7.48,0-.006L260.111,622.2l18.435-17.644v-.019l8.421-7.15-.03-.087h.539V588.05h-1.325Z"/><path class="c" d="M211.284,597.3h.191l-7.8,6.619V588.051H187.45l-2.225,27.474-2.2-27.474H166.808v15.922l-7.856-6.67h.078v-9.252h-1.325V597.3h.519l8.809,7.48,0-.006L185.244,622.2l18.435-17.644v-.019l8.421-7.15-.03-.087h.539v-9.252h-1.325Z"/><path class="c" d="M136.416,597.3h.191l-7.8,6.619V588.051H112.583l-2.225,27.474-2.2-27.474H91.941v15.923l-7.856-6.67h.078v-9.252H82.839V597.3h.519l8.809,7.48,0-.005L110.377,622.2l18.435-17.644v-.019l8.421-7.15-.03-.087h.539v-9.252h-1.325Z"/><path class="c" d="M61.549,597.3h.191l-7.8,6.619V588.052H37.715L35.49,615.526l-2.2-27.474H17.074v15.923L9.218,597.3H9.3v-9.252H7.971V597.3H8.49l8.809,7.48,0-.006,18.208,17.426,18.435-17.644v-.019l8.421-7.15-.03-.087h.539v-9.252H61.549Z"/><path class="c" d="M278.936,568.261v.019l-8.42,7.15.03.087h-.539v9.252h1.325v-9.252h-.191l7.8-6.619V584.77h16.229l1.383-17.077H279.529Z"/><path class="c" d="M224.724,584.77H240.94V568.847l7.856,6.67h-.078v9.252h1.325v-9.252h-.519l-8.809-7.48,0,.006-.366-.35H223.356Z"/><path class="c" d="M204.069,568.28l-8.42,7.15.03.087h-.539v9.252h1.325v-9.252h-.191l7.8-6.62v15.872H220.3l1.383-17.077H204.662l-.593.567Z"/><path class="c" d="M129.2,568.281l-8.42,7.15.03.087h-.539v9.253H121.6v-9.253h-.191l7.8-6.619v15.872h16.229l1.383-17.077H129.795l-.593.568Z"/><path class="c" d="M149.856,584.771h16.216V568.848l7.856,6.67h-.078v9.252h1.325v-9.252h-.519l-8.809-7.48,0,.006-.366-.35H148.489Z"/><path class="c" d="M54.334,568.281l-8.42,7.15.03.087H45.4v9.252H46.73v-9.252h-.191l7.8-6.619v15.872H70.563l1.383-17.077H54.927l-.593.568Z"/><path class="c" d="M74.989,584.771H91.205V568.848l7.856,6.67h-.078v9.252h1.325v-9.252h-.519l-8.809-7.48,0,.006-.366-.35H73.622Z"/><path class="c" d="M16.338,584.772V568.849l7.856,6.67h-.078v9.253H25.44v-9.253h-.519l-8.809-7.479,0,.005-.366-.35H-1.246L.122,584.772Z"/><path class="c" d="M585.783,672.17h.191l-7.8,6.62V662.918H561.949l-2.225,27.474-2.2-27.474H541.307v15.923l-7.856-6.67h.078v-9.252H532.2v9.252h.519l8.809,7.48,0-.006,18.208,17.427,18.435-17.644v-.019l8.42-7.15-.03-.087h.539v-9.252h-1.325Z"/><path class="c" d="M510.915,672.171h.191l-7.8,6.619V662.918H487.082l-2.225,27.474-2.2-27.474H466.44v15.923l-7.856-6.67h.078v-9.252h-1.325v9.252h.519l8.809,7.48,0-.006,18.208,17.426,18.435-17.644v-.019l8.42-7.15-.03-.087h.539v-9.252h-1.325Z"/><path class="c" d="M436.048,672.171h.191l-7.8,6.619V662.919H412.214l-2.225,27.474-2.2-27.474H391.572v15.923l-7.856-6.67h.078v-9.252H382.47v9.252h.519l8.809,7.48,0-.005,18.208,17.426,18.435-17.644v-.019l8.421-7.15-.03-.087h.539v-9.252h-1.325Z"/><path class="c" d="M361.18,672.172h.191l-7.8,6.619V662.919H337.347l-2.225,27.474-2.2-27.474H316.705v15.923l-7.856-6.67h.078V662.92H307.6v9.252h.519l8.809,7.48,0-.006,18.208,17.426,18.435-17.644v-.019l8.421-7.15-.03-.087h.539v-9.252H361.18Z"/><path class="c" d="M597,625.484l-18.435,17.644v.019l-8.421,7.15.03.087h-.539v9.252h1.325v-9.252h-.191l7.8-6.619v15.872H594.8l2.225-27.474.067.839v-7.435Z"/><path class="c" d="M540.346,642.905l0,.006-18.208-17.427L503.7,643.129v.019l-8.421,7.15.03.087h-.539v9.252H496.1v-9.252h-.191l7.8-6.619v15.872H519.93l2.225-27.474,2.2,27.474h16.216V643.715l7.856,6.67h-.078v9.252h1.325v-9.252h-.519Z"/><path class="c" d="M465.479,642.906l0,.006-18.208-17.426-18.435,17.644v.019l-8.421,7.15.03.087H419.9v9.253h1.325v-9.253h-.191l7.8-6.619v15.872h16.229l2.225-27.474,2.2,27.474H465.7V643.715l7.856,6.67h-.078v9.252h1.325v-9.252h-.519Z"/><path class="c" d="M390.611,642.906l0,.006L372.4,625.486,353.966,643.13v.019l-8.421,7.15.03.087h-.539v9.252h1.325v-9.252h-.191l7.8-6.62v15.872H370.2l2.225-27.474,2.2,27.474h16.216V643.716l7.856,6.67h-.078v9.252h1.325v-9.252h-.519Z"/><path class="c" d="M315.969,659.639V643.716l7.856,6.67h-.078v9.253h1.325v-9.253h-.519l-8.809-7.48,0,.006L297.62,625.569V633l2.133,26.636Z"/><path class="c" d="M585.782,597.3h.191l-7.8,6.619V588.05H561.948l-2.225,27.474-2.2-27.474H541.307v15.923l-7.856-6.67h.078v-9.252H532.2V597.3h.519l8.809,7.48,0-.006L559.742,622.2l18.435-17.644v-.019l8.421-7.15-.03-.087h.539V588.05h-1.325Z"/><path class="c" d="M510.915,597.3h.191l-7.8,6.619V588.051H487.081l-2.225,27.474-2.2-27.474H466.439v15.922l-7.856-6.67h.078v-9.252h-1.325V597.3h.519l8.809,7.48,0-.006L484.875,622.2,503.31,604.56v-.019l8.421-7.15-.03-.087h.539v-9.252h-1.325Z"/><path class="c" d="M436.047,597.3h.191l-7.8,6.619V588.051H412.214l-2.225,27.474-2.2-27.474H391.572v15.923l-7.856-6.67h.078v-9.252H382.47V597.3h.519l8.809,7.48,0-.005L410.008,622.2l18.435-17.644v-.019l8.421-7.15-.03-.087h.539v-9.252h-1.325Z"/><path class="c" d="M361.18,597.3h.191l-7.8,6.619V588.052H337.346l-2.225,27.474-2.2-27.474H316.7v15.923l-7.856-6.67h.078v-9.252H307.6V597.3h.519l8.809,7.48,0-.006,18.208,17.426,18.435-17.644v-.019l8.421-7.15-.03-.087h.539v-9.252H361.18Z"/><path class="c" d="M578.567,568.261v.019l-8.421,7.15.03.087h-.539v9.252h1.325v-9.252h-.191l7.8-6.619V584.77H594.8l1.383-17.077H579.16Z"/><path class="c" d="M524.355,584.77h16.216V568.847l7.856,6.67h-.078v9.252h1.325v-9.252h-.519l-8.809-7.48,0,.006-.366-.35H522.987Z"/><path class="c" d="M503.7,568.28l-8.421,7.15.03.087h-.539v9.252H496.1v-9.252H495.9l7.8-6.62v15.872h16.229l1.383-17.077H504.293l-.593.567Z"/><path class="c" d="M428.833,568.281l-8.42,7.15.03.087H419.9v9.253h1.325v-9.253h-.191l7.8-6.619v15.872h16.229l1.383-17.077H429.426l-.593.568Z"/><path class="c" d="M449.487,584.771H465.7V568.848l7.856,6.67h-.078v9.252h1.325v-9.252h-.519l-8.809-7.48,0,.006-.366-.35H448.12Z"/><path class="c" d="M353.965,568.281l-8.42,7.15.03.087h-.539v9.252h1.325v-9.252h-.191l7.8-6.619v15.872h16.229l1.383-17.077H354.558l-.593.568Z"/><path class="c" d="M374.62,584.771h16.216V568.848l7.856,6.67h-.078v9.252h1.325v-9.252h-.519l-8.809-7.48,0,.006-.366-.35H373.253Z"/><path class="c" d="M315.969,584.772V568.849l7.856,6.67h-.078v9.253h1.325v-9.253h-.519l-8.809-7.479,0,.005-.366-.35H298.385l1.367,17.077Z"/><path class="c" d="M297.374,550.57l-17.842,17.077h17.019l.842-10.4.067.839v-7.435Z"/><path class="c" d="M204.664,567.647h17.019l.842-10.4.833,10.4h16.991L222.506,550.57Z"/><path class="c" d="M129.8,567.648h17.019l.842-10.4.833,10.4h16.991l-17.843-17.077Z"/><path class="c" d="M54.929,567.648H71.948l.842-10.4.833,10.4H90.614L72.771,550.571Z"/><path class="c" d="M-2.009,558.089l.765,9.559H15.747L-2.01,550.655Z"/><path class="c" d="M286.152,522.389h.191l-7.8,6.62V513.136H262.319l-2.225,27.474-2.2-27.474H241.677v15.923l-7.856-6.67h.078v-9.252h-1.325v9.252h.518l8.809,7.48,0-.006,18.208,17.427,18.435-17.644v-.019l8.421-7.15-.03-.087h.539v-9.252h-1.325Z"/><path class="c" d="M211.285,522.389h.191l-7.8,6.619V513.137H187.451l-2.225,27.474-2.2-27.474H166.81V529.06l-7.856-6.67h.078v-9.252h-1.325v9.252h.518l8.809,7.48,0-.006,18.208,17.426,18.435-17.644v-.019l8.421-7.15-.03-.087h.539v-9.252h-1.325Z"/><path class="c" d="M136.418,522.39h.191l-7.8,6.619V513.137H112.584l-2.225,27.474-2.2-27.474H91.943V529.06l-7.856-6.67h.078v-9.252H82.84v9.252h.518l8.809,7.48,0-.005,18.208,17.426,18.435-17.644v-.019l8.421-7.15-.03-.087h.539v-9.252h-1.325Z"/><path class="c" d="M61.55,522.39h.191l-7.8,6.619V513.138H37.717l-2.225,27.474-2.2-27.474H17.075v15.923l-7.856-6.67H9.3v-9.252H7.973v9.252h.519l8.809,7.48,0-.006L35.51,547.291l18.435-17.644v-.019l8.421-7.15-.03-.087h.539v-9.252H61.55Z"/><path class="c" d="M297.373,475.7l-18.435,17.644v.019l-8.421,7.15.03.087h-.539v9.252h1.325V500.6h-.191l7.8-6.619v15.872h16.229l2.225-27.474.067.839v-7.435Z"/><path class="c" d="M240.716,493.124l0,.006L222.506,475.7l-18.435,17.644v.019l-8.421,7.15.03.087h-.539v9.252h1.325V500.6h-.191l7.8-6.619v15.872H220.3l2.225-27.474,2.2,27.474h16.216V493.933l7.856,6.67h-.078v9.252h1.325V500.6h-.518Z"/><path class="c" d="M165.849,493.124l0,.006L147.638,475.7,129.2,493.348v.019l-8.421,7.15.03.087h-.539v9.253H121.6V500.6h-.191l7.8-6.619v15.872h16.229l2.225-27.474,2.2,27.474h16.216V493.934l7.856,6.67h-.078v9.252h1.325V500.6h-.518Z"/><path class="c" d="M90.981,493.125l0,.006L72.771,475.7,54.336,493.348v.019l-8.421,7.15.03.087h-.539v9.252h1.325v-9.252H46.54l7.8-6.619v15.872H70.565l2.225-27.474,2.2,27.474H91.206V493.934l7.856,6.67h-.078v9.252h1.325V500.6H99.79Z"/><path class="c" d="M16.339,509.858V493.935l7.856,6.67h-.078v9.253h1.325v-9.253h-.519l-8.809-7.48,0,.006L-2.01,475.787v7.435L.123,509.858Z"/><path class="c" d="M286.152,447.521h.191l-7.8,6.619V438.269H262.318l-2.225,27.474-2.2-27.474H241.677v15.923l-7.855-6.67h.078v-9.252h-1.325v9.252h.519L241.9,455l0-.006,18.208,17.427,18.435-17.644v-.019l8.421-7.15-.03-.087h.539v-9.252h-1.325Z"/><path class="c" d="M211.285,447.522h.191l-7.8,6.619V438.27H187.451l-2.225,27.474-2.2-27.474H166.809v15.923l-7.855-6.67h.078V438.27h-1.325v9.252h.519l8.809,7.48,0-.006,18.208,17.426,18.435-17.644v-.019l8.421-7.15-.03-.087h.539V438.27h-1.325Z"/><path class="c" d="M136.417,447.522h.191l-7.8,6.619V438.27H112.583l-2.225,27.474-2.2-27.474H91.942v15.923l-7.855-6.67h.078V438.27H82.84v9.252h.519L92.167,455l0-.005,18.208,17.426,18.435-17.644v-.019l8.421-7.15-.03-.087h.539V438.27h-1.325Z"/><path class="c" d="M61.55,447.523h.191l-7.8,6.619V438.27H37.716l-2.225,27.474-2.2-27.474H17.075v15.923l-7.856-6.67H9.3v-9.252H7.972v9.252h.519L17.3,455l0-.006L35.51,472.424,53.945,454.78v-.019l8.421-7.15-.03-.087h.539V438.27H61.55Z"/><path class="c" d="M297.373,400.835l-18.435,17.644v.019l-8.421,7.15.03.087h-.539v9.252h1.325v-9.252h-.191l7.8-6.619v15.872h16.229l2.226-27.474.067.839v-7.435Z"/><path class="c" d="M240.715,418.257l0,.006-18.208-17.427L204.07,418.48v.019l-8.42,7.15.03.087h-.539v9.252h1.325v-9.252h-.191l7.8-6.619v15.872H220.3l2.226-27.474,2.2,27.474h16.216V419.066l7.856,6.67h-.078v9.252h1.325v-9.252h-.519Z"/><path class="c" d="M165.848,418.257l0,.006-18.208-17.426L129.2,418.48v.019l-8.42,7.15.03.087h-.539v9.253H121.6v-9.253h-.191l7.8-6.619v15.872h16.229l2.226-27.474,2.2,27.474h16.216V419.067l7.856,6.67h-.078v9.252h1.325v-9.252h-.519Z"/><path class="c" d="M90.981,418.257l0,.006L72.77,400.837,54.335,418.481v.019l-8.42,7.15.03.087h-.539v9.252h1.325v-9.252H46.54l7.8-6.619V434.99H70.564l2.226-27.474,2.2,27.474H91.206V419.067l7.856,6.67h-.078v9.252h1.325v-9.252H99.79Z"/><path class="c" d="M16.339,434.99V419.068l7.856,6.67h-.078v9.253h1.325v-9.253h-.519l-8.809-7.48,0,.006L-2.01,400.92v7.435L.123,434.99Z"/><path class="c" d="M286.152,372.654h.191l-7.8,6.619V363.4H262.318l-2.225,27.474-2.2-27.474H241.676v15.923l-7.856-6.67h.078V363.4h-1.325v9.252h.519l8.809,7.48,0-.006,18.208,17.427,18.435-17.644v-.019l8.42-7.15-.03-.087h.539V363.4h-1.325Z"/><path class="c" d="M211.284,372.655h.191l-7.8,6.619V363.4H187.451l-2.225,27.474-2.2-27.474H166.809v15.922l-7.856-6.67h.078V363.4h-1.325v9.252h.519l8.809,7.48,0-.006,18.208,17.426,18.435-17.644v-.019l8.42-7.15-.03-.087h.539V363.4h-1.325Z"/><path class="c" d="M136.417,372.655h.191l-7.8,6.619V363.4H112.583l-2.225,27.474-2.2-27.474H91.941v15.923l-7.856-6.67h.078V363.4H82.839v9.252h.519l8.809,7.48,0-.005,18.208,17.426,18.435-17.644v-.019l8.42-7.15-.03-.087h.539V363.4h-1.325Z"/><path class="c" d="M61.549,372.655h.191l-7.8,6.619V363.4H37.716L35.49,390.877,33.29,363.4H17.074v15.923l-7.856-6.67H9.3V363.4H7.972v9.252H8.49l8.809,7.48,0-.006L35.51,397.556l18.435-17.644v-.019l8.42-7.15-.03-.087h.539V363.4H61.549Z"/><path class="c" d="M297.372,325.968l-18.435,17.644v.019l-8.421,7.15.03.087h-.539v9.252h1.325v-9.252h-.191l7.8-6.619v15.872h16.229l2.225-27.474.067.839v-7.435Z"/><path class="c" d="M240.715,343.389l0,.006L222.5,325.968,204.07,343.612v.019l-8.421,7.15.03.087h-.539v9.252h1.325v-9.252h-.191l7.8-6.619v15.872H220.3l2.225-27.474,2.2,27.474H240.94V344.2l7.856,6.67h-.078v9.252h1.325v-9.252h-.519Z"/><path class="c" d="M165.848,343.389l0,.006-18.208-17.426L129.2,343.613v.019l-8.421,7.15.03.087h-.539v9.253H121.6V350.87h-.191l7.8-6.619v15.872h16.229l2.225-27.474,2.2,27.474h16.216V344.2l7.856,6.67h-.078v9.252h1.325v-9.252h-.519Z"/><path class="c" d="M90.98,343.39l0,.006L72.77,325.969,54.335,343.613v.019l-8.421,7.15.03.087h-.539v9.252H46.73V350.87h-.191l7.8-6.619v15.872H70.564l2.225-27.474,2.2,27.474H91.206V344.2l7.856,6.67h-.078v9.252h1.325V350.87h-.519Z"/><path class="c" d="M16.338,360.123V344.2l7.856,6.67h-.078v9.253h1.325V350.87h-.519l-8.809-7.48,0,.006L-2.011,326.052v7.435L.122,360.123Z"/><path class="c" d="M286.151,297.787h.191l-7.8,6.619V288.534H262.317l-2.225,27.474-2.2-27.474H241.676v15.923l-7.856-6.67h.078v-9.252h-1.325v9.252h.519l8.809,7.48,0-.006,18.208,17.427,18.435-17.644v-.019l8.421-7.15-.03-.087h.539v-9.252h-1.325Z"/><path class="c" d="M211.284,297.787h.191l-7.8,6.619V288.535H187.45l-2.225,27.474-2.2-27.474H166.808v15.922l-7.856-6.67h.078v-9.252h-1.325v9.252h.519l8.809,7.48,0-.006,18.208,17.426,18.435-17.644v-.019l8.421-7.15-.03-.087h.539v-9.252h-1.325Z"/><path class="c" d="M136.416,297.787h.191l-7.8,6.619V288.535H112.583l-2.225,27.474-2.2-27.474H91.941v15.923l-7.856-6.67h.078v-9.252H82.839v9.252h.519l8.809,7.48,0-.005,18.208,17.426,18.435-17.644v-.019l8.421-7.15-.03-.087h.539v-9.252h-1.325Z"/><path class="c" d="M61.549,297.788h.191l-7.8,6.619V288.536H37.715L35.49,316.01l-2.2-27.474H17.074v15.923l-7.856-6.67H9.3v-9.252H7.971v9.252H8.49l8.809,7.48,0-.006,18.208,17.426,18.435-17.644v-.019l8.421-7.15-.03-.087h.539v-9.252H61.549Z"/><path class="c" d="M278.936,268.745v.019l-8.42,7.15.03.087h-.539v9.252h1.325V276h-.191l7.8-6.619v15.872h16.229l1.383-17.077H279.529Z"/><path class="c" d="M224.724,285.254H240.94V269.331L248.8,276h-.078v9.252h1.325V276h-.519l-8.809-7.48,0,.006-.366-.35H223.356Z"/><path class="c" d="M204.069,268.764l-8.42,7.15.03.087h-.539v9.252h1.325V276h-.191l7.8-6.619v15.872H220.3l1.383-17.077H204.662l-.593.567Z"/><path class="c" d="M129.2,268.765l-8.42,7.15.03.087h-.539v9.253H121.6V276h-.191l7.8-6.619v15.872h16.229l1.383-17.077H129.795l-.593.568Z"/><path class="c" d="M149.856,285.255h16.216V269.332l7.856,6.67h-.078v9.252h1.325V276h-.519l-8.809-7.48,0,.006-.366-.35H148.489Z"/><path class="c" d="M54.334,268.765l-8.42,7.15.03.087H45.4v9.252H46.73V276h-.191l7.8-6.619v15.872H70.563l1.383-17.077H54.927l-.593.568Z"/><path class="c" d="M74.989,285.255H91.205V269.332L99.061,276h-.078v9.252h1.325V276h-.519l-8.809-7.48,0,.006-.366-.35H73.622Z"/><path class="c" d="M16.338,285.256V269.333L24.193,276h-.078v9.253H25.44V276h-.519l-8.809-7.48,0,.005-.366-.35H-1.246L.122,285.256Z"/><path class="c" d="M597,550.57l-17.842,17.077h17.019l.842-10.4.067.839v-7.435Z"/><path class="c" d="M504.295,567.647h17.019l.842-10.4.833,10.4H539.98L522.137,550.57Z"/><path class="c" d="M429.427,567.648h17.019l.842-10.4.833,10.4h16.991L447.27,550.571Z"/><path class="c" d="M354.56,567.648h17.019l.842-10.4.833,10.4h16.991L372.4,550.571Z"/><path class="c" d="M297.622,558.089l.765,9.559h16.991l-17.756-16.994Z"/><path class="c" d="M585.783,522.389h.191l-7.8,6.62V513.136H561.95l-2.225,27.474-2.2-27.474H541.308v15.923l-7.856-6.67h.078v-9.252h-1.325v9.252h.518l8.809,7.48,0-.006,18.208,17.427,18.435-17.644v-.019l8.421-7.15-.03-.087h.539v-9.252h-1.325Z"/><path class="c" d="M510.916,522.389h.191l-7.8,6.619V513.137H487.082l-2.225,27.474-2.2-27.474H466.441V529.06l-7.856-6.67h.078v-9.252h-1.325v9.252h.518l8.809,7.48,0-.006,18.208,17.426,18.435-17.644v-.019l8.421-7.15-.03-.087h.539v-9.252h-1.325Z"/><path class="c" d="M436.049,522.39h.191l-7.8,6.619V513.137H412.215l-2.225,27.474-2.2-27.474H391.574V529.06l-7.856-6.67h.078v-9.252h-1.325v9.252h.518l8.809,7.48,0-.005,18.208,17.426,18.435-17.644v-.019l8.421-7.15-.03-.087h.539v-9.252h-1.325Z"/><path class="c" d="M361.181,522.39h.191l-7.8,6.619V513.138H337.348l-2.225,27.474-2.2-27.474H316.706v15.923l-7.856-6.67h.078v-9.252H307.6v9.252h.519l8.809,7.48,0-.006,18.208,17.427,18.435-17.644v-.019l8.421-7.15-.03-.087h.539v-9.252h-1.325Z"/><path class="c" d="M597,475.7l-18.435,17.644v.019l-8.421,7.15.03.087h-.539v9.252h1.325V500.6h-.191l7.8-6.619v15.872H594.8l2.225-27.474.067.839v-7.435Z"/><path class="c" d="M540.347,493.124l0,.006L522.137,475.7,503.7,493.347v.019l-8.421,7.15.03.087h-.539v9.252H496.1V500.6h-.191l7.8-6.619v15.872h16.229l2.225-27.474,2.2,27.474h16.216V493.933l7.856,6.67h-.078v9.252h1.325V500.6h-.518Z"/><path class="c" d="M465.48,493.124l0,.006L447.27,475.7l-18.435,17.644v.019l-8.421,7.15.03.087H419.9v9.253h1.325V500.6h-.191l7.8-6.619v15.872h16.229l2.225-27.474,2.2,27.474H465.7V493.934l7.856,6.67h-.078v9.252h1.325V500.6h-.518Z"/><path class="c" d="M390.612,493.125l0,.006L372.4,475.7l-18.435,17.644v.019l-8.421,7.15.03.087h-.539v9.252h1.325v-9.252h-.191l7.8-6.619v15.872H370.2l2.225-27.474,2.2,27.474h16.216V493.934l7.856,6.67h-.078v9.252h1.325V500.6h-.518Z"/><path class="c" d="M315.97,509.858V493.935l7.856,6.67h-.078v9.253h1.325v-9.253h-.519l-8.809-7.48,0,.006-18.122-17.344v7.435l2.133,26.636Z"/><path class="c" d="M286.152,897.246h.191l-7.8,6.62V887.993H262.318l-2.225,27.474-2.2-27.474H241.676v15.923l-7.856-6.67h.078v-9.252h-1.325v9.252h.519l8.809,7.48,0-.006,18.208,17.427L278.547,904.5v-.019l8.42-7.15-.03-.087h.539v-9.252h-1.325Z"/><path class="c" d="M211.284,897.246h.191l-7.8,6.619V887.994H187.451l-2.225,27.474-2.2-27.474H166.809v15.922l-7.856-6.67h.078v-9.252h-1.325v9.252h.519l8.809,7.48,0-.006,18.208,17.426L203.68,904.5v-.019l8.42-7.15-.03-.087h.539v-9.252h-1.325Z"/><path class="c" d="M136.417,897.247h.191l-7.8,6.62V887.994H112.583l-2.225,27.474-2.2-27.474H91.941v15.923l-7.856-6.67h.078v-9.252H82.839v9.252h.519l8.809,7.48,0-.005,18.208,17.426L128.812,904.5v-.019l8.42-7.15-.03-.087h.539v-9.252h-1.325Z"/><path class="c" d="M61.549,897.247h.191l-7.8,6.619V887.995H37.716L35.49,915.469l-2.2-27.474H17.074v15.923l-7.856-6.67H9.3V888H7.972v9.252H8.49l8.809,7.48,0-.006L35.51,922.148,53.945,904.5v-.019l8.42-7.15-.03-.087h.539v-9.252H61.549Z"/><path class="c" d="M297.372,850.56,278.937,868.2v.019l-8.421,7.15.03.087h-.539v9.252h1.325v-9.252h-.191l7.8-6.619v15.872h16.229l2.225-27.474.067.839v-7.435Z"/><path class="c" d="M240.715,867.981l0,.006L222.5,850.56,204.07,868.2v.019l-8.421,7.15.03.087h-.539v9.252h1.325v-9.252h-.191l7.8-6.619v15.872H220.3l2.225-27.474,2.2,27.474H240.94V868.79l7.856,6.67h-.078v9.252h1.325v-9.252h-.519Z"/><path class="c" d="M165.848,867.981l0,.006-18.208-17.426L129.2,868.2v.019l-8.421,7.15.03.087h-.539v9.253H121.6v-9.253h-.191l7.8-6.619v15.872h16.229l2.225-27.474,2.2,27.474h16.216V868.791l7.856,6.67h-.078v9.252h1.325v-9.252h-.519Z"/><path class="c" d="M90.98,867.982l0,.006L72.77,850.561,54.335,868.205v.019l-8.421,7.15.03.087h-.539v9.252H46.73v-9.252h-.191l7.8-6.62v15.872H70.564l2.225-27.474,2.2,27.474H91.206V868.791l7.856,6.67h-.078v9.252h1.325v-9.252h-.519Z"/><path class="c" d="M16.338,884.715V868.792l7.856,6.67h-.078v9.253h1.325v-9.253h-.519l-8.809-7.48,0,.006L-2.011,850.644v7.435L.122,884.715Z"/><path class="c" d="M286.151,822.378h.191l-7.8,6.619V813.126H262.317L260.092,840.6l-2.2-27.474H241.676v15.923l-7.856-6.67h.078v-9.252h-1.325v9.252h.519l8.809,7.48,0-.006,18.208,17.427,18.435-17.644v-.019l8.421-7.15-.03-.087h.539v-9.252h-1.325Z"/><path class="c" d="M211.284,822.379h.191l-7.8,6.619V813.127H187.45L185.225,840.6l-2.2-27.474H166.808v15.922l-7.856-6.67h.078v-9.252h-1.325v9.252h.519l8.809,7.48,0-.006,18.208,17.426,18.435-17.644v-.019l8.421-7.15-.03-.087h.539v-9.252h-1.325Z"/><path class="c" d="M136.416,822.379h.191l-7.8,6.619V813.127H112.583L110.357,840.6l-2.2-27.474H91.941V829.05l-7.856-6.67h.078v-9.252H82.839v9.252h.519l8.809,7.48,0-.005,18.208,17.426,18.435-17.644v-.019l8.421-7.15-.03-.087h.539v-9.252h-1.325Z"/><path class="c" d="M61.549,822.38h.191L53.944,829V813.127H37.715L35.49,840.6l-2.2-27.474H17.074v15.923l-7.856-6.67H9.3v-9.252H7.971v9.252H8.49l8.809,7.48,0-.006,18.208,17.426,18.435-17.644v-.019l8.421-7.15-.03-.087h.539v-9.252H61.549Z"/><path class="c" d="M278.936,793.336v.019l-8.42,7.15.03.087h-.539v9.252h1.325v-9.252h-.191l7.8-6.619v15.872h16.229l1.383-17.077H279.529Z"/><path class="c" d="M224.724,809.846H240.94V793.923l7.856,6.67h-.078v9.252h1.325v-9.252h-.519l-8.809-7.48,0,.006-.366-.35H223.356Z"/><path class="c" d="M204.069,793.356l-8.42,7.15.03.087h-.539v9.252h1.325v-9.252h-.191l7.8-6.62v15.872H220.3l1.383-17.077H204.662l-.593.567Z"/><path class="c" d="M129.2,793.356l-8.42,7.15.03.087h-.539v9.253H121.6v-9.253h-.191l7.8-6.619v15.872h16.229l1.383-17.077H129.795l-.593.568Z"/><path class="c" d="M149.856,809.846h16.216V793.924l7.856,6.67h-.078v9.252h1.325v-9.252h-.519l-8.809-7.48,0,.006-.366-.35H148.489Z"/><path class="c" d="M54.334,793.357l-8.42,7.15.03.087H45.4v9.252H46.73v-9.252h-.191l7.8-6.62v15.872H70.563l1.383-17.077H54.927l-.593.568Z"/><path class="c" d="M74.989,809.847H91.205V793.924l7.856,6.67h-.078v9.252h1.325v-9.252h-.519l-8.809-7.48,0,.006-.366-.35H73.622Z"/><path class="c" d="M16.338,809.847V793.925l7.856,6.67h-.078v9.253H25.44v-9.253h-.519l-8.809-7.48,0,.005-.366-.35H-1.246L.122,809.847Z"/><path class="c" d="M585.783,897.246h.191l-7.8,6.62V887.993H561.949l-2.225,27.474-2.2-27.474H541.307v15.923l-7.856-6.67h.078v-9.252H532.2v9.252h.519l8.809,7.48,0-.006,18.208,17.427L578.178,904.5v-.019l8.42-7.15-.03-.087h.539v-9.252h-1.325Z"/><path class="c" d="M510.915,897.246h.191l-7.8,6.619V887.994H487.082l-2.225,27.474-2.2-27.474H466.44v15.922l-7.856-6.67h.078v-9.252h-1.325v9.252h.519l8.809,7.48,0-.006,18.208,17.426L503.311,904.5v-.019l8.42-7.15-.03-.087h.539v-9.252h-1.325Z"/><path class="c" d="M436.048,897.247h.191l-7.8,6.62V887.994H412.214l-2.225,27.474-2.2-27.474H391.572v15.923l-7.856-6.67h.078v-9.252H382.47v9.252h.519l8.809,7.48,0-.005,18.208,17.426L428.443,904.5v-.019l8.421-7.15-.03-.087h.539v-9.252h-1.325Z"/><path class="c" d="M361.18,897.247h.191l-7.8,6.619V887.995H337.347l-2.225,27.474-2.2-27.474H316.705v15.923l-7.856-6.67h.078V888H307.6v9.252h.519l8.809,7.48,0-.006,18.208,17.426L353.576,904.5v-.019l8.421-7.15-.03-.087h.539v-9.252H361.18Z"/><path class="c" d="M597,850.56,578.568,868.2v.019l-8.421,7.15.03.087h-.539v9.252h1.325v-9.252h-.191l7.8-6.619v15.872H594.8l2.225-27.474.067.839v-7.435Z"/><path class="c" d="M540.346,867.981l0,.006L522.136,850.56,503.7,868.2v.019l-8.421,7.15.03.087h-.539v9.252H496.1v-9.252h-.191l7.8-6.619v15.872H519.93l2.225-27.474,2.2,27.474h16.216V868.79l7.856,6.67h-.078v9.252h1.325v-9.252h-.519Z"/><path class="c" d="M465.479,867.981l0,.006-18.208-17.426L428.833,868.2v.019l-8.421,7.15.03.087H419.9v9.253h1.325v-9.253h-.191l7.8-6.619v15.872h16.229l2.225-27.474,2.2,27.474H465.7V868.791l7.856,6.67h-.078v9.252h1.325v-9.252h-.519Z"/><path class="c" d="M390.611,867.982l0,.006L372.4,850.561l-18.435,17.644v.019l-8.421,7.15.03.087h-.539v9.252h1.325v-9.252h-.191l7.8-6.62v15.872H370.2l2.225-27.474,2.2,27.474h16.216V868.791l7.856,6.67h-.078v9.252h1.325v-9.252h-.519Z"/><path class="c" d="M315.969,884.715V868.792l7.856,6.67h-.078v9.253h1.325v-9.253h-.519l-8.809-7.48,0,.006L297.62,850.644v7.435l2.133,26.636Z"/><path class="c" d="M585.782,822.378h.191l-7.8,6.619V813.126H561.948L559.723,840.6l-2.2-27.474H541.307v15.923l-7.856-6.67h.078v-9.252H532.2v9.252h.519l8.809,7.48,0-.006,18.208,17.427,18.435-17.644v-.019l8.421-7.15-.03-.087h.539v-9.252h-1.325Z"/><path class="c" d="M510.915,822.379h.191L503.31,829V813.127H487.081L484.856,840.6l-2.2-27.474H466.439v15.922l-7.856-6.67h.078v-9.252h-1.325v9.252h.519l8.809,7.48,0-.006,18.208,17.426,18.435-17.644v-.019l8.421-7.15-.03-.087h.539v-9.252h-1.325Z"/><path class="c" d="M436.047,822.379h.191l-7.8,6.619V813.127H412.214L409.988,840.6l-2.2-27.474H391.572V829.05l-7.856-6.67h.078v-9.252H382.47v9.252h.519l8.809,7.48,0-.005,18.208,17.426,18.435-17.644v-.019l8.421-7.15-.03-.087h.539v-9.252h-1.325Z"/><path class="c" d="M361.18,822.38h.191l-7.8,6.619V813.127H337.346L335.121,840.6l-2.2-27.474H316.7v15.923l-7.856-6.67h.078v-9.252H307.6v9.252h.519l8.809,7.48,0-.006,18.208,17.426,18.435-17.644v-.019l8.421-7.15-.03-.087h.539v-9.252H361.18Z"/><path class="c" d="M578.567,793.336v.019l-8.421,7.15.03.087h-.539v9.252h1.325v-9.252h-.191l7.8-6.619v15.872H594.8l1.383-17.077H579.16Z"/><path class="c" d="M524.355,809.846h16.216V793.923l7.856,6.67h-.078v9.252h1.325v-9.252h-.519l-8.809-7.48,0,.006-.366-.35H522.987Z"/><path class="c" d="M503.7,793.356l-8.421,7.15.03.087h-.539v9.252H496.1v-9.252H495.9l7.8-6.62v15.872h16.229l1.383-17.077H504.293l-.593.567Z"/><path class="c" d="M428.833,793.356l-8.42,7.15.03.087H419.9v9.253h1.325v-9.253h-.191l7.8-6.619v15.872h16.229l1.383-17.077H429.426l-.593.568Z"/><path class="c" d="M449.487,809.846H465.7V793.924l7.856,6.67h-.078v9.252h1.325v-9.252h-.519l-8.809-7.48,0,.006-.366-.35H448.12Z"/><path class="c" d="M353.965,793.357l-8.42,7.15.03.087h-.539v9.252h1.325v-9.252h-.191l7.8-6.62v15.872h16.229l1.383-17.077H354.558l-.593.568Z"/><path class="c" d="M374.62,809.847h16.216V793.924l7.856,6.67h-.078v9.252h1.325v-9.252h-.519l-8.809-7.48,0,.006-.366-.35H373.253Z"/><path class="c" d="M315.969,809.847V793.925l7.856,6.67h-.078v9.253h1.325v-9.253h-.519l-8.809-7.48,0,.005-.366-.35H298.385l1.367,17.077Z"/><path class="c" d="M297.374,775.646l-17.842,17.077h17.019l.842-10.4.067.839v-7.435Z"/><path class="c" d="M204.664,792.723h17.019l.842-10.4.833,10.4h16.991l-17.843-17.077Z"/><path class="c" d="M129.8,792.723h17.019l.842-10.4.833,10.4h16.991l-17.843-17.077Z"/><path class="c" d="M54.929,792.724H71.948l.842-10.4.833,10.4H90.614L72.771,775.647Z"/><path class="c" d="M-2.009,783.165l.765,9.559H15.747L-2.01,775.73Z"/><path class="c" d="M286.152,747.464h.191l-7.8,6.62V738.212H262.319l-2.225,27.474-2.2-27.474H241.677v15.923l-7.856-6.67h.078v-9.252h-1.325v9.252h.518l8.809,7.48,0-.006,18.208,17.427,18.435-17.644V754.7l8.421-7.15-.03-.087h.539v-9.252h-1.325Z"/><path class="c" d="M211.285,747.465h.191l-7.8,6.619V738.213H187.451l-2.225,27.474-2.2-27.474H166.81v15.922l-7.856-6.67h.078v-9.252h-1.325v9.252h.518l8.809,7.48,0-.006,18.208,17.426,18.435-17.644V754.7l8.421-7.15-.03-.087h.539v-9.252h-1.325Z"/><path class="c" d="M136.418,747.465h.191l-7.8,6.62V738.213H112.584l-2.225,27.474-2.2-27.474H91.943v15.923l-7.856-6.67h.078v-9.252H82.84v9.252h.518l8.809,7.48,0-.005,18.208,17.426,18.435-17.644V754.7l8.421-7.15-.03-.087h.539v-9.252h-1.325Z"/><path class="c" d="M61.55,747.466h.191l-7.8,6.619V738.213H37.717l-2.225,27.474-2.2-27.474H17.075v15.923l-7.856-6.67H9.3v-9.252H7.973v9.252h.519l8.809,7.48,0-.006L35.51,772.367l18.435-17.644V754.7l8.421-7.15-.03-.087h.539v-9.252H61.55Z"/><path class="c" d="M297.373,700.778l-18.435,17.644v.019l-8.421,7.15.03.087h-.539v9.252h1.325v-9.252h-.191l7.8-6.619v15.872h16.229l2.225-27.474.067.839v-7.435Z"/><path class="c" d="M240.716,718.2l0,.006-18.208-17.427-18.435,17.644v.019l-8.421,7.15.03.087h-.539v9.252h1.325V725.68h-.191l7.8-6.619v15.872H220.3l2.225-27.474,2.2,27.474h16.216V719.009l7.856,6.67h-.078v9.252h1.325v-9.252h-.518Z"/><path class="c" d="M165.849,718.2l0,.006-18.208-17.426L129.2,718.423v.019l-8.421,7.15.03.087h-.539v9.253H121.6V725.68h-.191l7.8-6.619v15.872h16.229l2.225-27.474,2.2,27.474h16.216V719.01l7.856,6.67h-.078v9.252h1.325V725.68h-.518Z"/><path class="c" d="M90.981,718.2l0,.006L72.771,700.78,54.336,718.424v.019l-8.421,7.15.03.087h-.539v9.252h1.325v-9.252H46.54l7.8-6.619v15.872H70.565l2.225-27.474,2.2,27.474H91.206V719.01l7.856,6.67h-.078v9.252h1.325V725.68H99.79Z"/><path class="c" d="M16.339,734.933V719.01l7.856,6.67h-.078v9.253h1.325v-9.253h-.519l-8.809-7.48,0,.006L-2.01,700.863V708.3L.123,734.933Z"/><path class="c" d="M597,775.646l-17.842,17.077h17.019l.842-10.4.067.839v-7.435Z"/><path class="c" d="M504.295,792.723h17.019l.842-10.4.833,10.4H539.98l-17.843-17.077Z"/><path class="c" d="M429.427,792.723h17.019l.842-10.4.833,10.4h16.991L447.27,775.646Z"/><path class="c" d="M354.56,792.724h17.019l.842-10.4.833,10.4h16.991L372.4,775.647Z"/><path class="c" d="M297.622,783.165l.765,9.559h16.991L297.622,775.73Z"/><path class="c" d="M585.783,747.464h.191l-7.8,6.62V738.212H561.95l-2.225,27.474-2.2-27.474H541.308v15.923l-7.856-6.67h.078v-9.252h-1.325v9.252h.518l8.809,7.48,0-.006,18.208,17.427,18.435-17.644V754.7l8.421-7.15-.03-.087h.539v-9.252h-1.325Z"/><path class="c" d="M510.916,747.465h.191l-7.8,6.619V738.213H487.082l-2.225,27.474-2.2-27.474H466.441v15.922l-7.856-6.67h.078v-9.252h-1.325v9.252h.518l8.809,7.48,0-.006,18.208,17.426,18.435-17.644V754.7l8.421-7.15-.03-.087h.539v-9.252h-1.325Z"/><path class="c" d="M436.049,747.465h.191l-7.8,6.62V738.213H412.215l-2.225,27.474-2.2-27.474H391.574v15.923l-7.856-6.67h.078v-9.252h-1.325v9.252h.518l8.809,7.48,0-.005,18.208,17.426,18.435-17.644V754.7l8.421-7.15-.03-.087h.539v-9.252h-1.325Z"/><path class="c" d="M361.181,747.466h.191l-7.8,6.619V738.213H337.348l-2.225,27.474-2.2-27.474H316.706v15.923l-7.856-6.67h.078v-9.252H307.6v9.252h.519l8.809,7.48,0-.006,18.208,17.427,18.435-17.644V754.7l8.421-7.15-.03-.087h.539v-9.252h-1.325Z"/><path class="c" d="M597,700.778l-18.435,17.644v.019l-8.421,7.15.03.087h-.539v9.252h1.325v-9.252h-.191l7.8-6.619v15.872H594.8l2.225-27.474.067.839v-7.435Z"/><path class="c" d="M540.347,718.2l0,.006-18.208-17.427L503.7,718.423v.019l-8.421,7.15.03.087h-.539v9.252H496.1V725.68h-.191l7.8-6.619v15.872h16.229l2.225-27.474,2.2,27.474h16.216V719.009l7.856,6.67h-.078v9.252h1.325v-9.252h-.518Z"/><path class="c" d="M465.48,718.2l0,.006L447.27,700.779l-18.435,17.644v.019l-8.421,7.15.03.087H419.9v9.253h1.325V725.68h-.191l7.8-6.619v15.872h16.229l2.225-27.474,2.2,27.474H465.7V719.01l7.856,6.67h-.078v9.252h1.325V725.68h-.518Z"/><path class="c" d="M390.612,718.2l0,.006L372.4,700.78l-18.435,17.644v.019l-8.421,7.15.03.087h-.539v9.252h1.325v-9.252h-.191l7.8-6.619v15.872H370.2l2.225-27.474,2.2,27.474h16.216V719.01l7.856,6.67h-.078v9.252h1.325V725.68h-.518Z"/><path class="c" d="M315.97,734.933V719.01l7.856,6.67h-.078v9.253h1.325v-9.253h-.519l-8.809-7.48,0,.006-18.122-17.344V708.3l2.133,26.636Z"/><path class="c" d="M585.783,447.521h.191l-7.8,6.619V438.269H561.949l-2.225,27.474-2.2-27.474H541.308v15.923l-7.855-6.67h.078v-9.252h-1.325v9.252h.519l8.809,7.48,0-.006,18.208,17.427,18.435-17.644v-.019l8.421-7.15-.03-.087h.539v-9.252h-1.325Z"/><path class="c" d="M510.916,447.522h.191l-7.8,6.619V438.27H487.082l-2.225,27.474-2.2-27.474H466.44v15.923l-7.855-6.67h.078V438.27h-1.325v9.252h.519l8.809,7.48,0-.006,18.208,17.426,18.435-17.644v-.019l8.421-7.15-.03-.087h.539V438.27h-1.325Z"/><path class="c" d="M436.048,447.522h.191l-7.8,6.619V438.27H412.214l-2.225,27.474-2.2-27.474H391.573v15.923l-7.855-6.67h.078V438.27h-1.325v9.252h.519L391.8,455l0-.005,18.208,17.426,18.435-17.644v-.019l8.421-7.15-.03-.087h.539V438.27h-1.325Z"/><path class="c" d="M361.181,447.523h.191l-7.8,6.619V438.27H337.347l-2.225,27.474-2.2-27.474H316.706v15.923l-7.856-6.67h.078v-9.252H307.6v9.252h.519l8.809,7.48,0-.006,18.208,17.426,18.435-17.644v-.019L362,447.61l-.03-.087h.539V438.27h-1.325Z"/><path class="c" d="M597,400.835l-18.435,17.644v.019l-8.42,7.15.03.087h-.539v9.252h1.325v-9.252h-.191l7.8-6.619v15.872H594.8l2.226-27.474.067.839v-7.435Z"/><path class="c" d="M540.346,418.257l0,.006-18.208-17.427L503.7,418.48v.019l-8.42,7.15.03.087h-.539v9.252H496.1v-9.252h-.191l7.8-6.619v15.872H519.93l2.226-27.474,2.2,27.474h16.216V419.066l7.856,6.67h-.078v9.252h1.325v-9.252h-.519Z"/><path class="c" d="M465.479,418.257l0,.006-18.208-17.426L428.834,418.48v.019l-8.42,7.15.03.087H419.9v9.253h1.325v-9.253h-.191l7.8-6.619v15.872h16.229l2.226-27.474,2.2,27.474H465.7V419.067l7.856,6.67h-.078v9.252h1.325v-9.252h-.519Z"/><path class="c" d="M390.612,418.257l0,.006L372.4,400.837l-18.435,17.644v.019l-8.421,7.15.03.087h-.539v9.252h1.325v-9.252h-.191l7.8-6.619V434.99H370.2l2.226-27.474,2.2,27.474h16.216V419.067l7.856,6.67h-.078v9.252h1.325v-9.252h-.519Z"/><path class="c" d="M315.97,434.99V419.068l7.856,6.67h-.078v9.253h1.325v-9.253h-.519l-8.809-7.48,0,.006L297.621,400.92v7.435l2.133,26.636Z"/><path class="c" d="M585.783,372.654h.191l-7.8,6.619V363.4H561.949l-2.225,27.474-2.2-27.474H541.307v15.923l-7.856-6.67h.078V363.4H532.2v9.252h.519l8.809,7.48,0-.006,18.208,17.427,18.435-17.644v-.019l8.42-7.15-.03-.087h.539V363.4h-1.325Z"/><path class="c" d="M510.915,372.655h.191l-7.8,6.619V363.4H487.082l-2.225,27.474-2.2-27.474H466.44v15.922l-7.856-6.67h.078V363.4h-1.325v9.252h.519l8.809,7.48,0-.006,18.208,17.426,18.435-17.644v-.019l8.42-7.15-.03-.087h.539V363.4h-1.325Z"/><path class="c" d="M436.048,372.655h.191l-7.8,6.619V363.4H412.214l-2.225,27.474-2.2-27.474H391.572v15.923l-7.856-6.67h.078V363.4H382.47v9.252h.519l8.809,7.48,0-.005,18.208,17.426,18.435-17.644v-.019l8.421-7.15-.03-.087h.539V363.4h-1.325Z"/><path class="c" d="M361.18,372.655h.191l-7.8,6.619V363.4H337.347l-2.225,27.474-2.2-27.474H316.705v15.923l-7.856-6.67h.078V363.4H307.6v9.252h.519l8.809,7.48,0-.006,18.208,17.426,18.435-17.644v-.019l8.421-7.15-.03-.087h.539V363.4H361.18Z"/><path class="c" d="M597,325.968l-18.435,17.644v.019l-8.421,7.15.03.087h-.539v9.252h1.325v-9.252h-.191l7.8-6.619v15.872H594.8l2.225-27.474.067.839v-7.435Z"/><path class="c" d="M540.346,343.389l0,.006-18.208-17.427L503.7,343.612v.019l-8.421,7.15.03.087h-.539v9.252H496.1v-9.252h-.191l7.8-6.619v15.872H519.93l2.225-27.474,2.2,27.474h16.216V344.2l7.856,6.67h-.078v9.252h1.325v-9.252h-.519Z"/><path class="c" d="M465.479,343.389l0,.006-18.208-17.426-18.435,17.644v.019l-8.421,7.15.03.087H419.9v9.253h1.325V350.87h-.191l7.8-6.619v15.872h16.229l2.225-27.474,2.2,27.474H465.7V344.2l7.856,6.67h-.078v9.252h1.325v-9.252h-.519Z"/><path class="c" d="M390.611,343.39l0,.006L372.4,325.969l-18.435,17.644v.019l-8.421,7.15.03.087h-.539v9.252h1.325V350.87h-.191l7.8-6.619v15.872H370.2l2.225-27.474,2.2,27.474h16.216V344.2l7.856,6.67h-.078v9.252h1.325V350.87h-.519Z"/><path class="c" d="M315.969,360.123V344.2l7.856,6.67h-.078v9.253h1.325V350.87h-.519l-8.809-7.48,0,.006L297.62,326.052v7.435l2.133,26.636Z"/><path class="c" d="M585.782,297.787h.191l-7.8,6.619V288.534H561.948l-2.225,27.474-2.2-27.474H541.307v15.923l-7.856-6.67h.078v-9.252H532.2v9.252h.519l8.809,7.48,0-.006,18.208,17.427,18.435-17.644v-.019l8.421-7.15-.03-.087h.539v-9.252h-1.325Z"/><path class="c" d="M510.915,297.787h.191l-7.8,6.619V288.535H487.081l-2.225,27.474-2.2-27.474H466.439v15.922l-7.856-6.67h.078v-9.252h-1.325v9.252h.519l8.809,7.48,0-.006,18.208,17.426,18.435-17.644v-.019l8.421-7.15-.03-.087h.539v-9.252h-1.325Z"/><path class="c" d="M436.047,297.787h.191l-7.8,6.619V288.535H412.214l-2.225,27.474-2.2-27.474H391.572v15.923l-7.856-6.67h.078v-9.252H382.47v9.252h.519l8.809,7.48,0-.005,18.208,17.426,18.435-17.644v-.019l8.421-7.15-.03-.087h.539v-9.252h-1.325Z"/><path class="c" d="M361.18,297.788h.191l-7.8,6.619V288.536H337.346l-2.225,27.474-2.2-27.474H316.7v15.923l-7.856-6.67h.078v-9.252H307.6v9.252h.519l8.809,7.48,0-.006,18.208,17.426,18.435-17.644v-.019l8.421-7.15-.03-.087h.539v-9.252H361.18Z"/><path class="c" d="M578.567,268.745v.019l-8.421,7.15.03.087h-.539v9.252h1.325V276h-.191l7.8-6.619v15.872H594.8l1.383-17.077H579.16Z"/><path class="c" d="M524.355,285.254h16.216V269.331l7.856,6.67h-.078v9.252h1.325V276h-.519l-8.809-7.48,0,.006-.366-.35H522.987Z"/><path class="c" d="M503.7,268.764l-8.421,7.15.03.087h-.539v9.252H496.1V276H495.9l7.8-6.619v15.872h16.229l1.383-17.077H504.293l-.593.567Z"/><path class="c" d="M428.833,268.765l-8.42,7.15.03.087H419.9v9.253h1.325V276h-.191l7.8-6.619v15.872h16.229l1.383-17.077H429.426l-.593.568Z"/><path class="c" d="M449.487,285.255H465.7V269.332l7.856,6.67h-.078v9.252h1.325V276h-.519l-8.809-7.48,0,.006-.366-.35H448.12Z"/><path class="c" d="M353.965,268.765l-8.42,7.15.03.087h-.539v9.252h1.325V276h-.191l7.8-6.619v15.872h16.229l1.383-17.077H354.558l-.593.568Z"/><path class="c" d="M374.62,285.255h16.216V269.332l7.856,6.67h-.078v9.252h1.325V276h-.519l-8.809-7.48,0,.006-.366-.35H373.253Z"/><path class="c" d="M315.969,285.256V269.333l7.856,6.67h-.078v9.253h1.325V276h-.519l-8.809-7.48,0,.005-.366-.35H298.385l1.367,17.077Z"/></g></svg>