<svg id="Group_78" data-name="Group 78" xmlns="http://www.w3.org/2000/svg" width="20.737" height="20.737" viewBox="0 0 20.737 20.737">
  <path id="Path_145" data-name="Path 145" d="M0,0H20.737V20.737H0Z" fill="none"/>
  <path id="Path_146" data-name="Path 146" d="M16.825,2.728h-.864V1.864a.864.864,0,0,0-1.728,0v.864H7.32V1.864a.864.864,0,0,0-1.728,0v.864H4.728A1.728,1.728,0,0,0,3,4.456v12.1a1.733,1.733,0,0,0,1.728,1.728h12.1a1.733,1.733,0,0,0,1.728-1.728V4.456A1.733,1.733,0,0,0,16.825,2.728ZM10.777,5.32A2.592,2.592,0,1,1,8.184,7.912,2.589,2.589,0,0,1,10.777,5.32Zm5.184,10.369H5.592v-.864c0-1.728,3.456-2.679,5.184-2.679s5.184.95,5.184,2.679Z" transform="translate(-0.408 -0.136)" fill="#616161"/>
</svg>
