<svg id="Group_155" data-name="Group 155" xmlns="http://www.w3.org/2000/svg" xmlns:xlink="http://www.w3.org/1999/xlink" width="148.138" height="117.014" viewBox="0 0 148.138 117.014">
  <defs>
    <linearGradient id="linear-gradient" x1="0.5" y1="1" x2="0.5" gradientUnits="objectBoundingBox">
      <stop offset="0" stop-color="gray" stop-opacity="0.251"/>
      <stop offset="0.54" stop-color="gray" stop-opacity="0.122"/>
      <stop offset="1" stop-color="gray" stop-opacity="0.102"/>
    </linearGradient>
    <linearGradient id="linear-gradient-4" y2="-0.001" xlink:href="#linear-gradient"/>
    <linearGradient id="linear-gradient-7" x1="29.773" y1="26.262" x2="29.773" y2="25.263" xlink:href="#linear-gradient"/>
    <linearGradient id="linear-gradient-8" y1="0.999" xlink:href="#linear-gradient"/>
    <linearGradient id="linear-gradient-9" x1="35.813" y1="30.815" x2="35.813" y2="29.815" xlink:href="#linear-gradient"/>
    <linearGradient id="linear-gradient-10" x1="39.503" y1="24.82" x2="39.503" y2="23.82" xlink:href="#linear-gradient"/>
    <linearGradient id="linear-gradient-11" x1="30.785" y1="19.69" x2="30.785" y2="18.69" xlink:href="#linear-gradient"/>
    <linearGradient id="linear-gradient-12" x1="25.655" y1="10.971" x2="25.655" y2="9.972" xlink:href="#linear-gradient"/>
    <linearGradient id="linear-gradient-13" x1="25.656" y1="0.713" x2="25.656" y2="-0.287" xlink:href="#linear-gradient"/>
    <linearGradient id="linear-gradient-14" x1="40.017" y1="-13.391" x2="40.017" y2="-14.391" xlink:href="#linear-gradient"/>
    <linearGradient id="linear-gradient-15" x1="50.274" y1="-13.135" x2="50.274" y2="-14.134" xlink:href="#linear-gradient"/>
    <linearGradient id="linear-gradient-16" x1="58.481" y1="-8.006" x2="58.481" y2="-9.006" xlink:href="#linear-gradient"/>
    <linearGradient id="linear-gradient-17" x1="63.609" y1="0.2" x2="63.609" y2="-0.799" xlink:href="#linear-gradient"/>
  </defs>
  <rect id="Rectangle_95" data-name="Rectangle 95" width="141.825" height="93.782" transform="translate(6.313)" fill="url(#linear-gradient)"/>
  <rect id="Rectangle_96" data-name="Rectangle 96" width="138.988" height="79.865" transform="translate(7.554 11.08)" fill="#fff"/>
  <rect id="Rectangle_97" data-name="Rectangle 97" width="138.988" height="9.13" transform="translate(7.554 1.95)" fill="#1e319d"/>
  <rect id="Rectangle_98" data-name="Rectangle 98" width="135.443" height="69.671" transform="translate(9.504 16.842)" fill="url(#linear-gradient)"/>
  <rect id="Rectangle_99" data-name="Rectangle 99" width="16.31" height="13.03" transform="translate(11.188 18.083)" fill="#1e319d" opacity="0.5"/>
  <rect id="Rectangle_100" data-name="Rectangle 100" width="16.31" height="13.03" transform="translate(27.675 18.083)" fill="#fff"/>
  <rect id="Rectangle_101" data-name="Rectangle 101" width="16.31" height="13.03" transform="translate(44.162 18.083)" fill="#1e319d" opacity="0.2"/>
  <rect id="Rectangle_102" data-name="Rectangle 102" width="16.31" height="13.03" transform="translate(60.65 18.083)" fill="#fff"/>
  <rect id="Rectangle_103" data-name="Rectangle 103" width="16.31" height="13.03" transform="translate(77.137 18.083)" fill="#fff"/>
  <rect id="Rectangle_104" data-name="Rectangle 104" width="16.31" height="13.03" transform="translate(93.624 18.083)" fill="#1e319d" opacity="0.5"/>
  <rect id="Rectangle_105" data-name="Rectangle 105" width="16.31" height="13.03" transform="translate(110.111 18.083)" fill="#fff"/>
  <rect id="Rectangle_106" data-name="Rectangle 106" width="16.31" height="13.03" transform="translate(126.598 18.083)" fill="#1e319d" opacity="0.2"/>
  <rect id="Rectangle_107" data-name="Rectangle 107" width="16.31" height="13.03" transform="translate(11.188 31.379)" fill="#1e319d" opacity="0.2"/>
  <rect id="Rectangle_108" data-name="Rectangle 108" width="16.31" height="13.03" transform="translate(27.675 31.379)" fill="#1e319d" opacity="0.2"/>
  <rect id="Rectangle_109" data-name="Rectangle 109" width="16.31" height="13.03" transform="translate(44.162 31.379)" fill="#fff"/>
  <rect id="Rectangle_110" data-name="Rectangle 110" width="16.31" height="13.03" transform="translate(60.65 31.379)" fill="#1e319d" opacity="0.5"/>
  <rect id="Rectangle_111" data-name="Rectangle 111" width="16.31" height="13.03" transform="translate(77.137 31.379)" fill="#fff"/>
  <rect id="Rectangle_112" data-name="Rectangle 112" width="16.31" height="13.03" transform="translate(93.624 31.379)" fill="#1e319d" opacity="0.2"/>
  <rect id="Rectangle_113" data-name="Rectangle 113" width="16.31" height="13.03" transform="translate(110.111 31.379)" fill="#1e319d" opacity="0.5"/>
  <rect id="Rectangle_114" data-name="Rectangle 114" width="16.31" height="13.03" transform="translate(126.598 31.379)" fill="#fff"/>
  <rect id="Rectangle_115" data-name="Rectangle 115" width="16.31" height="13.03" transform="translate(11.188 44.498)" fill="#fff"/>
  <rect id="Rectangle_116" data-name="Rectangle 116" width="16.31" height="13.03" transform="translate(27.675 44.498)" fill="#fff"/>
  <rect id="Rectangle_117" data-name="Rectangle 117" width="16.31" height="13.03" transform="translate(44.162 44.498)" fill="#1e319d" opacity="0.2"/>
  <rect id="Rectangle_118" data-name="Rectangle 118" width="16.31" height="13.03" transform="translate(60.65 44.498)" fill="#fff"/>
  <rect id="Rectangle_119" data-name="Rectangle 119" width="16.31" height="13.03" transform="translate(77.137 44.498)" fill="#1e319d" opacity="0.2"/>
  <rect id="Rectangle_120" data-name="Rectangle 120" width="16.31" height="13.03" transform="translate(93.624 44.498)" fill="#fff"/>
  <rect id="Rectangle_121" data-name="Rectangle 121" width="16.31" height="13.03" transform="translate(110.111 44.498)" fill="#fff"/>
  <rect id="Rectangle_122" data-name="Rectangle 122" width="16.31" height="13.03" transform="translate(126.598 44.498)" fill="#1e319d" opacity="0.2"/>
  <rect id="Rectangle_123" data-name="Rectangle 123" width="16.31" height="13.03" transform="translate(11.188 57.616)" fill="#fff"/>
  <rect id="Rectangle_124" data-name="Rectangle 124" width="16.31" height="13.03" transform="translate(27.675 57.616)" fill="#1e319d" opacity="0.5"/>
  <rect id="Rectangle_125" data-name="Rectangle 125" width="16.31" height="13.03" transform="translate(44.162 57.616)" fill="#1e319d" opacity="0.5"/>
  <rect id="Rectangle_126" data-name="Rectangle 126" width="16.31" height="13.03" transform="translate(60.65 57.616)" fill="#fff"/>
  <rect id="Rectangle_127" data-name="Rectangle 127" width="16.31" height="13.03" transform="translate(77.137 57.616)" fill="#fff"/>
  <rect id="Rectangle_128" data-name="Rectangle 128" width="16.31" height="13.03" transform="translate(93.624 57.616)" fill="#1e319d" opacity="0.5"/>
  <rect id="Rectangle_129" data-name="Rectangle 129" width="16.31" height="13.03" transform="translate(110.111 57.616)" fill="#fff"/>
  <rect id="Rectangle_130" data-name="Rectangle 130" width="16.31" height="13.03" transform="translate(126.598 57.616)" fill="#1e319d" opacity="0.5"/>
  <rect id="Rectangle_131" data-name="Rectangle 131" width="16.31" height="13.03" transform="translate(11.188 70.912)" fill="#6c63ff" opacity="0.5"/>
  <rect id="Rectangle_132" data-name="Rectangle 132" width="16.31" height="13.03" transform="translate(27.675 70.912)" fill="#6c63ff" opacity="0.2"/>
  <rect id="Rectangle_133" data-name="Rectangle 133" width="16.31" height="13.03" transform="translate(44.162 70.912)" fill="#fff"/>
  <rect id="Rectangle_134" data-name="Rectangle 134" width="16.31" height="13.03" transform="translate(60.65 70.912)" fill="#1e319d" opacity="0.5"/>
  <rect id="Rectangle_135" data-name="Rectangle 135" width="16.31" height="13.03" transform="translate(77.137 70.912)" fill="#1e319d" opacity="0.2"/>
  <rect id="Rectangle_136" data-name="Rectangle 136" width="16.31" height="13.03" transform="translate(93.624 70.912)" fill="#fff"/>
  <rect id="Rectangle_137" data-name="Rectangle 137" width="16.31" height="13.03" transform="translate(110.111 70.912)" fill="#1e319d" opacity="0.2"/>
  <rect id="Rectangle_138" data-name="Rectangle 138" width="16.31" height="13.03" transform="translate(126.598 70.912)" fill="#fff"/>
  <rect id="Rectangle_139" data-name="Rectangle 139" width="4.964" height="4.964" transform="translate(12.518 45.738)" fill="#69f0ae"/>
  <rect id="Rectangle_140" data-name="Rectangle 140" width="4.964" height="4.964" transform="translate(61.802 19.501)" fill="#69f0ae"/>
  <rect id="Rectangle_141" data-name="Rectangle 141" width="4.964" height="4.964" transform="translate(61.27 45.738)" fill="#69f0ae"/>
  <rect id="Rectangle_142" data-name="Rectangle 142" width="4.964" height="4.964" transform="translate(78.112 58.325)" fill="#69f0ae"/>
  <rect id="Rectangle_143" data-name="Rectangle 143" width="4.964" height="4.964" transform="translate(110.909 45.738)" fill="#69f0ae"/>
  <circle id="Ellipse_45" data-name="Ellipse 45" cx="30.413" cy="30.413" r="30.413" transform="translate(0 56.189)" fill="url(#linear-gradient)"/>
  <circle id="Ellipse_46" data-name="Ellipse 46" cx="29.592" cy="29.592" r="29.592" transform="translate(0.821 57.01)" fill="#1e319d"/>
  <circle id="Ellipse_47" data-name="Ellipse 47" cx="24.043" cy="24.043" r="24.043" transform="translate(6.37 62.559)" fill="#fff"/>
  <circle id="Ellipse_48" data-name="Ellipse 48" cx="1.438" cy="1.438" r="1.438" transform="translate(28.975 85.164)" fill="url(#linear-gradient-4)"/>
  <line id="Line_2" data-name="Line 2" x1="7.809" y2="18.494" transform="translate(30.618 68.108)" fill="#6c63ff"/>
  <path id="Path_823" data-name="Path 823" d="M170.5,401.469l-.886-.3,7.978-18.671.886.417Z" transform="translate(-139.541 -314.69)" fill="url(#linear-gradient)"/>
  <rect id="Rectangle_144" data-name="Rectangle 144" width="20.075" height="0.617" transform="matrix(0.389, -0.921, 0.921, 0.389, 30.332, 86.476)" fill="#1e319d"/>
  <line id="Line_3" data-name="Line 3" x2="5.138" y2="9.453" transform="translate(30.618 86.807)" fill="#6c63ff"/>
  <path id="Path_824" data-name="Path 824" d="M175.751,498.428l-5.141-9.573.709-.355,5.318,9.4Z" transform="translate(-140.364 -401.898)" fill="url(#linear-gradient)"/>
  <rect id="Rectangle_145" data-name="Rectangle 145" width="0.617" height="10.759" transform="translate(30.345 86.96) rotate(-28.52)" fill="#1e319d"/>
  <circle id="Ellipse_49" data-name="Ellipse 49" cx="0.617" cy="0.617" r="0.617" transform="translate(52.195 86.602)" fill="#6c63ff"/>
  <circle id="Ellipse_50" data-name="Ellipse 50" cx="0.801" cy="0.801" r="0.801" transform="translate(10.024 75.818) rotate(-60)" fill="url(#linear-gradient-7)"/>
  <circle id="Ellipse_51" data-name="Ellipse 51" cx="0.801" cy="0.801" r="0.801" transform="translate(10.229 98.041) rotate(-30)" fill="url(#linear-gradient-8)"/>
  <circle id="Ellipse_52" data-name="Ellipse 52" cx="0.801" cy="0.801" r="0.801" transform="translate(7.214 86.417)" fill="url(#linear-gradient-9)"/>
  <circle id="Ellipse_53" data-name="Ellipse 53" cx="0.801" cy="0.801" r="0.801" transform="translate(18.201 67.012) rotate(-30)" fill="url(#linear-gradient-10)"/>
  <circle id="Ellipse_54" data-name="Ellipse 54" cx="0.801" cy="0.801" r="0.801" transform="translate(29.298 64.136) rotate(-30)" fill="url(#linear-gradient-11)"/>
  <circle id="Ellipse_55" data-name="Ellipse 55" cx="0.801" cy="0.801" r="0.801" transform="translate(40.395 67.013) rotate(-30)" fill="url(#linear-gradient-12)"/>
  <circle id="Ellipse_56" data-name="Ellipse 56" cx="0.801" cy="0.801" r="0.801" transform="translate(48.614 75.233) rotate(-30)" fill="url(#linear-gradient-13)"/>
  <circle id="Ellipse_57" data-name="Ellipse 57" cx="0.801" cy="0.801" r="0.801" transform="translate(48.41 98.043) rotate(-30)" fill="url(#linear-gradient-14)"/>
  <circle id="Ellipse_58" data-name="Ellipse 58" cx="0.801" cy="0.801" r="0.801" transform="translate(39.984 106.056) rotate(-30)" fill="url(#linear-gradient-15)"/>
  <circle id="Ellipse_59" data-name="Ellipse 59" cx="0.801" cy="0.801" r="0.801" transform="translate(29.297 108.524) rotate(-30)" fill="url(#linear-gradient-16)"/>
  <circle id="Ellipse_60" data-name="Ellipse 60" cx="0.801" cy="0.801" r="0.801" transform="translate(18.613 106.057) rotate(-30)" fill="url(#linear-gradient-17)"/>
  <circle id="Ellipse_61" data-name="Ellipse 61" cx="0.617" cy="0.617" r="0.617" transform="translate(29.796 63.791)" fill="#69f0ae"/>
  <circle id="Ellipse_62" data-name="Ellipse 62" cx="0.617" cy="0.617" r="0.617" transform="translate(40.667 67.606) rotate(-60)" fill="#69f0ae"/>
  <circle id="Ellipse_63" data-name="Ellipse 63" cx="0.617" cy="0.617" r="0.617" transform="translate(48.79 75.28) rotate(-30)" fill="#69f0ae"/>
  <circle id="Ellipse_64" data-name="Ellipse 64" cx="0.617" cy="0.617" r="0.617" transform="translate(48.661 98.56) rotate(-60)" fill="#69f0ae"/>
  <circle id="Ellipse_65" data-name="Ellipse 65" cx="0.617" cy="0.617" r="0.617" transform="translate(40.236 106.082) rotate(-30)" fill="#69f0ae"/>
  <circle id="Ellipse_66" data-name="Ellipse 66" cx="0.617" cy="0.617" r="0.617" transform="translate(18.473 67.157) rotate(-30)" fill="#69f0ae"/>
  <circle id="Ellipse_67" data-name="Ellipse 67" cx="0.617" cy="0.617" r="0.617" transform="translate(10.351 75.731) rotate(-60)" fill="#69f0ae"/>
  <circle id="Ellipse_68" data-name="Ellipse 68" cx="0.801" cy="0.801" r="0.801" transform="translate(51.698 86.947) rotate(-30)" fill="#69f0ae"/>
  <circle id="Ellipse_69" data-name="Ellipse 69" cx="0.617" cy="0.617" r="0.617" transform="translate(10.481 98.108) rotate(-30)" fill="#69f0ae"/>
  <circle id="Ellipse_70" data-name="Ellipse 70" cx="0.617" cy="0.617" r="0.617" transform="translate(18.905 106.533) rotate(-60)" fill="#69f0ae"/>
  <circle id="Ellipse_71" data-name="Ellipse 71" cx="0.617" cy="0.617" r="0.617" transform="translate(7.398 86.602)" fill="#69f0ae"/>
  <circle id="Ellipse_72" data-name="Ellipse 72" cx="0.617" cy="0.617" r="0.617" transform="translate(29.796 108.177)" fill="#69f0ae"/>
  <path id="Path_825" data-name="Path 825" d="M219.365,498.233a24.046,24.046,0,0,1,44.9-11.963,24.046,24.046,0,1,0-42.952,21.462A23.962,23.962,0,0,1,219.365,498.233Z" transform="translate(-211.762 -409.371)" fill="#6c63ff" opacity="0.2"/>
  <circle id="Ellipse_73" data-name="Ellipse 73" cx="1.028" cy="1.028" r="1.028" transform="translate(29.384 85.573)" fill="#69f0ae"/>
</svg>
