<svg id="Group_80" data-name="Group 80" xmlns="http://www.w3.org/2000/svg" xmlns:xlink="http://www.w3.org/1999/xlink" width="24" height="24" viewBox="0 0 24 24">
  <defs>
    <linearGradient id="linear-gradient" x1="0.092" y1="0.908" x2="0.908" y2="0.092" gradientUnits="objectBoundingBox">
      <stop offset="0" stop-color="#ffc107"/>
      <stop offset="0.507" stop-color="#f44336"/>
      <stop offset="0.99" stop-color="#9c27b0"/>
    </linearGradient>
    <linearGradient id="linear-gradient-2" x1="0.146" y1="0.854" x2="0.854" y2="0.146" xlink:href="#linear-gradient"/>
    <linearGradient id="linear-gradient-3" x1="0.146" y1="0.854" x2="0.854" y2="0.146" xlink:href="#linear-gradient"/>
  </defs>
  <path id="Path_151" data-name="Path 151" d="M16.5,0h-9A7.5,7.5,0,0,0,0,7.5v9A7.5,7.5,0,0,0,7.5,24h9A7.5,7.5,0,0,0,24,16.5v-9A7.5,7.5,0,0,0,16.5,0Zm5.25,16.5a5.256,5.256,0,0,1-5.25,5.25h-9A5.256,5.256,0,0,1,2.25,16.5v-9A5.256,5.256,0,0,1,7.5,2.25h9A5.256,5.256,0,0,1,21.75,7.5Z" fill="url(#linear-gradient)"/>
  <path id="Path_152" data-name="Path 152" d="M10.019,4a6.019,6.019,0,1,0,6.019,6.019A6.019,6.019,0,0,0,10.019,4Zm0,9.781a3.762,3.762,0,1,1,3.762-3.762A3.766,3.766,0,0,1,10.019,13.781Z" transform="translate(1.981 1.981)" fill="url(#linear-gradient-2)"/>
  <circle id="Ellipse_17" data-name="Ellipse 17" cx="0.802" cy="0.802" r="0.802" transform="translate(17.647 4.749)" fill="url(#linear-gradient-3)"/>
</svg>
