<svg id="Group_122" data-name="Group 122" xmlns="http://www.w3.org/2000/svg" width="14.766" height="14.766" viewBox="0 0 14.766 14.766">
  <path id="Path_192" data-name="Path 192" d="M6.812,9.617a.311.311,0,0,0,.249-.14.324.324,0,0,0,.034-.29.32.32,0,0,0-.578,0L6.511,9.2a.31.31,0,0,0,.042.282.321.321,0,0,0,.258.131Z" transform="translate(-2.499 -3.465)" fill="#1e319d"/>
  <path id="Path_193" data-name="Path 193" d="M10.71,12.176a.305.305,0,0,0,.041-.278l-4-11.69A.308.308,0,0,0,6.46,0H1.538A1.54,1.54,0,0,0,0,1.538v9.229A1.54,1.54,0,0,0,1.538,12.3h8.921A.308.308,0,0,0,10.71,12.176ZM2.479,8.2,4.017,3.9a.321.321,0,0,1,.58,0L6.135,8.2a.308.308,0,0,1-.58.207L5.042,6.973a.308.308,0,0,0-.29-.2H3.861a.308.308,0,0,0-.29.2L3.058,8.409A.307.307,0,1,1,2.479,8.2Z" transform="translate(0 0)" fill="#1e319d"/>
  <path id="Path_194" data-name="Path 194" d="M16.145,12a.3.3,0,0,1,.093.114,2.683,2.683,0,0,0,.409.615.307.307,0,0,0,.239.114h.01a.309.309,0,0,0,.241-.129,7.861,7.861,0,0,0,.742-1.28A.309.309,0,0,0,17.6,11H16.185a.308.308,0,0,0-.291.407l.156.456A.309.309,0,0,0,16.145,12Z" transform="translate(-6.109 -4.232)" fill="#1e319d"/>
  <path id="Path_195" data-name="Path 195" d="M17.941,4H13.316a.308.308,0,0,0-.291.407l1.052,3.076a.308.308,0,0,0,.291.209h.5a.308.308,0,0,0,.308-.308.308.308,0,1,1,.615,0,.308.308,0,0,0,.308.308h1.846a.308.308,0,0,1,0,.615h-.428a.308.308,0,0,0-.294.218,7.123,7.123,0,0,1-1.135,2.063.308.308,0,0,0,.023.4q.543.561,1.118,1.091a.306.306,0,0,1,.019.434.315.315,0,0,1-.435.019c-.1-.092-.315-.291-.578-.546a.307.307,0,0,0-.506.32l.319.931a.922.922,0,0,1-.872,1.222H12.558a.308.308,0,0,0-.288.415l.461,1.23a.308.308,0,0,0,.288.2h4.922a1.54,1.54,0,0,0,1.538-1.538V5.538A1.54,1.54,0,0,0,17.941,4Z" transform="translate(-4.713 -1.539)" fill="#1e319d"/>
</svg>
