<svg xmlns="http://www.w3.org/2000/svg" width="155.229" height="153.953" viewBox="0 0 155.229 153.953"><defs><style>.a{fill:#fff;}</style></defs><g transform="translate(-129 -261)"><g transform="translate(-91.141 25.793)"><path class="a" d="M230.368,334.806h14.718a4.445,4.445,0,0,1,4.534,4.534,4.107,4.107,0,0,1-1.375,3.085,4.464,4.464,0,0,1-3.159,1.3H225.462a4.926,4.926,0,0,1-3.643-1.412,5.027,5.027,0,0,1-1.412-3.717V295.26a5.09,5.09,0,0,1,1.412-3.641,4.8,4.8,0,0,1,3.643-1.488h19.1a4.442,4.442,0,0,1,4.46,4.46,4.488,4.488,0,0,1-1.3,3.309,4.39,4.39,0,0,1-3.233,1.3H230.368v13.231h13.008a4.7,4.7,0,0,1,3.344,1.253,4.42,4.42,0,0,1,0,6.34,4.46,4.46,0,0,1-3.27,1.327H230.368Z"/><path class="a" d="M264.338,307.9a8.308,8.308,0,0,1,1.71-1.756,13.6,13.6,0,0,1,9.068-3,15.323,15.323,0,0,1,10.7,4.156,12.11,12.11,0,0,1,2.9,4.452,17.925,17.925,0,0,1,.892,6.084V339.8a4.682,4.682,0,0,1-1.338,3.338,4.416,4.416,0,0,1-3.345,1.411,4.689,4.689,0,0,1-4.757-4.747V319.1a7.7,7.7,0,0,0-2.23-5.561,7.274,7.274,0,0,0-5.427-2.3,7.738,7.738,0,0,0-7.8,7.8v20.739a4.6,4.6,0,0,1-1.375,3.382,4.514,4.514,0,0,1-3.309,1.375,4.7,4.7,0,0,1-4.757-4.775V307.244a3.673,3.673,0,0,1,1.412-2.909,5.119,5.119,0,0,1,3.42-1.195,4.166,4.166,0,0,1,2.973,1.209,3.923,3.923,0,0,1,1.264,2.945Z"/><path class="a" d="M306.186,307.9a8.308,8.308,0,0,1,1.71-1.756,13.609,13.609,0,0,1,9.069-3,15.324,15.324,0,0,1,10.7,4.156,12.123,12.123,0,0,1,2.9,4.452,17.925,17.925,0,0,1,.892,6.084V339.8a4.686,4.686,0,0,1-1.338,3.338,4.418,4.418,0,0,1-3.345,1.411,4.689,4.689,0,0,1-4.758-4.747V319.1a7.7,7.7,0,0,0-2.229-5.561,7.276,7.276,0,0,0-5.427-2.3,7.739,7.739,0,0,0-7.8,7.8v20.739a4.6,4.6,0,0,1-1.375,3.382,4.512,4.512,0,0,1-3.308,1.375,4.7,4.7,0,0,1-4.757-4.775V307.244a3.673,3.673,0,0,1,1.412-2.909,5.117,5.117,0,0,1,3.42-1.195,4.166,4.166,0,0,1,2.973,1.209,3.925,3.925,0,0,1,1.263,2.945Z"/><path class="a" d="M365.652,307.972v-.613a3.9,3.9,0,0,1,1.338-2.991,4.566,4.566,0,0,1,3.2-1.228,4.854,4.854,0,0,1,3.345,1.19,3.738,3.738,0,0,1,1.339,2.9v32.633a4.233,4.233,0,0,1-1.4,3.233,4.856,4.856,0,0,1-3.436,1.3,4.533,4.533,0,0,1-3.285-1.282,4.26,4.26,0,0,1-1.322-3.189v-.732a16.9,16.9,0,0,1-4.843,4.178,13.089,13.089,0,0,1-5.657,1.025,15.947,15.947,0,0,1-12.607-5.9,23.776,23.776,0,0,1,.063-29.419A16.138,16.138,0,0,1,355.1,303.14a13.621,13.621,0,0,1,5.5.907A19.435,19.435,0,0,1,365.652,307.972Zm-9.366,3.79a8.186,8.186,0,0,0-6.764,3.335,13.939,13.939,0,0,0-2.6,8.82,14.1,14.1,0,0,0,2.527,8.744,7.986,7.986,0,0,0,6.69,3.335,8.14,8.14,0,0,0,6.839-3.187q2.452-3.186,2.453-8.967,0-5.558-2.453-8.818A7.924,7.924,0,0,0,356.286,311.762Z"/><path class="a" d="M228.207,385.513a6.8,6.8,0,0,1-2.809.505,4.972,4.972,0,0,1-5.257-5.383,5.3,5.3,0,0,1,5.557-5.588,5.692,5.692,0,0,1,2.525.474l-.331,1.121a5,5,0,0,0-2.147-.442c-2.494,0-4.152,1.594-4.152,4.388,0,2.6,1.5,4.278,4.089,4.278a5.5,5.5,0,0,0,2.241-.442Z"/><path class="a" d="M234,385.861l-.111-.963h-.047a2.844,2.844,0,0,1-2.336,1.136,2.177,2.177,0,0,1-2.337-2.194c0-1.847,1.642-2.857,4.594-2.841v-.158a1.574,1.574,0,0,0-1.736-1.768,3.806,3.806,0,0,0-1.989.568l-.316-.916a4.747,4.747,0,0,1,2.51-.678c2.337,0,2.905,1.594,2.905,3.125v2.857a10.741,10.741,0,0,0,.126,1.832Zm-.205-3.9c-1.515-.031-3.236.237-3.236,1.721a1.229,1.229,0,0,0,1.31,1.326,1.9,1.9,0,0,0,1.847-1.278,1.467,1.467,0,0,0,.079-.442Z"/><path class="a" d="M237.381,380.288c0-.789-.016-1.436-.064-2.068h1.216l.064,1.231h.046a2.635,2.635,0,0,1,2.4-1.4,2.259,2.259,0,0,1,2.163,1.531h.031a3.155,3.155,0,0,1,.853-.995,2.607,2.607,0,0,1,1.689-.536c1.01,0,2.51.663,2.51,3.315v4.5h-1.358v-4.326c0-1.468-.536-2.352-1.657-2.352a1.8,1.8,0,0,0-1.642,1.263,2.29,2.29,0,0,0-.111.695v4.72h-1.357v-4.578c0-1.216-.537-2.1-1.594-2.1a2.068,2.068,0,0,0-1.831,2.068v4.61h-1.358Z"/><path class="a" d="M250.548,380.714c0-.978-.032-1.768-.064-2.494h1.248l.063,1.31h.031a3.005,3.005,0,0,1,2.715-1.483c1.848,0,3.237,1.562,3.237,3.883,0,2.747-1.673,4.1-3.473,4.1a2.68,2.68,0,0,1-2.352-1.2h-.032v4.151h-1.373Zm1.373,2.037a3.184,3.184,0,0,0,.063.568,2.145,2.145,0,0,0,2.084,1.626c1.468,0,2.321-1.2,2.321-2.952,0-1.531-.806-2.841-2.274-2.841a2.407,2.407,0,0,0-2.194,2.289Z"/><path class="a" d="M261.078,376.073a.861.861,0,0,1-1.721,0,.846.846,0,0,1,.868-.868A.824.824,0,0,1,261.078,376.073Zm-1.547,9.788V378.22h1.389v7.641Z"/><path class="a" d="M263.225,380.288c0-.789-.016-1.436-.064-2.068h1.232l.078,1.263h.032a2.81,2.81,0,0,1,2.526-1.436c1.057,0,2.7.631,2.7,3.251v4.563h-1.389v-4.4c0-1.231-.457-2.257-1.768-2.257a2.042,2.042,0,0,0-1.958,2.068v4.594h-1.388Z"/><path class="a" d="M278.569,378.22c-.031.553-.062,1.168-.062,2.1v4.436c0,1.752-.348,2.825-1.09,3.488a4.046,4.046,0,0,1-2.778.916,4.928,4.928,0,0,1-2.542-.632l.348-1.057a4.3,4.3,0,0,0,2.241.6c1.421,0,2.463-.742,2.463-2.668v-.853h-.032a2.726,2.726,0,0,1-2.431,1.279c-1.894,0-3.252-1.61-3.252-3.725,0-2.589,1.689-4.057,3.442-4.057a2.539,2.539,0,0,1,2.383,1.326h.032l.063-1.153Zm-1.436,3.015a1.98,1.98,0,0,0-.079-.631,2,2,0,0,0-1.942-1.468c-1.325,0-2.273,1.121-2.273,2.889,0,1.5.758,2.746,2.257,2.746a2.031,2.031,0,0,0,1.927-1.42,2.419,2.419,0,0,0,.11-.742Z"/><path class="a" d="M282.3,388.071a2.248,2.248,0,0,0,1.515-.584c.38-.442.522-1.042.522-2.873V378.22h1.389v6.93a4.191,4.191,0,0,1-.916,3.142,3.528,3.528,0,0,1-2.368.868Zm3.583-12a.815.815,0,0,1-.868.853.83.83,0,0,1-.852-.853.85.85,0,0,1,.884-.868A.82.82,0,0,1,285.879,376.073Z"/><path class="a" d="M294.389,383.777c0,.789.016,1.484.063,2.084h-1.231l-.08-1.247h-.031a2.875,2.875,0,0,1-2.526,1.42c-1.2,0-2.636-.663-2.636-3.346V378.22h1.389v4.231c0,1.452.442,2.431,1.7,2.431a2.007,2.007,0,0,0,1.831-1.263,2.029,2.029,0,0,0,.126-.71V378.22h1.39Z"/><path class="a" d="M296.505,384.44a3.641,3.641,0,0,0,1.831.552c1.01,0,1.484-.505,1.484-1.136,0-.663-.4-1.026-1.421-1.4-1.373-.49-2.021-1.247-2.021-2.163a2.357,2.357,0,0,1,2.637-2.241,3.816,3.816,0,0,1,1.878.473l-.347,1.01a2.98,2.98,0,0,0-1.563-.442c-.821,0-1.279.474-1.279,1.042,0,.632.458.916,1.453,1.295,1.326.505,2,1.168,2,2.305,0,1.341-1.042,2.288-2.858,2.288a4.361,4.361,0,0,1-2.146-.52Z"/><path class="a" d="M304.619,376.026v2.194h1.989v1.058h-1.989v4.12c0,.947.269,1.484,1.042,1.484a3.062,3.062,0,0,0,.8-.1l.063,1.042a3.391,3.391,0,0,1-1.231.189,1.925,1.925,0,0,1-1.5-.584,2.833,2.833,0,0,1-.537-1.989v-4.167h-1.184V378.22h1.184v-1.831Z"/><path class="a" d="M318.1,378.22c-.031.553-.063,1.168-.063,2.1v4.436c0,1.752-.347,2.825-1.089,3.488a4.049,4.049,0,0,1-2.778.916,4.928,4.928,0,0,1-2.542-.632l.347-1.057a4.307,4.307,0,0,0,2.242.6c1.42,0,2.462-.742,2.462-2.668v-.853h-.031a2.727,2.727,0,0,1-2.431,1.279c-1.895,0-3.252-1.61-3.252-3.725,0-2.589,1.689-4.057,3.441-4.057a2.54,2.54,0,0,1,2.384,1.326h.031l.064-1.153Zm-1.437,3.015a1.982,1.982,0,0,0-.078-.631,2,2,0,0,0-1.942-1.468c-1.326,0-2.273,1.121-2.273,2.889,0,1.5.758,2.746,2.257,2.746a2.03,2.03,0,0,0,1.926-1.42,2.419,2.419,0,0,0,.11-.742Z"/><path class="a" d="M327.258,381.977a3.734,3.734,0,0,1-3.8,4.057,3.632,3.632,0,0,1-3.662-3.93,3.73,3.73,0,0,1,3.789-4.057A3.618,3.618,0,0,1,327.258,381.977Zm-6.062.079c0,1.674.963,2.936,2.321,2.936,1.326,0,2.32-1.247,2.32-2.967,0-1.295-.647-2.937-2.289-2.937S321.2,380.6,321.2,382.056Z"/><path class="a" d="M330.684,376.026v2.194h1.989v1.058h-1.989v4.12c0,.947.269,1.484,1.042,1.484a3.056,3.056,0,0,0,.8-.1l.063,1.042a3.387,3.387,0,0,1-1.231.189,1.926,1.926,0,0,1-1.5-.584,2.833,2.833,0,0,1-.536-1.989v-4.167h-1.184V378.22h1.184v-1.831Z"/><path class="a" d="M338.357,382.293a2.447,2.447,0,0,0,2.621,2.652,5.023,5.023,0,0,0,2.115-.4l.236,1a6.185,6.185,0,0,1-2.541.473,3.548,3.548,0,0,1-3.757-3.851c0-2.3,1.357-4.12,3.583-4.12,2.495,0,3.158,2.194,3.158,3.6a5.169,5.169,0,0,1-.048.647Zm4.073-.995a1.978,1.978,0,0,0-1.926-2.257,2.3,2.3,0,0,0-2.131,2.257Z"/><path class="a" d="M349.724,385.861l-.111-.963h-.047a2.847,2.847,0,0,1-2.337,1.136,2.176,2.176,0,0,1-2.336-2.194c0-1.847,1.642-2.857,4.593-2.841v-.158a1.574,1.574,0,0,0-1.736-1.768,3.811,3.811,0,0,0-1.989.568l-.316-.916a4.75,4.75,0,0,1,2.51-.678c2.337,0,2.9,1.594,2.9,3.125v2.857a10.845,10.845,0,0,0,.126,1.832Zm-.206-3.9c-1.515-.031-3.236.237-3.236,1.721a1.229,1.229,0,0,0,1.31,1.326,1.9,1.9,0,0,0,1.848-1.278,1.5,1.5,0,0,0,.078-.442Z"/><path class="a" d="M352.913,384.44a3.641,3.641,0,0,0,1.831.552c1.01,0,1.484-.505,1.484-1.136,0-.663-.395-1.026-1.421-1.4-1.373-.49-2.021-1.247-2.021-2.163a2.357,2.357,0,0,1,2.637-2.241,3.816,3.816,0,0,1,1.878.473l-.347,1.01a2.98,2.98,0,0,0-1.563-.442c-.821,0-1.279.474-1.279,1.042,0,.632.458.916,1.453,1.295,1.326.505,2.005,1.168,2.005,2.305,0,1.341-1.042,2.288-2.858,2.288a4.361,4.361,0,0,1-2.146-.52Z"/><path class="a" d="M360.9,376.073a.86.86,0,0,1-1.72,0,.846.846,0,0,1,.868-.868A.824.824,0,0,1,360.9,376.073Zm-1.547,9.788V378.22h1.389v7.641Z"/><path class="a" d="M363.822,382.293a2.447,2.447,0,0,0,2.62,2.652,5.025,5.025,0,0,0,2.116-.4l.237,1a6.194,6.194,0,0,1-2.542.473,3.548,3.548,0,0,1-3.757-3.851c0-2.3,1.357-4.12,3.584-4.12,2.494,0,3.157,2.194,3.157,3.6a5.169,5.169,0,0,1-.048.647Zm4.073-.995a1.977,1.977,0,0,0-1.926-2.257,2.3,2.3,0,0,0-2.131,2.257Z"/><path class="a" d="M370.958,380.6c0-.9-.016-1.673-.063-2.384h1.215l.048,1.5h.063a2.292,2.292,0,0,1,2.115-1.673,1.487,1.487,0,0,1,.395.047v1.31a2.121,2.121,0,0,0-.474-.047,1.95,1.95,0,0,0-1.863,1.784,3.963,3.963,0,0,0-.063.647v4.073h-1.373Z"/><path class="a" d="M228.824,367.246v1.046h-5.052a4.891,4.891,0,0,1-2.124-.379,2.243,2.243,0,0,1-1.115-1.206,6.033,6.033,0,0,1-.342-2.253,6.429,6.429,0,0,1,.326-2.26,2.266,2.266,0,0,1,1.077-1.244,4.384,4.384,0,0,1,2.026-.4q.561,0,1.721.053t1.753.114v6.524Zm-7.215-1.169a1.665,1.665,0,0,0,.812.888,3.513,3.513,0,0,0,1.547.281h1.957v-5.538q-1.334-.09-2.063-.091a2.452,2.452,0,0,0-1.941.653,3.289,3.289,0,0,0-.562,2.154A4.433,4.433,0,0,0,221.609,366.077Zm.933-8.055H223.7V359.3h-1.154Zm1.9,0h1.153V359.3h-1.153Z"/><path class="a" d="M231.858,357.4v10.892h-3.034v-1.046h1.865V357.4Z"/><path class="a" d="M241.825,368.292h-1.9a5.707,5.707,0,0,1-.706,2.837,2.156,2.156,0,0,1-1.934.926,18.423,18.423,0,0,1-2.291-.228V370.8a15.9,15.9,0,0,0,2.214.212,1.691,1.691,0,0,0,.858-.19,1.349,1.349,0,0,0,.523-.781,5.823,5.823,0,0,0,.2-1.745H236.56a2.225,2.225,0,0,1-2.192-1.046,5.938,5.938,0,0,1-.538-2.716,8,8,0,0,1,.272-2.3,2.385,2.385,0,0,1,.986-1.351,3.641,3.641,0,0,1,1.988-.462,14.114,14.114,0,0,1,1.465.091c.57.06,1.044.126,1.417.2v6.539h1.867Zm-6.433-1.812a1.635,1.635,0,0,0,1.609.766h1.79v-5.674a11.289,11.289,0,0,0-1.427-.107,2.591,2.591,0,0,0-1.441.342,1.788,1.788,0,0,0-.721,1,5.849,5.849,0,0,0-.2,1.692A4.324,4.324,0,0,0,235.392,366.48Z"/><path class="a" d="M253.947,367.246v1.046H241.825v-1.046h1.744v-1.214a2.653,2.653,0,0,1,.372-1.373,2.8,2.8,0,0,1,1-1,2.653,2.653,0,0,1,1.373-.372,2.714,2.714,0,0,1,1.359.357,2.675,2.675,0,0,1,1,.986,2.713,2.713,0,0,1,.372,1.4v1.214h2.23v-2.094A3.817,3.817,0,0,0,250.146,362a4.437,4.437,0,0,0-2.86-.9,10.873,10.873,0,0,0-1.418.1q-.75.1-1.8.281l-.075-.895a13.657,13.657,0,0,1,3.5-.531,5.3,5.3,0,0,1,3.542,1.183,4.819,4.819,0,0,1,1.4,3.884v2.124Zm-8.754-2.458a1.5,1.5,0,0,0-.455,1.107v1.351h3.14v-1.351a1.521,1.521,0,0,0-.447-1.107,1.5,1.5,0,0,0-1.116-.455A1.525,1.525,0,0,0,245.193,364.788Z"/><path class="a" d="M265.242,362.543a11.231,11.231,0,0,1,.144,1.532v4.217h-2.822a2.553,2.553,0,0,1-1.684-.637,1.806,1.806,0,0,1-1.441.637h-5.492v-1.046H256.4v-5.781h1.167v5.781h1.5a1.057,1.057,0,0,0,1.01-.6,3.273,3.273,0,0,0,.31-1.509v-3.672h1.169v3.657a5.453,5.453,0,0,1-.213,1.608,2.385,2.385,0,0,0,.577.356,1.653,1.653,0,0,0,.7.16h1.594v-3.292c0-.385-.029-.868-.084-1.449s-.119-1.166-.19-1.753l.956-.045Q265.1,361.571,265.242,362.543Z"/><path class="a" d="M275.914,368.292h-1.9v.167q0,3.61-2.5,3.611c-.162,0-.311-.005-.448-.015s-.255-.02-.356-.03l-.318-.031v-1.031c.505.04.824.06.955.06a1.243,1.243,0,0,0,1.131-.6,3.189,3.189,0,0,0,.371-1.676v-8.026h1.169v6.524h1.9Z"/><path class="a" d="M281.6,367.246v1.046h-5.689v-1.046h2.26v-6.539h1.169v6.539Zm-4.384-9.224h1.153V359.3h-1.153Zm.955-1.851h1.138V357.4h-1.138Zm.942,1.851h1.153V359.3h-1.153Z"/><path class="a" d="M288.968,362.664a4.263,4.263,0,0,1,.615,2.4v3.231H281.6v-1.046h6.813v-2.2a3.419,3.419,0,0,0-.342-1.578,1.2,1.2,0,0,0-1.13-.683h-4.112l-.773-1.046.789-1.548a10.624,10.624,0,0,1,.826-1.327q.553-.782,1.115-1.464l.835.47q-.7,1.047-1.047,1.616t-.637,1.13l-.576,1.123h3.671A2.154,2.154,0,0,1,288.968,362.664Z"/><path class="a" d="M294,357.536l-3.1.607-.136-.485.728-.2a1.377,1.377,0,0,1-.121-2.04,1.362,1.362,0,0,1,1.016-.4,1.73,1.73,0,0,1,.652.121,1.852,1.852,0,0,1,.456.243l-.152.576a1.062,1.062,0,0,0-.28-.151,1.111,1.111,0,0,0-.418-.076.859.859,0,0,0-.645.258.842.842,0,0,0-.25.607.819.819,0,0,0,.349.7l1.729-.455Zm-2.138,1.168h1.167v9.588h-1.167Z"/><path class="a" d="M306.937,367.246v1.046h-2.9a4.777,4.777,0,0,0-1.085-.424,5,5,0,0,0-1.342-.182,2.222,2.222,0,0,0-1.548.485,2.027,2.027,0,0,0-.531,1.563,2.281,2.281,0,0,0,.622,1.722,2.668,2.668,0,0,0,1.912.6,15.265,15.265,0,0,0,2.806-.334l.137.926a15.059,15.059,0,0,1-3.186.44,3.547,3.547,0,0,1-2.6-.88,3.417,3.417,0,0,1-.887-2.534q0-3.035,3.11-3.034a5.788,5.788,0,0,1,1.517.189,4.4,4.4,0,0,1,1.077.418v-4.112a1.536,1.536,0,0,0-.4-1.145,1.625,1.625,0,0,0-1.183-.387q-.683,0-2.7.243l-.424.045-.046-.864a18.809,18.809,0,0,1,3.429-.471q2.488,0,2.488,2.594v4.1Z"/><path class="a" d="M312.627,367.246v1.046h-5.689v-1.046h2.26v-6.539h1.169v6.539Zm-3.429,2.26h1.153v1.275H309.2Z"/><path class="a" d="M322.966,361.731a4.793,4.793,0,0,1,.8,2.754v3.807H312.627v-1.046h2.216v-6.539h1.168v2.427a14.686,14.686,0,0,1,1.236-1.38,4.547,4.547,0,0,1,1.3-.865,4.155,4.155,0,0,1,1.715-.334A3.028,3.028,0,0,1,322.966,361.731Zm-4.574.387a5.855,5.855,0,0,0-1.3,1.1q-.5.584-1.077,1.388v2.64h6.583v-2.6a3.63,3.63,0,0,0-.628-2.177,2.119,2.119,0,0,0-1.829-.872A3.172,3.172,0,0,0,318.392,362.118Z"/><path class="a" d="M328.329,357.536l-3.1.607-.136-.485.728-.2a1.378,1.378,0,0,1-.122-2.04,1.366,1.366,0,0,1,1.017-.4,1.734,1.734,0,0,1,.652.121,1.824,1.824,0,0,1,.455.243l-.151.576a1.071,1.071,0,0,0-.281-.151,1.105,1.105,0,0,0-.417-.076.859.859,0,0,0-.645.258.842.842,0,0,0-.25.607.819.819,0,0,0,.349.7l1.729-.455ZM326.19,358.7h1.168v9.588H326.19Z"/><path class="a" d="M342.013,367.246v1.046h-.486a1.38,1.38,0,0,1-.607-.166,2.631,2.631,0,0,1-.622-.44v.606h-4.885q-1.683,0-1.684,2.079a14.792,14.792,0,0,0,.41,2.852l-.986.03a17.152,17.152,0,0,1-.47-3.307,3.253,3.253,0,0,1,.371-1.707,1.955,1.955,0,0,1,.949-.826,15.12,15.12,0,0,1-.243-2.822,16.53,16.53,0,0,1,.121-2.01,14.507,14.507,0,0,1,.273-1.616,5.542,5.542,0,0,1,1.062-.281,8.089,8.089,0,0,1,1.472-.129,3.646,3.646,0,0,1,2.73.91,4.283,4.283,0,0,1,.88,3.035v2.154a1.552,1.552,0,0,0,1.229.592Zm-2.883,0v-2.761a3.1,3.1,0,0,0-.652-2.215,2.668,2.668,0,0,0-1.988-.668,5.212,5.212,0,0,0-1.32.152,15.678,15.678,0,0,0-.242,2.837q0,.742.068,1.479c.046.491.094.882.145,1.176Z"/><path class="a" d="M347.7,367.246v1.046h-5.689v-1.046h2.26v-6.539h1.168v6.539Zm-4.385,2.26h1.153v1.275h-1.153Zm1.9,0h1.153v1.275h-1.153Z"/><path class="a" d="M353.391,367.246v1.046H347.7v-1.046h2.26v-6.539h1.169v6.539Zm-4.384,2.26h1.153v1.275h-1.153Zm1.9,0h1.153v1.275H350.9Z"/><path class="a" d="M362.372,367.246v1.046h-8.981v-1.046h6.083v-4.112a1.535,1.535,0,0,0-.394-1.145,1.628,1.628,0,0,0-1.184-.387q-.681,0-2.7.243l-.425.045-.045-.864a18.787,18.787,0,0,1,3.429-.471q2.487,0,2.487,2.594v4.1Zm-5.067-9.224h1.153V359.3H357.3Z"/><path class="a" d="M368.061,367.246v1.046h-5.689v-1.046h2.26v-6.539H365.8v6.539Zm-4.369-9.224h1.153V359.3h-1.153Zm1.9,0h1.153V359.3h-1.153Z"/><path class="a" d="M371.1,357.4v10.892h-3.034v-1.046h1.865V357.4Z"/><path class="a" d="M373.827,357.4h1.167v10.892h-1.167Z"/><rect class="a" width="6.784" height="8.233" rx="3.392" transform="translate(240.882 235.536)"/><rect class="a" width="6.784" height="8.233" rx="3.392" transform="translate(230.871 235.536)"/><rect class="a" width="8.101" height="8.562" rx="3.392" transform="translate(304.438 235.207)"/><path class="a" d="M360.359,274.789a3.432,3.432,0,0,1-2.83-1.509,14.261,14.261,0,0,1-1.226-2.212,12.827,12.827,0,0,1-1.02-5.3q0-4.676,2.338-6.652a8.074,8.074,0,0,1,5.367-1.976,16.938,16.938,0,0,1,5.1.922q.345.113.677.223a3.383,3.383,0,0,0,4.455-3.055l.056-1.181a3.4,3.4,0,0,0-2.3-3.38,27.587,27.587,0,0,0-3.155-.873,27.107,27.107,0,0,0-5.631-.691,17.837,17.837,0,0,0-7.18,1.581,14.161,14.161,0,0,0-6.092,5.236,16.559,16.559,0,0,0-2.47,9.451,22.41,22.41,0,0,0,.586,5.267,3.377,3.377,0,0,1-3.3,4.151H316.393A3.392,3.392,0,0,1,313,271.4V253.286a3.392,3.392,0,0,0-3.392-3.392h-2.042a3.392,3.392,0,0,0-3.392,3.392V271.4a3.392,3.392,0,0,1-3.392,3.392h-42.81a3.392,3.392,0,0,1-3.392-3.392V253.14a3.384,3.384,0,0,0-3.11-3.381q-1.737-.138-4.135-.26-5.138-.264-8.825-.264a32.077,32.077,0,0,0-10.736,1.416,9.617,9.617,0,0,0-5.531,4.939q-1.715,3.525-1.713,10.176,0,6.982,1.811,10.637a9.8,9.8,0,0,0,5.566,5.038,30.638,30.638,0,0,0,10.274,1.383h133.8a3.391,3.391,0,0,0,3.392-3.392v-1.251a3.392,3.392,0,0,0-3.392-3.392Zm-114.6-3.392a3.392,3.392,0,0,1-3.392,3.392h-3.72a16.176,16.176,0,0,1-5.4-.724,5.135,5.135,0,0,1-2.93-2.668,13.107,13.107,0,0,1-.956-5.631,11.821,11.821,0,0,1,.923-5.236,5.089,5.089,0,0,1,2.93-2.536,17.274,17.274,0,0,1,5.631-.724q1.91,0,3.729.092a3.379,3.379,0,0,1,3.186,3.388Z"/></g></g></svg>