<svg xmlns="http://www.w3.org/2000/svg" width="14.79" height="12.671" viewBox="0 0 14.79 12.671">
  <g id="Group_157" data-name="Group 157" transform="translate(-33.276 -101)">
    <path id="Path_826" data-name="Path 826" d="M33.743,101.936h2.57l-.451-.343c.075.228.15.456.225.685q.272.822.541,1.643.325.988.652,1.979.283.859.565,1.718c.092.278.179.557.275.833l0,.012a.468.468,0,1,0,.9-.248c-.075-.228-.15-.456-.225-.685q-.272-.822-.541-1.643-.325-.99-.652-1.98-.283-.859-.565-1.718c-.092-.278-.178-.557-.275-.833l0-.012a.483.483,0,0,0-.451-.343h-2.57a.468.468,0,0,0,0,.936Z" fill="#1e319d"/>
    <path id="Path_827" data-name="Path 827" d="M288.352,541.793q-.379.676-.76,1.351c-.036.066-.073.129-.109.2a.472.472,0,0,0,.4.7h7.147c.329,0,.66.006.991,0h.014a.468.468,0,0,0,0-.936h-7.147c-.329,0-.662-.009-.991,0h-.014l.4.7q.379-.676.76-1.351c.036-.066.073-.129.109-.2a.468.468,0,0,0-.808-.471Z" transform="translate(-250.18 -433.692)" fill="#1e319d"/>
    <circle id="Ellipse_74" data-name="Ellipse 74" cx="1.063" cy="1.063" r="1.063" transform="translate(43.343 111.234)" fill="#1e319d"/>
    <path id="Path_828" data-name="Path 828" d="M658.4,738.348a1.4,1.4,0,0,0,.918,1.3,1.376,1.376,0,0,0,1.5-.4,1.375,1.375,0,1,0-2.417-.9.312.312,0,1,0,.624,0c0-.025,0-.052,0-.076a.228.228,0,0,1,0-.033c0-.062,0,.02,0,.019a.61.61,0,0,1,.037-.153c0-.013.014-.065.025-.069s-.028.058-.011.026c.006-.012.012-.025.017-.037a1.386,1.386,0,0,1,.08-.133c.03-.045-.042.048.008-.009.016-.017.031-.036.048-.053s.034-.034.051-.05l.023-.02c.011-.009.056-.031.016-.014s-.009.008,0,0l.034-.023a.582.582,0,0,1,.053-.031c.023-.014.048-.025.073-.037.008,0,.041-.02,0,0s.016,0,.02-.006a.966.966,0,0,1,.131-.037l.042-.008c.034-.008-.03,0-.03,0,.028,0,.058-.006.086-.006a1.268,1.268,0,0,1,.153,0c.058,0-.059-.011.012,0,.028,0,.055.012.083.019l.07.022.039.014s-.058-.03-.026-.011.092.047.136.075l.034.023c.011.008.034.014,0,0s-.011-.009,0,0l.031.026a1.385,1.385,0,0,1,.106.109c.047.052-.022-.036.008.009.012.02.027.039.039.059s.025.042.036.062l.014.028c.03.056.006,0,0-.008.019.006.039.119.045.139l.014.062c.012.059,0-.019,0-.02s0,.044,0,.053a1.061,1.061,0,0,1,0,.142.406.406,0,0,0,0,.044c0,.031-.019.026,0-.019a.491.491,0,0,0-.017.083c-.011.044-.028.086-.041.13s.028-.053.008-.017a.153.153,0,0,0-.012.028c-.013.025-.025.048-.039.072s-.025.041-.039.061c-.042.064.03-.031-.006.011a1.2,1.2,0,0,1-.106.111c-.006.006-.044.047-.055.047s.064-.044.014-.013l-.025.017c-.044.028-.089.051-.134.075s.056-.019-.011,0l-.069.023-.072.019-.031.006c-.069.016.05,0,.009,0a1.233,1.233,0,0,1-.153.006c-.025,0-.05,0-.076,0-.009,0-.047,0,0,0s-.011,0-.022,0a1.168,1.168,0,0,1-.161-.047c-.009,0-.041-.019,0,0l-.019-.009c-.025-.012-.048-.025-.072-.039s-.045-.03-.069-.045,0,.013.014.013c-.006,0-.027-.022-.031-.027a1.147,1.147,0,0,1-.116-.115s-.026-.026-.026-.031.037.053.012.014c-.016-.023-.031-.045-.045-.069s-.03-.055-.044-.081c-.033-.064.016.05-.009-.02a1.133,1.133,0,0,1-.045-.162.1.1,0,0,0-.006-.031c.023.052,0,.044,0,.008s0-.066,0-.1a.316.316,0,0,0-.632,0Z" transform="translate(-615.368 -626.052)" fill="#1e319d"/>
    <circle id="Ellipse_75" data-name="Ellipse 75" cx="1.063" cy="1.063" r="1.063" transform="translate(37.964 111.234)" fill="#1e319d"/>
    <path id="Path_829" data-name="Path 829" d="M313.7,738.348a1.4,1.4,0,0,0,.918,1.3,1.375,1.375,0,0,0,1.5-.4,1.375,1.375,0,1,0-2.417-.9.312.312,0,1,0,.624,0c0-.025,0-.052,0-.076a.237.237,0,0,1,0-.033c0-.062,0,.02,0,.019a.607.607,0,0,1,.037-.153c0-.013.014-.065.025-.069s-.028.058-.011.026a.4.4,0,0,0,.017-.037,1.439,1.439,0,0,1,.08-.133c.03-.045-.042.048.008-.009.016-.017.031-.036.048-.053s.034-.034.051-.05l.023-.02c.011-.009.056-.031.016-.014s-.009.008,0,0l.034-.023a.59.59,0,0,1,.053-.031c.023-.014.048-.025.073-.037.008,0,.041-.02,0,0s.016,0,.02-.006a.969.969,0,0,1,.131-.037l.042-.008c.034-.008-.03,0-.03,0,.028,0,.058-.006.086-.006a1.267,1.267,0,0,1,.153,0c.058,0-.059-.011.013,0,.028,0,.055.012.083.019s.047.014.07.022l.039.014s-.058-.03-.027-.011.092.047.136.075l.034.023c.011.008.034.014,0,0s-.011-.009,0,0l.031.026a1.4,1.4,0,0,1,.106.109c.047.052-.022-.036.008.009.012.02.027.039.039.059s.025.042.036.062l.014.028c.03.056.006,0,0-.008.019.006.039.119.045.139l.014.062c.013.059,0-.019,0-.02s0,.044,0,.053a1.061,1.061,0,0,1,0,.142.39.39,0,0,0,0,.044c0,.031-.019.026,0-.019a.485.485,0,0,0-.017.083c-.011.044-.028.086-.041.13s.028-.053.008-.017a.153.153,0,0,0-.012.028c-.013.025-.025.048-.039.072s-.025.041-.039.061c-.042.064.03-.031-.006.011a1.19,1.19,0,0,1-.106.111c-.006.006-.044.047-.055.047s.064-.044.014-.013l-.025.017c-.044.028-.089.051-.134.075s.056-.019-.011,0l-.069.023-.072.019-.031.006c-.069.016.05,0,.009,0a1.232,1.232,0,0,1-.153.006c-.025,0-.05,0-.076,0-.009,0-.047,0,0,0s-.011,0-.022,0a1.171,1.171,0,0,1-.161-.047c-.009,0-.041-.019,0,0l-.019-.009c-.025-.012-.048-.025-.072-.039s-.045-.03-.069-.045,0,.013.014.013c-.006,0-.027-.022-.031-.027a1.152,1.152,0,0,1-.115-.115s-.026-.026-.026-.031.037.053.012.014c-.016-.023-.031-.045-.045-.069s-.03-.055-.044-.081c-.033-.064.016.05-.009-.02a1.133,1.133,0,0,1-.045-.162.1.1,0,0,0-.006-.031c.023.052,0,.044,0,.008s0-.066,0-.1a.316.316,0,0,0-.632,0Z" transform="translate(-276.045 -626.052)" fill="#1e319d"/>
    <g id="Group_156" data-name="Group 156" transform="translate(36.651 103.132)">
      <path id="Path_830" data-name="Path 830" d="M280.484,258l-1.894,4.884h-7.28L269.7,258Z" transform="translate(-269.385 -257.682)" fill="#1e319d"/>
      <path id="Path_831" data-name="Path 831" d="M260.32,237.843q-.321.826-.64,1.653-.51,1.318-1.019,2.634l-.234.605.3-.229h-6.384c-.293,0-.59-.012-.885,0h-.012l.3.229q-.274-.831-.546-1.66-.433-1.313-.864-2.628c-.067-.2-.133-.4-.2-.605l-.3.395h10.348c.14,0,.281,0,.42,0h.019a.312.312,0,0,0,0-.624H250.275c-.14,0-.281,0-.42,0h-.019a.315.315,0,0,0-.3.395q.274.831.546,1.66.433,1.313.865,2.628c.067.2.133.4.2.605a.322.322,0,0,0,.3.229h6.384c.293,0,.59.011.885,0h.012a.324.324,0,0,0,.3-.229q.321-.826.64-1.653.51-1.318,1.019-2.634l.234-.605a.313.313,0,0,0-.218-.384A.32.32,0,0,0,260.32,237.843Z" transform="translate(-249.522 -237.611)" fill="#1e319d"/>
    </g>
  </g>
</svg>
