<svg xmlns="http://www.w3.org/2000/svg" width="13.686" height="15.21" viewBox="0 0 13.686 15.21">
  <path id="Path_198" data-name="Path 198" d="M23.515,10.008a.453.453,0,0,0-.139-.327L21.123,7.493a.461.461,0,0,0-.759.179A1.652,1.652,0,0,1,18.784,8.8,2.019,2.019,0,0,1,17.1,7.647a.456.456,0,0,0-.423-.284h0a.466.466,0,0,0-.426.281A2.014,2.014,0,0,1,14.561,8.8a1.65,1.65,0,0,1-1.58-1.127.461.461,0,0,0-.759-.179L9.969,9.681a.453.453,0,0,0-.139.327.445.445,0,0,0,.136.33c.978.981.855,2.349.253,4.688s.012,5.525,6.315,7.522a.458.458,0,0,0,.278,0c6.3-2,6.914-5.191,6.315-7.522s-.725-3.707.253-4.688A.445.445,0,0,0,23.515,10.008Zm-6.38,5.37v1.892a.463.463,0,1,1-.926,0V15.379a1.321,1.321,0,1,1,.926,0Zm-.068-1.235a.4.4,0,1,1-.115-.281A.4.4,0,0,1,17.067,14.144Z" transform="translate(-9.83 -7.36)" fill="#1e319d"/>
</svg>
