<svg id="Group_142" data-name="Group 142" xmlns="http://www.w3.org/2000/svg" width="21.014" height="21.014" viewBox="0 0 21.014 21.014">
  <path id="Path_189" data-name="Path 189" d="M0,0H21.014V21.014H0Z" fill="none"/>
  <path id="Path_190" data-name="Path 190" d="M20.01,6.378H18.258a4.378,4.378,0,0,0-8.756,0H7.751A1.743,1.743,0,0,0,6.009,8.129L6,18.636a1.751,1.751,0,0,0,1.751,1.751H20.01a1.751,1.751,0,0,0,1.751-1.751V8.129A1.751,1.751,0,0,0,20.01,6.378ZM13.88,3.751a2.629,2.629,0,0,1,2.627,2.627H11.254A2.629,2.629,0,0,1,13.88,3.751Zm0,8.756A4.38,4.38,0,0,1,9.5,8.129h1.751a2.627,2.627,0,0,0,5.254,0h1.751A4.38,4.38,0,0,1,13.88,12.507Z" transform="translate(-3.373 -1.124)" fill="#616161"/>
</svg>
