<svg xmlns="http://www.w3.org/2000/svg" width="309.345" height="161.21" viewBox="0 0 309.345 161.21"><g transform="translate(0 8.611)"><g transform="translate(25.295)" opacity="0.68"><path d="M-762.822,220.972a50.487,50.487,0,0,0-17.352-33.142c-15.929-13.6-40.025-17.032-61.143-13.887-8.845,1.317-17.617,3.651-26.675,2.916-13.209-1.071-24.846-8.414-36.873-13.8-16.371-7.327-35.138-11.27-52.543-8.082-19.734,3.615-35.914,17.269-37.845,35.386-.874,8.209,8.015,22.671,5.209,30.451-2.846,7.89-23.62,32.059-23.108,50.443.51,18.315,5.295,24.011,12.056,33.319H-780.3c4.21-9.431,7.509-16.975,2.579-29.36-3.939-9.9,6.762-18.045,10.9-27.257A54.341,54.341,0,0,0-762.822,220.972Z" transform="translate(1013.161 -153.865)" fill="#889aff" opacity="0.47"/></g><path d="M-1067.382,276.015a16.759,16.759,0,0,1,7.305-22.548c8.244-4.209,24.066-3.863,28.275,4.381s-8.48,15.282-13.665,22.95C-1052.7,291.492-1063.173,284.259-1067.382,276.015Z" transform="translate(1069.218 -207.069)" fill="#889aff" opacity="0.41"/><path d="M-444.535,371.779c4.032,4.37,4.36,10.625.733,13.972s-12.356,4.842-16.388.472,1.434-9.848,2.662-14.89C-455.816,364.3-448.567,367.409-444.535,371.779Z" transform="translate(735.809 -270.925)" fill="#889aff" opacity="0.41"/><path d="M-505.875,158.109a9.577,9.577,0,0,1,12.94,4c2.469,4.678,2.394,13.721-2.283,16.19s-8.8-4.726-13.22-7.629C-514.6,166.62-510.552,160.578-505.875,158.109Z" transform="translate(763.204 -155.585)" fill="#889aff" opacity="0.41"/><g transform="translate(46.403 20.268)" opacity="0.43"><path d="M-761.51,318.437c2.151-10.7-1.3-19.821-2.158-30.309-.814-9.93,2.713-18.281,4.669-27.739a59.154,59.154,0,0,0-1.025-26.223c-2.984-11.295-9.858-21.752-19.76-28.128-15.43-9.934-36.008-8.765-53.053-1.931-7.139,2.862-14.053,6.671-21.7,7.634-11.151,1.4-22-3.4-32.867-6.285-14.786-3.925-31.019-4.216-44.97,1.979-15.818,7.024-27.066,22.881-25.752,40.345.6,7.913,3.641,15.723,2.563,23.584-1.094,7.973-5.83,14.643-8.338,22.152-3.422,10.249-3.734,25.312,1.768,35.712h196.916A43.3,43.3,0,0,0-761.51,318.437Z" transform="translate(966.383 -198.781)" fill="#9fbfff"/></g><g transform="translate(86.407 70.853)"><g opacity="0.47"><path d="M-749.476,346.442a27.055,27.055,0,0,0-8.89-17.561c-8.161-7.209-20.506-9.025-31.324-7.359-4.532.7-9.026,1.934-13.666,1.545-6.768-.568-12.729-4.458-18.891-7.311-8.388-3.882-18-5.972-26.919-4.282-10.11,1.915-18.4,9.151-19.388,18.75-.449,4.35,4.106,12.013,2.669,16.135-1.458,4.181-12.1,16.988-11.839,26.729.261,9.7,2.712,12.723,6.177,17.655h113.117c2.157-5,3.847-8.995,1.322-15.557-2.018-5.243,3.464-9.562,5.585-14.443A29.69,29.69,0,0,0-749.476,346.442Z" transform="translate(877.73 -310.884)" fill="#9fbfff"/></g></g></g><path d="M-747.37,489.263h-293.366a.713.713,0,0,1-.713-.713h0a.713.713,0,0,1,.713-.713H-747.37a.713.713,0,0,1,.713.713h0A.713.713,0,0,1-747.37,489.263Z" transform="translate(1053.98 -328.525)" fill="#9fbfff"/><circle cx="2.031" cy="2.031" r="2.031" transform="translate(293.387 91.188)" fill="#17014c"/><circle cx="1.579" cy="1.579" r="1.579" transform="translate(279.399 148.044)" fill="#889aff"/><circle cx="2.031" cy="2.031" r="2.031" transform="translate(33.925 20.795)" fill="#889aff"/><path d="M-1037.136,450.67a2.156,2.156,0,0,1-2.156,2.156,2.156,2.156,0,0,1-2.157-2.156,2.156,2.156,0,0,1,2.157-2.156A2.156,2.156,0,0,1-1037.136,450.67Z" transform="translate(1053.98 -306.945)" fill="#17014c"/><circle cx="0.677" cy="0.677" r="0.677" transform="translate(22.193 32.076)" fill="#17014c"/><path d="M-648.072,141.337a5.421,5.421,0,0,1-6.434,4.169,5.421,5.421,0,0,1-4.169-6.434,5.422,5.422,0,0,1,6.434-4.169A5.421,5.421,0,0,1-648.072,141.337Z" transform="translate(843.994 -134.782)" fill="#889aff"/><path d="M-449.492,164.889a1.647,1.647,0,0,1-1.954,1.266,1.647,1.647,0,0,1-1.266-1.954,1.647,1.647,0,0,1,1.954-1.267A1.647,1.647,0,0,1-449.492,164.889Z" transform="translate(730.924 -150.211)" fill="#ffb54a"/><path d="M-919.357,141.674a1.647,1.647,0,0,1-1.954,1.266,1.647,1.647,0,0,1-1.266-1.954,1.647,1.647,0,0,1,1.954-1.267A1.647,1.647,0,0,1-919.357,141.674Z" transform="translate(988.767 -137.471)" fill="#ffb54a"/><path d="M-419.43,247.027a1.646,1.646,0,0,1-1.954,1.266,1.646,1.646,0,0,1-1.266-1.954,1.646,1.646,0,0,1,1.954-1.266A1.646,1.646,0,0,1-419.43,247.027Z" transform="translate(714.427 -195.285)" fill="#4e69ff"/><path d="M-681.228,158.844a1.292,1.292,0,0,1-1.532.993,1.291,1.291,0,0,1-.993-1.532,1.291,1.291,0,0,1,1.532-.993A1.291,1.291,0,0,1-681.228,158.844Z" transform="translate(857.706 -147.13)" fill="#17014c"/><g transform="translate(15.615 9.514)"><g transform="translate(91.999 0)"><g transform="translate(19.492)"><circle cx="25.932" cy="25.932" r="25.932" transform="translate(2.735 2.735)" fill="#1b1b25"/><circle cx="25.932" cy="25.932" r="25.932" fill="#ffb54a"/><path d="M-755.467,208.933a20.91,20.91,0,0,1-20.886-20.886,20.909,20.909,0,0,1,20.886-20.886,20.91,20.91,0,0,1,20.886,20.886A20.91,20.91,0,0,1-755.467,208.933Zm0-40.418A19.554,19.554,0,0,0-775,188.047a19.554,19.554,0,0,0,19.532,19.532,19.554,19.554,0,0,0,19.532-19.532A19.554,19.554,0,0,0-755.467,168.515Z" transform="translate(781.4 -162.064)" fill="#fcf0e3"/><g transform="translate(17.312 12.652)"><path d="M-742.078,206.6a14.8,14.8,0,0,1-3.772-.977,14.349,14.349,0,0,1-3.322-1.878l2.345-3.427a18.066,18.066,0,0,0,2.39,1.548,9.112,9.112,0,0,0,2.51.887v-4.78a20.617,20.617,0,0,1-2.841-.992,7.113,7.113,0,0,1-2.014-1.293,4.91,4.91,0,0,1-1.2-1.758,6.192,6.192,0,0,1-.406-2.329v-.06a5.6,5.6,0,0,1,.451-2.284,5.215,5.215,0,0,1,1.278-1.773,6.515,6.515,0,0,1,2-1.217,9.8,9.8,0,0,1,2.586-.616V183.9h3.126v1.8a12.976,12.976,0,0,1,2.991.8,12.95,12.95,0,0,1,2.6,1.428l-2.014,3.517a17.131,17.131,0,0,0-1.833-1.067,9.28,9.28,0,0,0-1.893-.706v4.539a11.45,11.45,0,0,1,4.974,2.435,5.356,5.356,0,0,1,1.548,4.028v.06a5.443,5.443,0,0,1-.466,2.284,5.383,5.383,0,0,1-1.293,1.773,6.725,6.725,0,0,1-2,1.233,9.431,9.431,0,0,1-2.615.631v2.976h-3.126Zm.15-17.194a2.72,2.72,0,0,0-1.578.646,1.655,1.655,0,0,0-.5,1.217v.06a1.774,1.774,0,0,0,.421,1.188,4.029,4.029,0,0,0,1.653.947Zm2.826,13.5q2.133-.33,2.134-1.924v-.06a1.826,1.826,0,0,0-.451-1.277,4.345,4.345,0,0,0-1.683-.947Z" transform="translate(749.172 -183.903)" fill="#1b1b25"/></g></g><g transform="translate(19.492)"><circle cx="25.932" cy="25.932" r="25.932" transform="translate(2.735 2.735)" fill="#1b1b25"/><circle cx="25.932" cy="25.932" r="25.932" fill="#ffb54a"/><path d="M-755.467,208.933a20.91,20.91,0,0,1-20.886-20.886,20.909,20.909,0,0,1,20.886-20.886,20.91,20.91,0,0,1,20.886,20.886A20.91,20.91,0,0,1-755.467,208.933Zm0-40.418A19.554,19.554,0,0,0-775,188.047a19.554,19.554,0,0,0,19.532,19.532,19.554,19.554,0,0,0,19.532-19.532A19.554,19.554,0,0,0-755.467,168.515Z" transform="translate(781.4 -162.064)" fill="#fcf0e3"/><g transform="translate(17.312 12.652)"><path d="M-742.078,206.6a14.8,14.8,0,0,1-3.772-.977,14.349,14.349,0,0,1-3.322-1.878l2.345-3.427a18.066,18.066,0,0,0,2.39,1.548,9.112,9.112,0,0,0,2.51.887v-4.78a20.617,20.617,0,0,1-2.841-.992,7.113,7.113,0,0,1-2.014-1.293,4.91,4.91,0,0,1-1.2-1.758,6.192,6.192,0,0,1-.406-2.329v-.06a5.6,5.6,0,0,1,.451-2.284,5.215,5.215,0,0,1,1.278-1.773,6.515,6.515,0,0,1,2-1.217,9.8,9.8,0,0,1,2.586-.616V183.9h3.126v1.8a12.976,12.976,0,0,1,2.991.8,12.95,12.95,0,0,1,2.6,1.428l-2.014,3.517a17.131,17.131,0,0,0-1.833-1.067,9.28,9.28,0,0,0-1.893-.706v4.539a11.45,11.45,0,0,1,4.974,2.435,5.356,5.356,0,0,1,1.548,4.028v.06a5.443,5.443,0,0,1-.466,2.284,5.383,5.383,0,0,1-1.293,1.773,6.725,6.725,0,0,1-2,1.233,9.431,9.431,0,0,1-2.615.631v2.976h-3.126Zm.15-17.194a2.72,2.72,0,0,0-1.578.646,1.655,1.655,0,0,0-.5,1.217v.06a1.774,1.774,0,0,0,.421,1.188,4.029,4.029,0,0,0,1.653.947Zm2.826,13.5q2.133-.33,2.134-1.924v-.06a1.826,1.826,0,0,0-.451-1.277,4.345,4.345,0,0,0-1.683-.947Z" transform="translate(749.172 -183.903)" fill="#ffb54a"/></g></g><g transform="translate(6.614 0.959)"><circle cx="11.734" cy="11.734" r="11.734" transform="translate(1.238 1.238)" fill="#1b1b25"/><circle cx="11.734" cy="11.734" r="11.734" fill="#ffb54a"/><path d="M-801.565,182a9.461,9.461,0,0,1-9.45-9.45,9.461,9.461,0,0,1,9.45-9.45,9.461,9.461,0,0,1,9.45,9.45A9.461,9.461,0,0,1-801.565,182Zm0-18.288a8.848,8.848,0,0,0-8.838,8.838,8.848,8.848,0,0,0,8.838,8.838,8.848,8.848,0,0,0,8.838-8.838A8.848,8.848,0,0,0-801.565,163.714Z" transform="translate(813.299 -160.796)" fill="#fcf0e3"/><g transform="translate(7.834 5.725)"><path d="M-795.505,180.946a6.708,6.708,0,0,1-1.707-.442,6.494,6.494,0,0,1-1.5-.85l1.061-1.551a8.131,8.131,0,0,0,1.081.7,4.107,4.107,0,0,0,1.136.4v-2.162a9.3,9.3,0,0,1-1.286-.449,3.205,3.205,0,0,1-.911-.585,2.222,2.222,0,0,1-.544-.8,2.808,2.808,0,0,1-.184-1.054v-.027a2.532,2.532,0,0,1,.2-1.034,2.359,2.359,0,0,1,.578-.8,2.959,2.959,0,0,1,.9-.551,4.433,4.433,0,0,1,1.17-.279v-.789h1.415v.816a5.89,5.89,0,0,1,1.353.36,5.87,5.87,0,0,1,1.176.646l-.911,1.591a7.792,7.792,0,0,0-.83-.482,4.174,4.174,0,0,0-.857-.32v2.054a5.174,5.174,0,0,1,2.251,1.1,2.424,2.424,0,0,1,.7,1.823v.027a2.468,2.468,0,0,1-.211,1.034,2.444,2.444,0,0,1-.585.8,3.034,3.034,0,0,1-.9.558,4.254,4.254,0,0,1-1.183.286v1.346h-1.415Zm.068-7.78a1.229,1.229,0,0,0-.714.292.75.75,0,0,0-.224.551v.027a.8.8,0,0,0,.19.537,1.823,1.823,0,0,0,.748.428Zm1.278,6.107q.966-.149.966-.87v-.027a.825.825,0,0,0-.2-.578,1.958,1.958,0,0,0-.762-.428Z" transform="translate(798.715 -170.677)" fill="#ffb54a"/></g></g><path d="M-825.638,218.295h0a5.1,5.1,0,0,0-5.1-5.1h0a5.1,5.1,0,0,0,5.1-5.1h0a5.1,5.1,0,0,0,5.1,5.1h0A5.1,5.1,0,0,0-825.638,218.295Z" transform="translate(830.733 -184.532)" fill="#fff"/><path d="M-691.333,278.36h0a3.742,3.742,0,0,0-3.743-3.743h0a3.742,3.742,0,0,0,3.743-3.742h0a3.742,3.742,0,0,0,3.742,3.742h0A3.742,3.742,0,0,0-691.333,278.36Z" transform="translate(756.29 -218.978)" fill="#fff"/><path d="M-749.357,310.664h0a6.882,6.882,0,0,0-6.881-6.881h0a6.881,6.881,0,0,0,6.881-6.881h0a6.881,6.881,0,0,0,6.881,6.881h0A6.881,6.881,0,0,0-749.357,310.664Z" transform="translate(789.853 -233.26)" fill="#fff"/><path d="M-696.183,194.058h0a6.449,6.449,0,0,0-6.449-6.448h0a6.449,6.449,0,0,0,6.449-6.449h0a6.448,6.448,0,0,0,6.448,6.449h0A6.448,6.448,0,0,0-696.183,194.058Z" transform="translate(760.436 -169.747)" fill="#fcf0e3"/><path d="M-644.9,210.745h0a3.557,3.557,0,0,0-3.557-3.557h0a3.557,3.557,0,0,0,3.557-3.557h0a3.557,3.557,0,0,0,3.557,3.557h0A3.558,3.558,0,0,0-644.9,210.745Z" transform="translate(730.705 -182.077)" fill="#fff"/></g><g transform="translate(0 11.584)"><path d="M-939.274,193.1h-39.619a7.378,7.378,0,0,0-7.378,7.378,7.378,7.378,0,0,0,7.378,7.378h32.651l4.492,4.093v-4.093h2.476a7.378,7.378,0,0,0,7.378-7.378A7.378,7.378,0,0,0-939.274,193.1Z" transform="translate(1008.085 -187.88)" fill="#4e69ff"/><path d="M-969.094,202.158a2.333,2.333,0,0,0,.846-1.8,2.339,2.339,0,0,0-2.339-2.339,2.339,2.339,0,0,0-2.339,2.339,2.333,2.333,0,0,0,.846,1.8,4.336,4.336,0,0,0-2.845,4.068c0,2.4,8.675,2.4,8.675,0A4.336,4.336,0,0,0-969.094,202.158Z" transform="translate(1001.859 -190.582)" fill="#ffb54a"/><g transform="translate(40.692 8.73)"><path d="M-915.82,201.335h-28.389a.225.225,0,0,1-.226-.226.226.226,0,0,1,.226-.226h28.389a.226.226,0,0,1,.226.226A.225.225,0,0,1-915.82,201.335Z" transform="translate(944.435 -200.884)" fill="#fff"/><path d="M-920.224,216.1h-23.985a.226.226,0,0,1-.226-.226.225.225,0,0,1,.226-.226h23.985a.226.226,0,0,1,.226.226A.226.226,0,0,1-920.224,216.1Z" transform="translate(944.435 -208.985)" fill="#fff"/><path d="M-926.756,209.184h-17.453a.226.226,0,0,1-.226-.226.225.225,0,0,1,.226-.226h17.453a.226.226,0,0,1,.226.226A.226.226,0,0,1-926.756,209.184Z" transform="translate(944.435 -205.191)" fill="#fff"/><path d="M-891.948,209.184h-8.759a.226.226,0,0,1-.226-.226.226.226,0,0,1,.226-.226h8.759a.226.226,0,0,1,.226.226A.226.226,0,0,1-891.948,209.184Z" transform="translate(920.563 -205.191)" fill="#fff"/></g><path d="M-961.984,208.5a.674.674,0,0,1-.478-.2l-1.7-1.7a.677.677,0,0,1,0-.958.677.677,0,0,1,.957,0l1.221,1.222,3.283-3.282a.676.676,0,0,1,.957,0,.677.677,0,0,1,0,.957L-961.5,208.3A.675.675,0,0,1-961.984,208.5Z" transform="translate(996.062 -193.524)" fill="#fff"/><g transform="translate(237.942 43.638)"><path d="M-499.735,278.246h40.648a7.57,7.57,0,0,1,7.57,7.57,7.57,7.57,0,0,1-7.57,7.57h-33.5l-4.609,4.2v-4.2h-2.54a7.57,7.57,0,0,1-7.57-7.57A7.57,7.57,0,0,1-499.735,278.246Z" transform="translate(507.305 -278.246)" fill="#ffb54a"/><g transform="translate(41.477 2.318)"><path d="M-409.555,287.522a2.335,2.335,0,0,0,.846-1.8,2.339,2.339,0,0,0-2.339-2.339,2.339,2.339,0,0,0-2.339,2.339,2.333,2.333,0,0,0,.846,1.8,4.335,4.335,0,0,0-2.845,4.068c0,2.4,8.675,2.4,8.675,0A4.335,4.335,0,0,0-409.555,287.522Z" transform="translate(415.386 -283.383)" fill="#4e69ff"/><g transform="translate(5.47 4.1)"><path d="M-399.341,293.809h-1.12v-1.12a.22.22,0,0,0-.22-.22H-401.7a.22.22,0,0,0-.22.22v1.12h-1.12a.22.22,0,0,0-.22.22v1.023a.22.22,0,0,0,.22.22h1.12v1.12a.221.221,0,0,0,.22.22h1.022a.221.221,0,0,0,.22-.22v-1.12h1.12a.22.22,0,0,0,.22-.22v-1.023A.22.22,0,0,0-399.341,293.809Z" transform="translate(403.264 -292.469)" fill="#fff"/></g></g><g transform="translate(9.313 4.062)"><path d="M-458.053,287.7h-28.389a.225.225,0,0,1-.226-.226.226.226,0,0,1,.226-.226h28.389a.225.225,0,0,1,.226.226A.225.225,0,0,1-458.053,287.7Z" transform="translate(486.667 -287.248)" fill="#fff"/><path d="M-462.457,302.461h-23.984a.225.225,0,0,1-.226-.226.226.226,0,0,1,.226-.226h23.984a.225.225,0,0,1,.226.226A.225.225,0,0,1-462.457,302.461Z" transform="translate(486.667 -295.349)" fill="#fff"/><path d="M-468.988,295.547h-17.453a.225.225,0,0,1-.226-.226.226.226,0,0,1,.226-.226h17.453a.226.226,0,0,1,.226.226A.225.225,0,0,1-468.988,295.547Z" transform="translate(486.667 -291.555)" fill="#fff"/><path d="M-434.181,295.547h-8.759a.225.225,0,0,1-.226-.226.226.226,0,0,1,.226-.226h8.759a.225.225,0,0,1,.226.226A.225.225,0,0,1-434.181,295.547Z" transform="translate(462.795 -291.555)" fill="#fff"/></g></g><g transform="translate(189.204)"><path d="M-610.1,181.538h28a5.215,5.215,0,0,1,5.215,5.215,5.215,5.215,0,0,1-5.215,5.215h-28a5.214,5.214,0,0,1-5.215-5.215A5.214,5.214,0,0,1-610.1,181.538Z" transform="translate(615.316 -181.538)" fill="#4e69ff"/><g transform="translate(8.119 3.048)"><path d="M-575.387,188.744H-597.1a.225.225,0,0,1-.226-.226.225.225,0,0,1,.226-.226h21.71a.226.226,0,0,1,.226.226A.225.225,0,0,1-575.387,188.744Z" transform="translate(597.323 -188.293)" fill="#fff"/><path d="M-578.755,197.486H-597.1a.225.225,0,0,1-.226-.226.225.225,0,0,1,.226-.226h18.342a.225.225,0,0,1,.226.226A.225.225,0,0,1-578.755,197.486Z" transform="translate(597.323 -193.09)" fill="#fff"/><path d="M-583.75,193.392H-597.1a.225.225,0,0,1-.226-.226.225.225,0,0,1,.226-.226h13.347a.225.225,0,0,1,.226.226A.226.226,0,0,1-583.75,193.392Z" transform="translate(597.323 -190.844)" fill="#fff"/><path d="M-557.132,193.392h-6.7a.226.226,0,0,1-.226-.226.225.225,0,0,1,.226-.226h6.7a.225.225,0,0,1,.226.226A.226.226,0,0,1-557.132,193.392Z" transform="translate(579.067 -190.844)" fill="#fff"/></g></g><g transform="translate(0 73.927)"><path d="M-1029.978,345.37h24.9a4.637,4.637,0,0,1,4.637,4.636,4.637,4.637,0,0,1-4.637,4.637h-24.9a4.636,4.636,0,0,1-4.636-4.637A4.636,4.636,0,0,1-1029.978,345.37Z" transform="translate(1034.614 -345.37)" fill="#ffb54a"/><g transform="translate(7.195 2.685)"><path d="M-999.14,351.772h-19.3a.225.225,0,0,1-.226-.226.225.225,0,0,1,.226-.226h19.3a.225.225,0,0,1,.226.226A.226.226,0,0,1-999.14,351.772Z" transform="translate(1018.67 -351.321)" fill="#fff"/><path d="M-1002.135,359.545h-16.309a.225.225,0,0,1-.226-.226.225.225,0,0,1,.226-.226h16.309a.226.226,0,0,1,.226.226A.226.226,0,0,1-1002.135,359.545Z" transform="translate(1018.67 -355.587)" fill="#fff"/><path d="M-1006.577,355.9h-11.868a.225.225,0,0,1-.226-.226.225.225,0,0,1,.226-.226h11.868a.226.226,0,0,1,.226.226A.225.225,0,0,1-1006.577,355.9Z" transform="translate(1018.67 -353.588)" fill="#fff"/><path d="M-982.908,355.9h-5.956a.225.225,0,0,1-.226-.226.226.226,0,0,1,.226-.226h5.956a.226.226,0,0,1,.226.226A.225.225,0,0,1-982.908,355.9Z" transform="translate(1002.438 -353.588)" fill="#fff"/></g></g></g><g transform="translate(94.164 110.132)"><g transform="translate(50.032)"><path d="M-670.594,400.383h-44.238a.226.226,0,0,1-.226-.226.225.225,0,0,1,.226-.226h44.238a.225.225,0,0,1,.226.226A.226.226,0,0,1-670.594,400.383Z" transform="translate(715.057 -399.932)" fill="#fff"/><path d="M-662.248,423.387h-37.375a.226.226,0,0,1-.226-.226.225.225,0,0,1,.226-.226h37.375a.225.225,0,0,1,.226.226A.226.226,0,0,1-662.248,423.387Z" transform="translate(706.711 -412.556)" fill="#fff"/><path d="M-649.87,412.612h-27.2a.225.225,0,0,1-.226-.226.226.226,0,0,1,.226-.226h27.2a.226.226,0,0,1,.226.226A.225.225,0,0,1-649.87,412.612Z" transform="translate(694.333 -406.643)" fill="#fff"/><path d="M-701.182,412.612h-13.649a.225.225,0,0,1-.226-.226.226.226,0,0,1,.226-.226h13.649a.225.225,0,0,1,.226.226A.225.225,0,0,1-701.182,412.612Z" transform="translate(715.057 -406.643)" fill="#fff"/></g><g transform="translate(0 16.465)"><path d="M-781.472,436.872h-44.238a.226.226,0,0,1-.226-.226.226.226,0,0,1,.226-.226h44.238a.226.226,0,0,1,.225.226A.226.226,0,0,1-781.472,436.872Z" transform="translate(825.935 -436.421)" fill="#fff"/><path d="M-788.335,459.875h-37.374a.226.226,0,0,1-.226-.226.226.226,0,0,1,.226-.226h37.374a.225.225,0,0,1,.226.226A.225.225,0,0,1-788.335,459.875Z" transform="translate(825.935 -449.044)" fill="#fff"/><path d="M-798.513,449.1h-27.2a.226.226,0,0,1-.226-.226.225.225,0,0,1,.226-.226h27.2a.225.225,0,0,1,.225.226A.226.226,0,0,1-798.513,449.1Z" transform="translate(825.935 -443.132)" fill="#fff"/><path d="M-744.273,449.1h-13.65a.226.226,0,0,1-.226-.226.225.225,0,0,1,.226-.226h13.65a.225.225,0,0,1,.226.226A.226.226,0,0,1-744.273,449.1Z" transform="translate(788.736 -443.132)" fill="#fff"/></g></g><g transform="translate(149.784 29.899)"><g transform="translate(0 7.084)"><path d="M-680.479,285.966l.015-.052,6.533-22.727-.028-.021a8.163,8.163,0,0,1,2.614-2.9,7.564,7.564,0,0,0,3.015-4.991c1.438-1.392,3.059-2.58,4.527-3.939a1.048,1.048,0,0,0,.358-.5.875.875,0,0,0-.186-.653,2.593,2.593,0,0,0-3.309-.767,8.061,8.061,0,0,0-1.854,1.211,9.18,9.18,0,0,0-1.47,1.257l5.2-11.1a1.848,1.848,0,0,0-.671-2.5h0a1.545,1.545,0,0,0-1.313.027,2.089,2.089,0,0,0-.723.575l.025-.129c-6.087-5.118-13.6,12.3-13.6,12.3l-2.132,5.03-18.077,33.517A9.738,9.738,0,0,0-697.2,302.9h0c.071.035.143.065.214.1a9.817,9.817,0,0,0,4.923,1.318h35.576l7.666-18.22Zm10.136-33.912Z" transform="translate(702.675 -237.825)" fill="#fec29e"/><g transform="translate(15.472 48.09)"><path d="M-656.854,352.377l-.911,3.168C-657.434,354.45-657.123,353.376-656.854,352.377Z" transform="translate(662.558 -348.776)" fill="none"/><path d="M-667.755,385.129Z" transform="translate(668.386 -366.738)" fill="#ff887c" opacity="0.17"/><path d="M-666.974,385.153l.292.009Z" transform="translate(667.611 -366.762)" fill="#ff887c" opacity="0.17"/><path d="M-660.518,344.4l-1.035,3.6c-.269,1-.58,2.073-.911,3.168l-1.251,4.352a9.808,9.808,0,0,1-.648,1.587c-1.077,3.221-1.965,5.691-1.965,5.691l12.794-18.319C-656.717,344.477-657.447,344.4-660.518,344.4Z" transform="translate(667.257 -344.397)" fill="#ff887c" opacity="0.17"/><path d="M-666.988,385.152h0Z" transform="translate(667.619 -366.762)" fill="#ff887c" opacity="0.17"/></g><path d="M-642.312,268.8a.225.225,0,0,1-.134-.044.226.226,0,0,1-.047-.315,4.135,4.135,0,0,1,5.353-1.4.225.225,0,0,1,.086.307.226.226,0,0,1-.306.087,3.637,3.637,0,0,0-4.77,1.273A.225.225,0,0,1-642.312,268.8Z" transform="translate(669.674 -253.603)" fill="#fb8e77"/><path d="M-630.574,239.833a34.467,34.467,0,0,0-2.584,3.717,16.871,16.871,0,0,0-1.026,2,4.924,4.924,0,0,0-.483,2.1v.014a.226.226,0,0,1-.214.237.226.226,0,0,1-.237-.213v-.005a5.281,5.281,0,0,1,.561-2.293,17.207,17.207,0,0,1,1.091-2.027,34.812,34.812,0,0,1,2.685-3.7.135.135,0,0,1,.19-.018.135.135,0,0,1,.02.187Z" transform="translate(665.603 -238.806)" fill="#fb8e77"/><path d="M-634.626,238.356a8.5,8.5,0,0,0-1.608,1.516,13.459,13.459,0,0,0-1.278,1.829,16.2,16.2,0,0,0-.976,2.01c-.148.343-.258.7-.388,1.049l-.324,1.071,0,.013a.225.225,0,0,1-.281.151.226.226,0,0,1-.151-.281v0l.351-1.089c.14-.355.26-.718.417-1.066a16.465,16.465,0,0,1,1.039-2.04,13.821,13.821,0,0,1,1.346-1.853,8.752,8.752,0,0,1,1.708-1.546.14.14,0,0,1,.193.04.14.14,0,0,1-.037.192Z" transform="translate(668.086 -237.972)" fill="#fb8e77"/><path d="M-639.221,238.784a21.928,21.928,0,0,0-2.363,2.92,12.445,12.445,0,0,0-.931,1.616,6.606,6.606,0,0,0-.57,1.733v.006a.225.225,0,0,1-.258.187.226.226,0,0,1-.188-.258v-.005a7.02,7.02,0,0,1,.652-1.84,12.9,12.9,0,0,1,1-1.64,22.248,22.248,0,0,1,2.473-2.905.132.132,0,0,1,.186,0,.131.131,0,0,1,0,.184Z" transform="translate(670.221 -238.227)" fill="#fb8e77"/><g transform="translate(31.759 48.076)"><path d="M-559.748,377.525l-8.727-23.788c-1.039-5.219-6-9.177-11.979-9.177l-24.377-.194-27.464.1v18.309h8.523l-4.4,47.753,60.476.342-.339-32.336Z" transform="translate(632.294 -344.366)" fill="#4e69ff"/><path d="M-604.656,415.2" transform="translate(617.127 -383.236)" fill="none" stroke="#fb8e77" stroke-linecap="round" stroke-miterlimit="10" stroke-width="1"/></g><path d="M-604.878,344.57l.048-.2-27.464.1v18.309h8.523l.045-.483C-623.726,352.634-615.326,344.781-604.878,344.57Z" transform="translate(664.053 -296.29)" fill="#1b1b25" opacity="0.05"/><path d="M-648.453,286.1s1.541,13.093,1.632,12.777l2.645-9.2Z" transform="translate(672.92 -264.318)" fill="#ff887c" opacity="0.18"/></g><g transform="translate(43.586 72.97)"><path d="M-589.2,406.018l-2.308-11.632-1.781-8.975a1.963,1.963,0,0,0-2.3-1.539l-8.914,1.769a1.963,1.963,0,0,0-1.539,2.3l1.792,9.033,1.422,7.164.875,4.41a1.963,1.963,0,0,0,2.3,1.538l5.266-1.045,3.649-.724A1.963,1.963,0,0,0-589.2,406.018Z" transform="translate(606.083 -383.835)" fill="#1b1b25"/><g transform="translate(0.381 10.551)"><path d="M-541.289,429.57l-4.02-17.5-18.277,2.236,1,4.452-.093-.023-19.869-4.919-.017.024a6.661,6.661,0,0,1-2.484-2.284,5.949,5.949,0,0,0-4.465-2.558c-.539-.565-1.041-1.168-1.538-1.777l.466,2.346-.116.062a7.534,7.534,0,0,1-4.113.855l-8.736-.682a1.328,1.328,0,0,0-1.307.743c-2.557,5.375,8.422,10.293,10.928,11.332h0l.088.037.1.042.1.039.08.032.075.029.029.012.037.014,4.3,1.61,34.017,16.744a9.848,9.848,0,0,0,.958.4,8.483,8.483,0,0,0,5.453.564h0A9.866,9.866,0,0,0-541.289,429.57Z" transform="translate(605.239 -407.217)" fill="#fec29e"/><path d="M-491.931,432.541l-21-9.625c.7,3.054.293,1.706.911,4.429l1.429.354C-504.544,428.108-491.931,432.541-491.931,432.541Z" transform="translate(554.584 -415.832)" fill="#ff887c" opacity="0.17"/></g><path d="M-520.158,407.409a.225.225,0,0,1-.221-.18L-523,394.519a.225.225,0,0,1,.175-.267.224.224,0,0,1,.267.175l2.582,12.506,8.838-1.125a.225.225,0,0,1,.253.2.226.226,0,0,1-.2.253l-9.045,1.151Z" transform="translate(560.494 -389.549)" fill="#1b1b25" opacity="0.35"/></g><g transform="translate(106.621 100.23)"><path d="M-466.074,445.85l.036.18Z" transform="translate(466.217 -445.127)" fill="#ff887c" opacity="0.17"/><path d="M-465.995,446.249Z" transform="translate(466.174 -445.346)" fill="#ff887c" opacity="0.17"/><path d="M-466.391,444.247s.049.245.1.482Z" transform="translate(466.391 -444.247)" fill="#ff887c" opacity="0.17"/><path d="M-466.18,445.315l.048.241Z" transform="translate(466.275 -444.833)" fill="#ff887c" opacity="0.17"/></g><g transform="translate(49.188)"><path d="M-561,230.352a7.2,7.2,0,0,0-7.928-6.121,7.171,7.171,0,0,0-2.819.938,6.342,6.342,0,0,0-6.127-3,6.31,6.31,0,0,0-3.693,1.747,8.314,8.314,0,0,0-4.676-.834,8.362,8.362,0,0,0-7.369,9.248,8.323,8.323,0,0,0,2.782,5.331l-1.7,9.078a4.8,4.8,0,0,0,3.835,5.6l20.136,3.769a4.8,4.8,0,0,0,5.6-3.835l3.3-17.622A4.794,4.794,0,0,0-561,230.352Z" transform="translate(593.669 -222.125)" fill="#1b1b25"/><g transform="translate(1.817 3.665)"><path d="M-588.142,239.773a.226.226,0,0,1-.191-.105,6.769,6.769,0,0,1,1.408-9.378.225.225,0,0,1,.315.051.226.226,0,0,1-.051.315c-.192.138-4.656,3.443-1.289,8.77a.226.226,0,0,1-.07.311A.226.226,0,0,1-588.142,239.773Z" transform="translate(589.642 -230.247)" fill="#fcf0e3"/></g><g transform="translate(0.528 15.224)"><path d="M-563.618,266.662l-.44-.082-4.445-9.554a7.2,7.2,0,0,1-3.008-1.163,5.4,5.4,0,0,1-3.373,1.712,5.409,5.409,0,0,1-4.269-1.391,8.316,8.316,0,0,1-4.572,2.026,8.326,8.326,0,0,1-5.521-1.314l-3.1,16.54a9.11,9.11,0,0,0,1.148,6.375,9.252,9.252,0,0,0,6.511,5.56v10.923a6.919,6.919,0,0,0,6.9,6.9h2.176a6.919,6.919,0,0,0,6.9-6.9v-12.4a9.213,9.213,0,0,0,2.257-4.521l.565-3.02.44.083a4.849,4.849,0,0,0,5.641-3.863l.05-.265A4.849,4.849,0,0,0-563.618,266.662Z" transform="translate(592.498 -255.863)" fill="#fec29e"/><path d="M-565.325,300.413l-.4,2.154a9.156,9.156,0,0,1-10.684,7.315l-7.027-1.315a9.124,9.124,0,0,1-6.167-4.309,9.258,9.258,0,0,0,6.887,5.65l.28.053a6.913,6.913,0,0,0,6.211,3.923h2.2a6.92,6.92,0,0,0,6.711-5.334,9.221,9.221,0,0,0,2.448-4.734l.565-3.02Z" transform="translate(590.912 -280.31)" fill="#ff887c" opacity="0.32"/></g><g transform="translate(1.856 21.155)"><path d="M-530.05,289.461a.224.224,0,0,1-.138-.047l-1.756-1.363a.225.225,0,0,1-.087-.167.225.225,0,0,1,.07-.175l2.165-2.044a.226.226,0,0,1,.319.01.225.225,0,0,1-.009.319l-1.973,1.863,1.548,1.2a.226.226,0,0,1,.04.317A.224.224,0,0,1-530.05,289.461Z" transform="translate(557.989 -278.114)" fill="#fb8e77"/><g transform="translate(0)"><g transform="translate(2.174)"><g transform="translate(10.416)"><path d="M-557.473,271.957a2.665,2.665,0,0,1-1.036-.394c-.347-.188-.7-.368-1.013-.514s-.679-.3-1.046-.446a2.654,2.654,0,0,1-.966-.54c-.216-.239-.173-.615.331-.867a3.06,3.06,0,0,1,2.5.171,2.968,2.968,0,0,1,1.71,1.79C-556.877,271.7-557.148,271.97-557.473,271.957Z" transform="translate(561.657 -269.006)" fill="#1b1b25"/></g><g transform="translate(0 0.373)"><path d="M-584.5,271.173a3,3,0,0,0,1.085.224c.393.034.787.077,1.129.125s.734.115,1.121.19a2.977,2.977,0,0,0,1.1.082c.309-.069.471-.368.176-.8a3.279,3.279,0,0,0-2.2-1.115,3.149,3.149,0,0,0-2.392.471C-584.866,270.687-584.779,271.021-584.5,271.173Z" transform="translate(584.74 -269.832)" fill="#1b1b25"/></g></g><rect width="1.148" height="1.844" rx="0.574" transform="matrix(-0.983, -0.184, 0.184, -0.983, 14.034, 6.917)" fill="#1b1b25"/><rect width="1.148" height="1.844" rx="0.574" transform="matrix(-0.983, -0.184, 0.184, -0.983, 4.308, 5.336)" fill="#1b1b25"/><path d="M.711,0H2.682a.711.711,0,0,1,.711.711v0a.711.711,0,0,1-.711.711H.711A.711.711,0,0,1,0,.711v0A.711.711,0,0,1,.711,0Z" transform="translate(16.54 9.696) rotate(-173.583)" fill="#ff887c" opacity="0.17"/><path d="M.711,0H2.682a.71.71,0,0,1,.71.71v0a.71.71,0,0,1-.71.71H.71A.71.71,0,0,1,0,.711v0A.711.711,0,0,1,.711,0Z" transform="matrix(-0.994, -0.112, 0.112, -0.994, 3.371, 7.622)" fill="#ff887c" opacity="0.17"/><path d="M-575.412,306.9a.225.225,0,0,1-.182-.092.226.226,0,0,1,.049-.315,2.134,2.134,0,0,1,2.433,0,.225.225,0,0,1,.055.314.227.227,0,0,1-.314.056,1.694,1.694,0,0,0-1.908,0A.224.224,0,0,1-575.412,306.9Z" transform="translate(581.918 -289.365)" fill="#fb8e77"/><path d="M-571.756,292.735l5.277-.754-.578,1.833a2.82,2.82,0,0,1-2.688,1.971h0a1.873,1.873,0,0,1-1.862-1.674Z" transform="translate(579.788 -281.614)" fill="#fff"/><path d="M-572.888,279.316a.225.225,0,0,1-.057-.007l-1.636-.426a2.288,2.288,0,0,1-1.536-1.321,2.286,2.286,0,0,1,.1-2.023l2.491-4.485a.226.226,0,0,1,.307-.088.225.225,0,0,1,.088.306l-2.491,4.485a1.837,1.837,0,0,0-.083,1.627,1.836,1.836,0,0,0,1.235,1.062l1.636.426a.225.225,0,0,1,.161.275A.225.225,0,0,1-572.888,279.316Z" transform="translate(582.284 -270.065)" fill="#fb8e77"/></g></g></g></g><g transform="translate(31.271 40.919)"><g transform="translate(3.497)"><g transform="translate(60.705)"><path d="M-784.913,298.42-802.99,264.9l-2.131-5.029s-7.51-17.42-13.6-12.3l.025.13a2.085,2.085,0,0,0-.723-.576,1.546,1.546,0,0,0-1.313-.027h0a1.848,1.848,0,0,0-.671,2.5l5.2,11.1a9.2,9.2,0,0,0-1.47-1.257,8.09,8.09,0,0,0-1.854-1.211,2.593,2.593,0,0,0-3.309.767.874.874,0,0,0-.186.653,1.04,1.04,0,0,0,.357.5c1.468,1.36,3.089,2.548,4.528,3.939a7.562,7.562,0,0,0,3.015,4.991,8.168,8.168,0,0,1,2.614,2.9l-.028.021,6.547,22.779-9.562.128v18.22H-794.4a9.819,9.819,0,0,0,4.929-1.321c.069-.032.139-.061.208-.095h0A9.738,9.738,0,0,0-784.913,298.42Z" transform="translate(823.034 -246.593)" fill="#fec29e"/><path d="M-787.94,371.6h0s-4.914-13.221-5.758-18.4c-3.256,0-3.751.145-7.007.145Z" transform="translate(810.781 -305.076)" fill="#ff887c" opacity="0.17"/><path d="M-803.135,277.607a.226.226,0,0,1-.182-.092,3.637,3.637,0,0,0-4.769-1.273.226.226,0,0,1-.307-.087.225.225,0,0,1,.086-.307,4.135,4.135,0,0,1,5.353,1.4.225.225,0,0,1-.047.315A.224.224,0,0,1-803.135,277.607Z" transform="translate(815.016 -262.372)" fill="#fb8e77"/><path d="M-813.538,248.457a19.02,19.02,0,0,1,1.52,1.732,18.768,18.768,0,0,1,1.308,1.9,13.943,13.943,0,0,1,1.011,2.086,8.878,8.878,0,0,1,.507,2.286.226.226,0,0,1-.207.243.226.226,0,0,1-.243-.207v-.013a8.493,8.493,0,0,0-.439-2.172,13.537,13.537,0,0,0-.94-2.042,18.5,18.5,0,0,0-1.246-1.889,18.865,18.865,0,0,0-1.459-1.732l0,0a.134.134,0,0,1,0-.19A.134.134,0,0,1-813.538,248.457Z" transform="translate(817.949 -247.574)" fill="#fb8e77"/><path d="M-810.126,246.562a5.953,5.953,0,0,1,1.779,1.543,12.2,12.2,0,0,1,1.3,1.933,19.979,19.979,0,0,1,1,2.1l.41,1.085.365,1.1a.226.226,0,0,1-.143.285.226.226,0,0,1-.285-.143v0l0-.01-.339-1.09-.384-1.073a19.482,19.482,0,0,0-.941-2.072,11.847,11.847,0,0,0-1.226-1.9,5.744,5.744,0,0,0-1.638-1.489l-.021-.011a.139.139,0,0,1-.056-.189A.14.14,0,0,1-810.126,246.562Z" transform="translate(816.063 -246.547)" fill="#fb8e77"/><path d="M-804.645,247.392a11.211,11.211,0,0,1,1.378,1.343,12.978,12.978,0,0,1,1.159,1.531,12.228,12.228,0,0,1,.929,1.686,12.682,12.682,0,0,1,.666,1.813.226.226,0,0,1-.151.281.226.226,0,0,1-.281-.151v0l0-.012a12.259,12.259,0,0,0-.6-1.763,11.785,11.785,0,0,0-.86-1.658,12.606,12.606,0,0,0-1.093-1.521,10.987,10.987,0,0,0-1.3-1.338l-.005,0a.132.132,0,0,1-.015-.185A.132.132,0,0,1-804.645,247.392Z" transform="translate(813.06 -246.995)" fill="#fb8e77"/><path d="M-801.574,298.934l6.986-.862-4.32,8.592S-800.194,300.275-801.574,298.934Z" transform="translate(811.258 -274.822)" fill="#ff887c" opacity="0.18"/></g><g transform="translate(0 48.218)"><path d="M-915.246,353.493v.008c-.108,0-.215-.008-.323-.008h-22.073a11.209,11.209,0,0,0-10.482,7.24h0l-.033.092-.016.044-9.388,25.59,8.715,1.066v28.419h47.431l3.547-44.23h8.251V353.4Z" transform="translate(957.563 -353.404)" fill="#fff"/><path d="M-837.094,353.4l-25.2.105v0a17.734,17.734,0,0,1,16.986,17.717l-.039.484h8.251Z" transform="translate(905.282 -353.404)" fill="#1b1b25" opacity="0.05"/><path d="M-823.888,424" transform="translate(884.207 -392.147)" fill="none" stroke="#fb8e77" stroke-linecap="round" stroke-miterlimit="10" stroke-width="1"/></g></g><g transform="translate(0 65.924)"><path d="M-844.61,394.448l-8.914-1.768a1.962,1.962,0,0,0-2.3,1.538l-1.781,8.975-2.308,11.632a1.963,1.963,0,0,0,1.539,2.3l3.649.724,5.266,1.045a1.962,1.962,0,0,0,2.3-1.539l.875-4.409,1.422-7.164,1.792-9.033A1.962,1.962,0,0,0-844.61,394.448Z" transform="translate(907.495 -392.642)" fill="#1b1b25"/><g transform="translate(0 3.773)"><path d="M-901.495,419.256a1.3,1.3,0,0,0-.5-.548c-.038-.056-.068-.112-.11-.168l-.213.027a1.362,1.362,0,0,0-.485-.054l-8.736.682a7.527,7.527,0,0,1-4.113-.854l-.211-.112.438-2.205c-.472.578-.95,1.149-1.458,1.689a6.1,6.1,0,0,0-3.1,1.171,5.6,5.6,0,0,0-1.44,1.476,7.151,7.151,0,0,1-1.615,1.735,5.551,5.551,0,0,1-.746.458l-.017-.024-19.87,4.919-.092.023,1.009-4.474-18.282-2.215-4.02,17.5a9.867,9.867,0,0,0,7.408,11.825h0a8.482,8.482,0,0,0,5.453-.564,9.932,9.932,0,0,0,.958-.4l33.632-16.555,4.558-1.709s.184-.07.507-.2l-.067-.014C-910.531,429.819-898.868,424.778-901.495,419.256Z" transform="translate(965.314 -409.245)" fill="#fec29e"/><g transform="translate(1.246 13.841)"><path d="M-962.507,454.621c-.019.1-.03.154-.036.181Z" transform="translate(962.547 -444.267)" fill="#ff887c" opacity="0.17"/><path d="M-942.064,436.126c.412-1.894.292-1.731.917-4.451l-21.006,9.647s2.082-.627,4.954-1.388c.267-.1.539-.187.819-.263Z" transform="translate(962.333 -431.675)" fill="#ff887c" opacity="0.17"/><path d="M-962.413,454.049l-.051.258C-962.451,454.241-962.434,454.155-962.413,454.049Z" transform="translate(962.504 -443.953)" fill="#ff887c" opacity="0.17"/><path d="M-962.548,455.022c-.005.027-.005.028,0,0Z" transform="translate(962.552 -444.487)" fill="#ff887c" opacity="0.17"/><path d="M-962.261,453.053l-.089.449Z" transform="translate(962.441 -443.406)" fill="#ff887c" opacity="0.17"/></g><path d="M-916.976,415.069l-.028,0-3.988-.492a.225.225,0,0,1-.2-.251.226.226,0,0,1,.251-.2l3.771.465,2.1-13.4a.227.227,0,0,1,.258-.188.226.226,0,0,1,.188.258l-2.134,13.615A.226.226,0,0,1-916.976,415.069Z" transform="translate(941.1 -401.003)" fill="#1b1b25" opacity="0.35"/></g><path d="M-901.526,433.51l9-.226c1.68.221,4.354-1.295,4.043-2.961h0Z" transform="translate(930.309 -413.32)" fill="#ff887c" opacity="0.08"/></g><g transform="translate(13.568 1.508)"><path d="M-891.622,290.924l-3.062-20.842a23.032,23.032,0,0,0-1.93-6.424l1.663-.267s-1.167-16.917-20.141-12.878a23.086,23.086,0,0,0-5.736.125h0a16.869,16.869,0,0,0-14.238,19.142l1.785,12.15a16.869,16.869,0,0,0,19.142,14.237l20.9-3.071A1.913,1.913,0,0,0-891.622,290.924Z" transform="translate(935.246 -249.889)" fill="#1b1b25"/><path d="M-866.737,266.208a.226.226,0,0,1-.223-.2.226.226,0,0,1,.193-.254l6.1-.833a.18.18,0,0,0,.122-.074.168.168,0,0,0,.031-.129c-.986-5.5-6.052-8.037-6.1-8.062a.226.226,0,0,1-.1-.3.226.226,0,0,1,.3-.1c.053.026,5.323,2.658,6.35,8.388a.617.617,0,0,1-.11.474.636.636,0,0,1-.426.256l-6.1.833Z" transform="translate(897.775 -253.37)" fill="#fcf0e3"/><g transform="translate(7.802 10.732)"><path d="M-888.842,276.985l-16.7,2.683-4.054-6a13.486,13.486,0,0,1-4.136,11.01s-.051-.069-.138-.2l-.138.026a4.848,4.848,0,0,0-3.862,5.641h0a4.849,4.849,0,0,0,5.641,3.863l.319-.06a12.435,12.435,0,0,0,3.614,6.325v10.7a6.919,6.919,0,0,0,6.9,6.9h0a6.919,6.919,0,0,0,6.9-6.9v-8.453a12.522,12.522,0,0,0,6.128-6.145l.008-.012a12.338,12.338,0,0,0,1.539-8.621Z" transform="translate(917.955 -273.673)" fill="#fec29e"/><path d="M-889.359,326.691h0a12.388,12.388,0,0,1-14.055-8.334c-.062-.191-1.152.059-1.125.176A12.439,12.439,0,0,0-900.9,324.8a6.92,6.92,0,0,0,6.866,6.263h0a6.913,6.913,0,0,0,6.111-3.717A12.51,12.51,0,0,0-881,320.86,12.354,12.354,0,0,1-889.359,326.691Z" transform="translate(910.593 -298.156)" fill="#ff887c" opacity="0.32"/></g><g transform="translate(10.618 16.293)"><path d="M-911.091,307.151a.224.224,0,0,1-.178-.087.226.226,0,0,1,.04-.317l1.5-1.164-1.915-1.807a.226.226,0,0,1-.01-.319.226.226,0,0,1,.319-.009l2.107,1.988a.228.228,0,0,1,.07.175.225.225,0,0,1-.087.167l-1.708,1.326A.224.224,0,0,1-911.091,307.151Z" transform="translate(911.715 -295.539)" fill="#fb8e77"/><g transform="translate(11.632)"><g transform="translate(0.709)"><g transform="translate(0 1.634)"><path d="M-884.067,291.369a1.591,1.591,0,0,0,.615-.234c.206-.112.416-.218.6-.305s.4-.179.62-.265a1.577,1.577,0,0,0,.574-.32c.128-.142.1-.365-.2-.515a1.817,1.817,0,0,0-1.482.1,1.762,1.762,0,0,0-1.015,1.063C-884.42,291.216-884.259,291.377-884.067,291.369Z" transform="translate(884.366 -289.617)" fill="#1b1b25"/></g><g transform="translate(9.512)"><path d="M-860.529,287.3a1.58,1.58,0,0,1-.656-.055c-.229-.05-.46-.095-.662-.126s-.436-.06-.67-.083a1.579,1.579,0,0,1-.64-.149c-.162-.1-.2-.323.047-.549a1.817,1.817,0,0,1,1.453-.312,1.761,1.761,0,0,1,1.269.741C-860.231,287.056-860.341,287.254-860.529,287.3Z" transform="translate(863.286 -285.996)" fill="#1b1b25"/></g></g><path d="M-876,311.95a4.447,4.447,0,0,1-3.1-1.471.225.225,0,0,1,.029-.318.226.226,0,0,1,.318.029,3.588,3.588,0,0,0,4.176.981.224.224,0,0,1,.3.11.225.225,0,0,1-.11.3A3.813,3.813,0,0,1-876,311.95Z" transform="translate(882.213 -299.228)" fill="#fb8e77"/><path d="M-869.45,298.881a.226.226,0,0,1-.221-.182.226.226,0,0,1,.178-.265l1.587-.312a1.826,1.826,0,0,0,1.436-2.141.66.66,0,0,0-.773-.518,1.543,1.543,0,0,1-1.809-1.214l-.383-1.947a.225.225,0,0,1,.178-.265.226.226,0,0,1,.265.178l.383,1.946a1.091,1.091,0,0,0,1.28.859,1.1,1.1,0,0,1,.833.167,1.1,1.1,0,0,1,.47.707,2.276,2.276,0,0,1-1.792,2.67l-1.587.312A.242.242,0,0,1-869.45,298.881Z" transform="translate(877.014 -289.309)" fill="#fb8e77"/><path d="M-880.094,299.781h0a.56.56,0,0,1-.651-.446l-.125-.666a.56.56,0,0,1,.446-.652h0a.56.56,0,0,1,.651.446l.125.666A.56.56,0,0,1-880.094,299.781Z" transform="translate(883.162 -292.588)" fill="#1b1b25"/><path d="M-859.124,296.373h0a.56.56,0,0,1-.651-.446l-.125-.666a.56.56,0,0,1,.446-.652h0a.56.56,0,0,1,.652.446l.125.666A.56.56,0,0,1-859.124,296.373Z" transform="translate(871.654 -290.718)" fill="#1b1b25"/><path d="M-883.263,305.834l-1.906.214a.694.694,0,0,1-.764-.61h0a.693.693,0,0,1,.61-.764l1.905-.214a.693.693,0,0,1,.764.61h0A.693.693,0,0,1-883.263,305.834Z" transform="translate(885.938 -296.126)" fill="#ff887c" opacity="0.17"/><path d="M-854.87,301.361l-1.906.214a.694.694,0,0,1-.764-.61h0a.694.694,0,0,1,.61-.764l1.905-.214a.693.693,0,0,1,.764.61h0A.694.694,0,0,1-854.87,301.361Z" transform="translate(870.357 -293.671)" fill="#ff887c" opacity="0.17"/><path d="M-866.965,324.117a.223.223,0,0,1-.133-.044,1.641,1.641,0,0,0-1.849,0,.226.226,0,0,1-.314-.055.226.226,0,0,1,.055-.314,2.081,2.081,0,0,1,2.374,0,.225.225,0,0,1,.049.315A.225.225,0,0,1-866.965,324.117Z" transform="translate(876.808 -306.485)" fill="#fb8e77"/></g></g></g></g></g></svg>