<svg id="team" xmlns="http://www.w3.org/2000/svg" width="90.146" height="90.146" viewBox="0 0 90.146 90.146">
  <path id="Path_124" data-name="Path 124" d="M185.379,130.3v-9.326a6.217,6.217,0,0,1,6.217-6.217h0a13.9,13.9,0,0,0,12.434,0h0a6.217,6.217,0,0,1,6.217,6.217V130.3a3.108,3.108,0,0,1-3.108,3.108H188.487A3.107,3.107,0,0,1,185.379,130.3Z" transform="translate(-152.74 -94.553)" fill="#1e319d"/>
  <circle id="Ellipse_11" data-name="Ellipse 11" cx="7.771" cy="7.771" r="7.771" transform="translate(37.302 0)" fill="#fec29e"/>
  <g id="Group_75" data-name="Group 75" transform="translate(7.771 7.801)">
    <path id="Path_125" data-name="Path 125" d="M45.692,96.282a1.555,1.555,0,0,1-1.554-1.554,37.266,37.266,0,0,1,22.7-34.338,1.554,1.554,0,1,1,1.219,2.86h0A34.162,34.162,0,0,0,47.246,94.728,1.555,1.555,0,0,1,45.692,96.282Z" transform="translate(-44.138 -57.455)" fill="#bec5ef"/>
    <path id="Path_126" data-name="Path 126" d="M349.933,96.282a1.555,1.555,0,0,1-1.554-1.554,34.162,34.162,0,0,0-20.814-31.478,1.554,1.554,0,0,1,1.219-2.86,37.266,37.266,0,0,1,22.7,34.338A1.555,1.555,0,0,1,349.933,96.282Z" transform="translate(-276.884 -57.455)" fill="#bec5ef"/>
    <path id="Path_127" data-name="Path 127" d="M183.266,440.026a37.1,37.1,0,0,1-14.6-2.964,1.554,1.554,0,1,1,1.219-2.86,34.474,34.474,0,0,0,26.758,0,1.554,1.554,0,1,1,1.219,2.86A37.1,37.1,0,0,1,183.266,440.026Z" transform="translate(-145.964 -365.452)" fill="#bec5ef"/>
    <path id="Path_128" data-name="Path 128" d="M172.373,434.6a1.553,1.553,0,0,1-1.38-.835l-3.108-5.948a1.553,1.553,0,0,1,.657-2.1,1.663,1.663,0,0,1,.284-.115l6.217-1.823a1.555,1.555,0,0,1,.873,2.984l-4.4,1.29,2.233,4.269a1.554,1.554,0,0,1-1.377,2.274Z" transform="translate(-145.951 -356.919)" fill="#bec5ef"/>
    <path id="Path_129" data-name="Path 129" d="M430.028,228.549a1.551,1.551,0,0,1-1.1-.455l-4.663-4.663a1.554,1.554,0,0,1,2.2-2.2l3.564,3.564,3.564-3.564a1.554,1.554,0,0,1,2.2,2.2l-4.663,4.663A1.551,1.551,0,0,1,430.028,228.549Z" transform="translate(-356.979 -189.723)" fill="#bec5ef"/>
    <path id="Path_130" data-name="Path 130" d="M137.339,56.711a1.525,1.525,0,0,1-.672-.155,1.554,1.554,0,0,1-.727-2.073l2.423-5.058-4.776-2.176a1.554,1.554,0,0,1,1.29-2.826l6.217,2.84a1.554,1.554,0,0,1,.762,2.062l-.009.019-3.108,6.486A1.556,1.556,0,0,1,137.339,56.711Z" transform="translate(-117.134 -44.307)" fill="#bec5ef"/>
  </g>
  <path id="Path_131" data-name="Path 131" d="M231.638,8.934A7.739,7.739,0,0,1,220.8,19.776,7.75,7.75,0,1,0,231.638,8.934Z" transform="translate(-181.921 -7.361)" fill="#ffb093"/>
  <circle id="Ellipse_12" data-name="Ellipse 12" cx="7.771" cy="7.771" r="7.771" transform="translate(69.941 51.29)" fill="#fec29e"/>
  <path id="Path_132" data-name="Path 132" d="M417.017,300.244a7.739,7.739,0,0,1-10.842,10.842,7.75,7.75,0,1,0,10.842-10.842Z" transform="translate(-334.661 -247.381)" fill="#ffb093"/>
  <circle id="Ellipse_13" data-name="Ellipse 13" cx="7.771" cy="7.771" r="7.771" transform="translate(4.663 51.29)" fill="#fec29e"/>
  <path id="Path_133" data-name="Path 133" d="M46.259,300.244a7.739,7.739,0,0,1-10.842,10.842,7.75,7.75,0,1,0,10.842-10.842Z" transform="translate(-29.181 -247.381)" fill="#ffb093"/>
  <path id="Path_134" data-name="Path 134" d="M185.379,145.007a3.108,3.108,0,0,0,3.108,3.108h18.651a3.108,3.108,0,0,0,3.108-3.108v-9.326a6.144,6.144,0,0,0-.844-3.074A29.472,29.472,0,0,1,185.379,145.007Z" transform="translate(-152.74 -109.259)" fill="#2639a2"/>
  <path id="Path_135" data-name="Path 135" d="M0,421.611v-9.326a6.217,6.217,0,0,1,6.217-6.217h0a13.9,13.9,0,0,0,12.434,0h0a6.217,6.217,0,0,1,6.217,6.217v9.326a3.108,3.108,0,0,1-3.108,3.108H3.108A3.108,3.108,0,0,1,0,421.611Z" transform="translate(0 -334.574)" fill="#1e319d"/>
  <path id="Path_136" data-name="Path 136" d="M0,436.318a3.108,3.108,0,0,0,3.108,3.108H21.759a3.108,3.108,0,0,0,3.108-3.108v-9.326a6.143,6.143,0,0,0-.844-3.074A29.473,29.473,0,0,1,0,436.318Z" transform="translate(0 -349.28)" fill="#2639a2"/>
  <path id="Path_137" data-name="Path 137" d="M370.759,421.611v-9.326a6.217,6.217,0,0,1,6.217-6.217h0a13.9,13.9,0,0,0,12.434,0h0a6.217,6.217,0,0,1,6.217,6.217v9.326a3.108,3.108,0,0,1-3.108,3.108H373.867A3.108,3.108,0,0,1,370.759,421.611Z" transform="translate(-305.481 -334.574)" fill="#1e319d"/>
  <path id="Path_138" data-name="Path 138" d="M370.759,436.318a3.108,3.108,0,0,0,3.108,3.108h18.651a3.108,3.108,0,0,0,3.108-3.108v-9.326a6.144,6.144,0,0,0-.844-3.074A29.473,29.473,0,0,1,370.759,436.318Z" transform="translate(-305.481 -349.28)" fill="#2639a2"/>
</svg>
