<svg xmlns="http://www.w3.org/2000/svg" width="14.821" height="14.821" viewBox="0 0 14.821 14.821">
  <path id="Path_191" data-name="Path 191" d="M3.117,3.117a2.117,2.117,0,1,1,3.41,1.677l-.045.034A2.117,2.117,0,0,1,3.117,3.117Zm7.176,1.677.045.034a2.121,2.121,0,1,0-.045-.034Zm-3.717,1.5a2.118,2.118,0,1,1-.283,1.059A2.116,2.116,0,0,1,6.576,6.293Zm-3.989,0H5.415a3.181,3.181,0,0,0,.628,3.176H5.764a2.648,2.648,0,0,0-2.493,1.755,3.952,3.952,0,0,1-.988-.575A3.436,3.436,0,0,1,1,7.881,1.588,1.588,0,0,1,2.588,6.293Zm8.469,3.176a2.648,2.648,0,0,1,2.493,1.755,3.953,3.953,0,0,0,.988-.575,3.437,3.437,0,0,0,1.283-2.768,1.588,1.588,0,0,0-1.588-1.588H11.406a3.181,3.181,0,0,1-.628,3.176Zm1.468,2.041a1.585,1.585,0,0,1,.12.606,3.437,3.437,0,0,1-1.283,2.768,4.692,4.692,0,0,1-2.951.937,4.692,4.692,0,0,1-2.951-.937,3.436,3.436,0,0,1-1.283-2.768,1.587,1.587,0,0,1,1.588-1.588h5.293A1.588,1.588,0,0,1,12.526,11.51Z" transform="translate(-1 -1)" fill="#1e319d"/>
</svg>
