<svg xmlns="http://www.w3.org/2000/svg" width="23.998" height="23.998" viewBox="0 0 23.998 23.998">
  <g id="Group_79" data-name="Group 79" transform="translate(0)">
    <path id="Path_149" data-name="Path 149" d="M12,0H12A11.992,11.992,0,0,0,2.284,19.032L.789,23.49,5.4,22.015A12,12,0,1,0,12,0Z" transform="translate(0)" fill="#4caf50"/>
    <path id="Path_150" data-name="Path 150" d="M17.308,15.115a3.386,3.386,0,0,1-2.355,1.693c-.627.133-1.446.24-4.2-.9-3.526-1.461-5.8-5.044-5.974-5.277A6.853,6.853,0,0,1,3.352,7.01a3.831,3.831,0,0,1,1.227-2.92,1.743,1.743,0,0,1,1.227-.43c.148,0,.282.007.4.013.352.015.529.036.762.592.289.7.994,2.419,1.078,2.6a.714.714,0,0,1,.051.649,2.074,2.074,0,0,1-.388.55c-.177.2-.345.36-.522.579-.162.19-.345.394-.141.747a10.65,10.65,0,0,0,1.947,2.419,8.822,8.822,0,0,0,2.814,1.735.759.759,0,0,0,.846-.133,14.518,14.518,0,0,0,.937-1.242.67.67,0,0,1,.861-.261c.324.112,2.038.96,2.391,1.135s.585.261.67.409A2.988,2.988,0,0,1,17.308,15.115Z" transform="translate(1.676 1.829)" fill="#fafafa"/>
  </g>
</svg>
